{"asset":{"version":"2.0","generator":"Blockbench 4.12.4 glTF exporter"},"scenes":[{"nodes":[4],"name":"blockbench_export"}],"scene":0,"nodes":[{"rotation":[-0.7071067811865475,0,0,0.7071067811865476],"translation":[0,23,0],"name":"lower 1","mesh":0},{"rotation":[-0.7071067811865475,0,0,0.7071067811865476],"translation":[0,23,0],"name":"upper1","mesh":1},{"rotation":[-5.801741961193503e-17,-0.7071067811865468,-0.7071067811865482,2.857818601161433e-17],"translation":[0,23,0],"name":"upper2","mesh":2},{"rotation":[-6.783049747870864e-17,-0.7071067811865468,-0.7071067811865482,1.8765108144840746e-17],"translation":[0,23,0],"name":"lower2","mesh":3},{"children":[0,1,2,3]}],"bufferViews":[{"buffer":0,"byteOffset":0,"byteLength":1416,"target":34962,"byteStride":12},{"buffer":0,"byteOffset":1416,"byteLength":1416,"target":34962,"byteStride":12},{"buffer":0,"byteOffset":2832,"byteLength":944,"target":34962,"byteStride":8},{"buffer":0,"byteOffset":3776,"byteLength":288,"target":34963},{"buffer":0,"byteOffset":4064,"byteLength":1416,"target":34962,"byteStride":12},{"buffer":0,"byteOffset":5480,"byteLength":1416,"target":34962,"byteStride":12},{"buffer":0,"byteOffset":6896,"byteLength":944,"target":34962,"byteStride":8},{"buffer":0,"byteOffset":7840,"byteLength":288,"target":34963},{"buffer":0,"byteOffset":8128,"byteLength":1416,"target":34962,"byteStride":12},{"buffer":0,"byteOffset":9544,"byteLength":1416,"target":34962,"byteStride":12},{"buffer":0,"byteOffset":10960,"byteLength":944,"target":34962,"byteStride":8},{"buffer":0,"byteOffset":11904,"byteLength":288,"target":34963},{"buffer":0,"byteOffset":12192,"byteLength":1416,"target":34962,"byteStride":12},{"buffer":0,"byteOffset":13608,"byteLength":1416,"target":34962,"byteStride":12},{"buffer":0,"byteOffset":15024,"byteLength":944,"target":34962,"byteStride":8},{"buffer":0,"byteOffset":15968,"byteLength":288,"target":34963}],"buffers":[{"byteLength":16256,"uri":"data:application/octet-stream;base64,"}],"accessors":[{"bufferView":0,"componentType":5126,"count":118,"max":[10.363118171691895,4,-1.0640714168548584],"min":[1.5640714168548584,-4,-23],"type":"VEC3"},{"bufferView":1,"componentType":5126,"count":118,"max":[1,1,0.9805806875228882],"min":[-1,-1,-1],"type":"VEC3"},{"bufferView":2,"componentType":5126,"count":118,"max":[1.34556245803833,1.34556245803833],"min":[0,0],"type":"VEC2"},{"bufferView":3,"componentType":5123,"count":144,"max":[117],"min":[0],"type":"SCALAR"},{"bufferView":4,"componentType":5126,"count":118,"max":[10.363118171691895,4,9.863118171691895],"min":[1.5640714168548584,-4,1.0640714168548584],"type":"VEC3"},{"bufferView":5,"componentType":5126,"count":118,"max":[1,1,1],"min":[-1,-1,-0.9805806875228882],"type":"VEC3"},{"bufferView":6,"componentType":5126,"count":118,"max":[0.5186874866485596,0.5335394144058228],"min":[0,0],"type":"VEC2"},{"bufferView":7,"componentType":5123,"count":144,"max":[117],"min":[0],"type":"SCALAR"},{"bufferView":8,"componentType":5126,"count":118,"max":[10.363118171691895,4,9.863118171691895],"min":[1.5640714168548584,-4,1.0640714168548584],"type":"VEC3"},{"bufferView":9,"componentType":5126,"count":118,"max":[1,1,1],"min":[-1,-1,-0.9805806875228882],"type":"VEC3"},{"bufferView":10,"componentType":5126,"count":118,"max":[0.5186874866485596,0.5335394144058228],"min":[0,0],"type":"VEC2"},{"bufferView":11,"componentType":5123,"count":144,"max":[117],"min":[0],"type":"SCALAR"},{"bufferView":12,"componentType":5126,"count":118,"max":[10.363118171691895,4,-1.0640714168548584],"min":[1.5640714168548584,-4,-23],"type":"VEC3"},{"bufferView":13,"componentType":5126,"count":118,"max":[1,1,0.9805806875228882],"min":[-1,-1,-1],"type":"VEC3"},{"bufferView":14,"componentType":5126,"count":118,"max":[1.34556245803833,1.34556245803833],"min":[0,0],"type":"VEC2"},{"bufferView":15,"componentType":5123,"count":144,"max":[117],"min":[0],"type":"SCALAR"}],"materials":[{"pbrMetallicRoughness":{"metallicFactor":0,"roughnessFactor":1},"alphaMode":"MASK","alphaCutoff":0.05,"doubleSided":true}],"meshes":[{"primitives":[{"mode":4,"attributes":{"POSITION":0,"NORMAL":1,"TEXCOORD_0":2},"indices":3,"material":0}]},{"primitives":[{"mode":4,"attributes":{"POSITION":4,"NORMAL":5,"TEXCOORD_0":6},"indices":7,"material":0}]},{"primitives":[{"mode":4,"attributes":{"POSITION":8,"NORMAL":9,"TEXCOORD_0":10},"indices":11,"material":0}]},{"primitives":[{"mode":4,"attributes":{"POSITION":12,"NORMAL":13,"TEXCOORD_0":14},"indices":15,"material":0}]}]}