# Made in Blockbench 4.12.4
mtllib obelisk.mtl

o lower 1
v 0.4914448613738104 1.3397455391875677 0.24999999999999997
v 0.4914448613738104 1.3397455391875677 -0.25
v 0.4744809649152579 1.2764354157099118 0.24999999999999997
v 0.4744809649152579 1.276435415709912 -0.25000000000000006
v 0.44939856759602886 1.2158811519249986 0.24999999999999994
v 0.44939856759602886 1.2158811519249988 -0.25000000000000006
v 0.41662683618840984 1.1591188480750017 0.24999999999999994
v 0.41662683618840984 1.1591188480750017 -0.25000000000000006
v 0.3767265041028254 1.107119722916278 0.24999999999999992
v 0.3767265041028254 1.107119722916278 -0.25000000000000006
v 0.33038027708372214 1.0607734958971746 0.24999999999999992
v 0.33038027708372214 1.0607734958971746 -0.2500000000000001
v 0.27838115192499846 1.0208731638115902 0.24999999999999992
v 0.27838115192499846 1.0208731638115902 -0.2500000000000001
v 0.22161884807500148 0.9881014324039712 0.2499999999999999
v 0.22161884807500148 0.9881014324039712 -0.2500000000000001
v 0.16106458429008835 0.9630190350847421 0.2499999999999999
v 0.16106458429008835 0.9630190350847423 -0.2500000000000001
v 0.09775446081243264 0.9460551386261895 0.2499999999999999
v 0.09775446081243264 0.9460551386261897 -0.2500000000000001
v 0.6476948613738104 1.3709955391875677 0.24999999999999997
v 0.6476948613738104 1.3709955391875677 -0.25
v 0.09775446081243264 0 0.24999999999999967
v 0.09775446081243264 0 -0.25000000000000033
v 0.6476948613738104 0 -0.25000000000000033
v 0.6476948613738104 0 0.24999999999999967
vt 0.0655375 1
vt 0.0655375 0.5
vt 0 0.5
vt 0 1
vt 0.0655375 1
vt 0.0655375 0.5
vt 0 0.5
vt 0 1
vt 0.0655375 1
vt 0.0655375 0.5
vt 0 0.5
vt 0 1
vt 0.0655375 1
vt 0.0655375 0.5
vt 0 0.5
vt 0 1
vt 0.0655375 1
vt 0.0655375 0.5
vt 0 0.5
vt 0 1
vt 0.0655375 1
vt 0.0655375 0.5
vt 0 0.5
vt 0 1
vt 0.0655375 1
vt 0.0655375 0.5
vt 0 0.5
vt 0 1
vt 0.0655375 1
vt 0.0655375 0.5
vt 0 0.5
vt 0 1
vt 0.0655375 1
vt 0.0655375 0.5
vt 0 0.5
vt 0 1
vt 0 0.5
vt 0.12884375000000003 0.5
vt 0.12884375000000003 1
vt 0 1
vt 0 1
vt 0 0.5
vt 0.94605625 0.5
vt 0.94605625 1
vt 0 1
vt 0 0.5
vt 0.5186875 0.5
vt 0.5186875 1
vt 0 1
vt 0 0.5
vt 1.30849375 0.5
vt 1.30849375 1
vt 0 -0.33974375
vt 0.12499999999999994 -0.30849375
vt 0.12499999999999994 1
vt 0 0.977229830889828
vt 1.3455624532752326 0.9772298308898268
vt 0.061456709104919294 1
vt 0 -0.1249649896544911
vt 0.6195964935860845 1
vt 0 -0.05942013085057729
vt 0 0.030569201757929543
vt 0.7526451726646276 1
vt 5.551115123125783e-17 0.09611446879720553
vt 5.551115123125783e-17 0.2020407206052418
vt 0.864143968260453 1
vt 0 0.26758467532266794
vt 0 0.3866555779987886
vt 0.9523579294063366 1
vt 0 0.45219553778001664
vt 0 0.581202070910408
vt 1.0157182922058257 1
vt 0 0.6467460256278341
vt 0 0.782289307629197
vt 1.0531258585556977 1
vt 5.551115123125783e-17 0.8478345746684731
vt 0 0.9344602840120432
vt 1.0640622118208127 0.9344602840120417
vt 0.0008210626305910074 0.999999999999997
vt 0.015560697606976592 0.9363346845975236
vt 1.078915729248727 0.9999999999999997
vt 0 0.9999999999999994
vt 0 0.05394374999999996
vt 0.5186875 1
vt 0 1
vt 0.12499999999999994 -0.33974375
vt 0.12499999999999994 0.96875
vt 0 1
vt 0.022770169110172156 -0.3455624532752326
vt 0.02277016911017199 1
vt 0 0.9385432908950808
vt 0.0316212130964687 -0.2843076122224377
vt 0.03162121309646865 1
vt 1.9984014443252818e-15 0.9425872192109384
vt 0.04019574523852881 -0.22730225638007573
vt 0.04019574523852876 1
vt 0 0.9482266082242115
vt 0.048153926349873144 -0.1762158855640088
vt 0.048153926349873144 1
vt 0 0.9555341774270283
vt 0.05510145772490327 -0.132774031174411
vt 0.055101457724903324 1
vt 1.1102230246251565e-16 0.9645131618101062
vt 0.06059526989624153 -0.09866981142254483
vt 0.06059526989624153 1
vt 1.7208456881689926e-15 0.9750155395054875
vt 0.06418803030272 -0.07539389041004396
vt 0.06418803030272016 1
vt 0 0.9867305313931913
vt 0.06553971598795649 -0.06406221182081273
vt 0.06553971598795633 1
vt 2.4980018054066022e-15 0.999178937369409
vt 0.25616181533369486 -0.04806501477019953
vt 0.06553935989397898 1
vt 0 1
vt 0.5186875 0.05394374999999996
vt 0 1
vt 0 0.05394374999999996
vn -0.9659258262890684 0.2588190451025206 5.746937261686304e-17
vn -0.9238795325112867 0.3826834323650897 8.497279155086129e-17
vn -0.866025403784439 0.4999999999999993 1.1102230246251549e-16
vn -0.7933533402912352 0.6087614290087207 1.3517219099783887e-16
vn -0.7071067811865476 0.7071067811865476 1.5700924586837752e-16
vn -0.6087614290087212 0.7933533402912349 1.7615982901092119e-16
vn -0.4999999999999993 0.866025403784439 1.9229626863835648e-16
vn -0.3826834323650904 0.9238795325112866 2.0514246579479126e-16
vn -0.2588190451025215 0.9659258262890682 2.1447861848524057e-16
vn -0.19611613513818396 0.9805806756909202 2.1773264873091063e-16
vn -1 0 0
vn 0 -1 -2.220446049250313e-16
vn 1 0 0
vn 0 2.220446049250313e-16 -1
vn 0 2.220446049250313e-16 -1
vn 0 2.220446049250313e-16 -1
vn 0 2.220446049250313e-16 -1
vn 0 2.220446049250313e-16 -1
vn 0 2.220446049250313e-16 -1
vn 0 2.220446049250313e-16 -1
vn 0 2.220446049250313e-16 -1
vn 0 2.220446049250313e-16 -1
vn 0 2.220446049250313e-16 -1
vn 0 2.220446049250313e-16 -1
vn 0 -2.220446049250313e-16 1
vn 0 -2.220446049250313e-16 1
vn 0 -2.220446049250313e-16 1
vn 0 -2.220446049250313e-16 1
vn 0 -2.220446049250313e-16 1
vn 0 -2.220446049250313e-16 1
vn 0 -2.220446049250313e-16 1
vn 0 -2.220446049250313e-16 1
vn 0 -2.220446049250313e-16 1
vn 0 -2.220446049250313e-16 1
vn 0 -2.220446049250313e-16 1
usemtl none
f 4/1/1 3/2/1 1/3/1 2/4/1
f 6/5/2 5/6/2 3/7/2 4/8/2
f 8/9/3 7/10/3 5/11/3 6/12/3
f 10/13/4 9/14/4 7/15/4 8/16/4
f 12/17/5 11/18/5 9/19/5 10/20/5
f 14/21/6 13/22/6 11/23/6 12/24/6
f 16/25/7 15/26/7 13/27/7 14/28/7
f 18/29/8 17/30/8 15/31/8 16/32/8
f 20/33/9 19/34/9 17/35/9 18/36/9
f 1/37/10 21/38/10 22/39/10 2/40/10
f 24/41/11 23/42/11 19/43/11 20/44/11
f 25/45/12 26/46/12 23/47/12 24/48/12
f 22/49/13 21/50/13 26/51/13 25/52/13
f 2/53/14 22/54/14 25/55/14
f 2/56/15 25/57/15 4/58/15
f 4/59/16 25/60/16 6/61/16
f 6/62/17 25/63/17 8/64/17
f 8/65/18 25/66/18 10/67/18
f 10/68/19 25/69/19 12/70/19
f 12/71/20 25/72/20 14/73/20
f 14/74/21 25/75/21 16/76/21
f 16/77/22 25/78/22 18/79/22
f 18/80/23 25/81/23 20/82/23
f 20/83/24 25/84/24 24/85/24
f 26/86/25 21/87/25 1/88/25
f 26/89/26 1/90/26 3/91/26
f 26/92/27 3/93/27 5/94/27
f 26/95/28 5/96/28 7/97/28
f 26/98/29 7/99/29 9/100/29
f 26/101/30 9/102/30 11/103/30
f 26/104/31 11/105/31 13/106/31
f 26/107/32 13/108/32 15/109/32
f 26/110/33 15/111/33 17/112/33
f 26/113/34 17/114/34 19/115/34
f 26/116/35 19/117/35 23/118/35
o upper1
v 0.09775446081243246 1.9289448613738103 0.2500000000000001
v 0.09775446081243246 1.9289448613738105 -0.2499999999999999
v 0.16106458429008827 1.9119809649152577 0.2500000000000001
v 0.16106458429008827 1.911980964915258 -0.2499999999999999
v 0.22161884807500148 1.8868985675960288 0.2500000000000001
v 0.22161884807500148 1.8868985675960288 -0.2499999999999999
v 0.27838115192499846 1.8541268361884096 0.2500000000000001
v 0.27838115192499846 1.8541268361884098 -0.24999999999999992
v 0.3303802770837221 1.8142265041028254 0.2500000000000001
v 0.3303802770837221 1.8142265041028254 -0.24999999999999992
v 0.3767265041028253 1.767880277083722 0.25000000000000006
v 0.3767265041028253 1.767880277083722 -0.24999999999999992
v 0.41662683618840973 1.7158811519249983 0.25000000000000006
v 0.41662683618840973 1.7158811519249986 -0.24999999999999994
v 0.44939856759602886 1.6591188480750014 0.25000000000000006
v 0.44939856759602886 1.6591188480750017 -0.24999999999999994
v 0.4744809649152578 1.5985645842900884 0.25000000000000006
v 0.4744809649152578 1.5985645842900884 -0.24999999999999997
v 0.4914448613738104 1.5352544608124326 0.25
v 0.4914448613738104 1.5352544608124326 -0.24999999999999997
v 0.09775446081243244 2.0539448613738105 0.2500000000000001
v 0.09775446081243244 2.0539448613738105 -0.24999999999999986
v 0.6476948613738104 1.5040044608124323 0.25
v 0.6476948613738104 1.5040044608124326 -0.24999999999999997
v 0.64769375 2.0539448613738105 -0.24999999999999986
v 0.64769375 2.0539448613738105 0.2500000000000001
vt 0.0655375 1
vt 0.0655375 0.5
vt 0 0.5
vt 0 1
vt 0.0655375 1
vt 0.0655375 0.5
vt 0 0.5
vt 0 1
vt 0.0655375 1
vt 0.0655375 0.5
vt 0 0.5
vt 0 1
vt 0.0655375 1
vt 0.0655375 0.5
vt 0 0.5
vt 0 1
vt 0.0655375 1
vt 0.0655375 0.5
vt 0 0.5
vt 0 1
vt 0.0655375 1
vt 0.0655375 0.5
vt 0 0.5
vt 0 1
vt 0.0655375 1
vt 0.0655375 0.5
vt 0 0.5
vt 0 1
vt 0.0655375 1
vt 0.0655375 0.5
vt 0 0.5
vt 0 1
vt 0.0655375 1
vt 0.0655375 0.5
vt 0 0.5
vt 0 1
vt 0.13349999999999995 1
vt 0.13349999999999995 0.5
vt 0 0.5
vt 0 1
vt 0.47181249999999997 1
vt 0 1
vt 0 0.5
vt 0.47181249999999997 0.5
vt 0.48744374999999995 1
vt 0 1
vt 0 0.5
vt 0.48744374999999995 0.5
vt 0.12884375000000003 0.5
vt 0.12884375000000003 1
vt 0 1
vt 0 0.5
vt 0.03276875 1
vt 0 0.62821875
vt 0.0655375 0.62821875
vt 0 1
vt 0.081025 0.635675
vt 0.14656249999999998 0.635675
vt 0 1
vt 0.19286874999999998 0.65791875
vt 0.25840625 0.65791875
vt 0 1
vt 0.30085 0.694575
vt 0.36638750000000003 0.694575
vt 0.0655375 0.635675
vt 0.14655625 1
vt 0 0.635675
vt 0.0655375 0.65791875
vt 0.2584 1
vt 0 0.65791875
vt 0.06553750000000001 0.694575
vt 0.36638750000000003 1
vt 0 0.694575
vt 0.06553750000000001 0.7450125
vt 0.46866250000000004 1
vt 0 0.7450125
vt 0 0.875
vt 0.5186875 1
vt 0.046875 1
vt 0 1
vt 0.403125 0.7450125
vt 0.46866250000000004 0.7450125
vt 5.551115123125783e-17 1
vt 0 0.46646057121304296
vt 0.11419470532868692 0.5261275514676768
vt 0 1
vt 0.046875 0.875
vt 0.5186875 0.875
vt 0 1
vt 0.4686626188684646 0.7450155449216517
vt 0.06553935989397898 1
vt 0 1
vt 0.3663992005693888 0.6945870662857822
vt 0.06554485880391381 1
vt 0 1
vt 0.2583923435097365 0.6579125961766369
vt 0.06554526703927605 1
vt 0 1
vt 0.14656549053860995 0.6356754966503226
vt 0.0655439547174261 1
vt 0 0.9942454452800884
vt 0.06528683962408147 0.6267750905850302
vt 0.06528683962408144 1
vt 0 0.9755373913861677
vt 0.06080781841018859 0.6072993675102974
vt 0.06080781841018851 1
vt 0 0.9604943171990987
vt 0.052301845643194955 0.5712921798718124
vt 0.05230184564319473 1
vt 0 0.9496524694955064
vt 0.041967304985239484 0.523003737689893
vt 0.04196730498523937 1
vt 1.7208456881689926e-15 0.9424297687639482
vt 0.03132213547541318 0.466463007227943
vt 0.03132213547541318 1
vt 0 1
vt 0.12499999999999994 0.48131250000000003
vt 0.12499999999999994 0.96875
vn -0.25881904510252035 -0.9659258262890685 -2.1447861848524064e-16
vn -0.38268343236509067 -0.9238795325112865 -2.0514246579479123e-16
vn -0.4999999999999999 -0.8660254037844387 -1.922962686383564e-16
vn -0.6087614290087204 -0.7933533402912353 -1.7615982901092126e-16
vn -0.7071067811865476 -0.7071067811865476 -1.5700924586837752e-16
vn -0.7933533402912349 -0.608761429008721 -1.3517219099783895e-16
vn -0.8660254037844386 -0.5000000000000002 -1.110223024625157e-16
vn -0.923879532511287 -0.3826834323650897 -8.497279155086129e-17
vn -0.9659258262890681 -0.2588190451025212 -5.746937261686318e-17
vn -1 -1.1102230246251565e-16 -2.465190328815662e-32
vn 0 1 2.220446049250313e-16
vn 0.999999999997958 0.000002020898645177523 4.487296412619741e-22
vn -0.1961161351381844 -0.9805806756909202 -2.1773264873091063e-16
vn 4.982762943061628e-17 -1.7221697549441504e-16 1
vn 5.658948402602125e-17 -1.786219665960609e-16 1
vn 6.511601208744687e-17 -1.8444985781778891e-16 1
vn 7.670730029880328e-17 -1.9027140080824122e-16 1
vn 4.407602230280001e-17 -1.6460361432610743e-16 1
vn 3.879687157492353e-17 -1.54846452182539e-16 1
vn 3.3466244543822436e-17 -1.412499434656408e-16 1
vn 2.7306502698932957e-17 -1.2013534947559667e-16 1
vn 0 0 1
vn 9.401290083359424e-17 -1.9685392406856246e-16 1
vn 1.0094034482842773e-17 -1.7157443251081764e-16 1
vn 0 2.220446049250313e-16 -1
vn 0 2.220446049250313e-16 -1
vn 0 2.220446049250313e-16 -1
vn 0 2.220446049250313e-16 -1
vn 0 2.220446049250313e-16 -1
vn 0 2.220446049250313e-16 -1
vn 0 2.220446049250313e-16 -1
vn 0 2.220446049250313e-16 -1
vn 0 2.220446049250313e-16 -1
vn 0 2.220446049250313e-16 -1
vn 0 2.220446049250313e-16 -1
usemtl none
f 30/119/36 29/120/36 27/121/36 28/122/36
f 32/123/37 31/124/37 29/125/37 30/126/37
f 34/127/38 33/128/38 31/129/38 32/130/38
f 36/131/39 35/132/39 33/133/39 34/134/39
f 38/135/40 37/136/40 35/137/40 36/138/40
f 40/139/41 39/140/41 37/141/41 38/142/41
f 42/143/42 41/144/42 39/145/42 40/146/42
f 44/147/43 43/148/43 41/149/43 42/150/43
f 46/151/44 45/152/44 43/153/44 44/154/44
f 28/155/45 27/156/45 47/157/45 48/158/45
f 51/159/46 48/160/46 47/161/46 52/162/46
f 50/163/47 51/164/47 52/165/47 49/166/47
f 45/167/48 46/168/48 50/169/48 49/170/48
f 52/171/49 35/172/49 37/173/49
f 52/174/50 37/175/50 39/176/50
f 52/177/51 39/178/51 41/179/51
f 52/180/52 41/181/52 43/182/52
f 35/183/53 52/184/53 33/185/53
f 33/186/54 52/187/54 31/188/54
f 31/189/55 52/190/55 29/191/55
f 29/192/56 52/193/56 27/194/56
f 27/195/57 52/196/57 47/197/57
f 52/198/58 43/199/58 45/200/58
f 52/201/59 45/202/59 49/203/59
f 28/204/60 48/205/60 51/206/60
f 28/207/61 51/208/61 30/209/61
f 30/210/62 51/211/62 32/212/62
f 32/213/63 51/214/63 34/215/63
f 34/216/64 51/217/64 36/218/64
f 36/219/65 51/220/65 38/221/65
f 38/222/66 51/223/66 40/224/66
f 40/225/67 51/226/67 42/227/67
f 42/228/68 51/229/68 44/230/68
f 44/231/69 51/232/69 46/233/69
f 46/234/70 51/235/70 50/236/70
o upper2
v -0.09775446081243247 1.928944861373811 -0.24999999999999897
v -0.09775446081243241 1.9289448613738098 0.25000000000000105
v -0.16106458429008827 1.9119809649152584 -0.24999999999999897
v -0.16106458429008821 1.9119809649152573 0.250000000000001
v -0.22161884807500148 1.8868985675960293 -0.24999999999999903
v -0.22161884807500143 1.8868985675960284 0.25000000000000094
v -0.2783811519249985 1.8541268361884102 -0.24999999999999908
v -0.2783811519249984 1.8541268361884091 0.25000000000000094
v -0.33038027708372214 1.8142265041028258 -0.24999999999999917
v -0.33038027708372203 1.814226504102825 0.25000000000000083
v -0.3767265041028254 1.7678802770837225 -0.24999999999999925
v -0.37672650410282527 1.7678802770837216 0.2500000000000008
v -0.4166268361884098 1.715881151924999 -0.24999999999999936
v -0.4166268361884097 1.715881151924998 0.25000000000000067
v -0.4493985675960289 1.659118848075002 -0.24999999999999947
v -0.4493985675960288 1.659118848075001 0.2500000000000005
v -0.4744809649152579 1.5985645842900889 -0.2499999999999996
v -0.47448096491525776 1.598564584290088 0.2500000000000004
v -0.49144486137381044 1.535254460812433 -0.24999999999999975
v -0.4914448613738103 1.535254460812432 0.2500000000000003
v -0.09775446081243244 2.053944861373811 -0.24999999999999867
v -0.09775446081243239 2.05394486137381 0.2500000000000013
v -0.6476948613738104 1.504004460812433 -0.24999999999999967
v -0.6476948613738104 1.504004460812432 0.25000000000000044
v -0.64769375 2.05394486137381 0.25000000000000133
v -0.64769375 2.053944861373811 -0.24999999999999858
vt 0.0655375 1
vt 0.0655375 0.5
vt 0 0.5
vt 0 1
vt 0.0655375 1
vt 0.0655375 0.5
vt 0 0.5
vt 0 1
vt 0.0655375 1
vt 0.0655375 0.5
vt 0 0.5
vt 0 1
vt 0.0655375 1
vt 0.0655375 0.5
vt 0 0.5
vt 0 1
vt 0.0655375 1
vt 0.0655375 0.5
vt 0 0.5
vt 0 1
vt 0.0655375 1
vt 0.0655375 0.5
vt 0 0.5
vt 0 1
vt 0.0655375 1
vt 0.0655375 0.5
vt 0 0.5
vt 0 1
vt 0.0655375 1
vt 0.0655375 0.5
vt 0 0.5
vt 0 1
vt 0.0655375 1
vt 0.0655375 0.5
vt 0 0.5
vt 0 1
vt 0.13349999999999995 1
vt 0.13349999999999995 0.5
vt 0 0.5
vt 0 1
vt 0.47181249999999997 1
vt 0 1
vt 0 0.5
vt 0.47181249999999997 0.5
vt 0.48744374999999995 1
vt 0 1
vt 0 0.5
vt 0.48744374999999995 0.5
vt 0.12884375000000003 0.5
vt 0.12884375000000003 1
vt 0 1
vt 0 0.5
vt 0.03276875 1
vt 0 0.62821875
vt 0.0655375 0.62821875
vt 0 1
vt 0.081025 0.635675
vt 0.14656249999999998 0.635675
vt 0 1
vt 0.19286874999999998 0.65791875
vt 0.25840625 0.65791875
vt 0 1
vt 0.30085 0.694575
vt 0.36638750000000003 0.694575
vt 0.0655375 0.635675
vt 0.14655625 1
vt 0 0.635675
vt 0.0655375 0.65791875
vt 0.2584 1
vt 0 0.65791875
vt 0.06553750000000001 0.694575
vt 0.36638750000000003 1
vt 0 0.694575
vt 0.06553750000000001 0.7450125
vt 0.46866250000000004 1
vt 0 0.7450125
vt 0 0.875
vt 0.5186875 1
vt 0.046875 1
vt 0 1
vt 0.403125 0.7450125
vt 0.46866250000000004 0.7450125
vt 5.551115123125783e-17 1
vt 0 0.46646057121304296
vt 0.11419470532868692 0.5261275514676768
vt 0 1
vt 0.046875 0.875
vt 0.5186875 0.875
vt 0 1
vt 0.4686626188684646 0.7450155449216517
vt 0.06553935989397898 1
vt 0 1
vt 0.3663992005693888 0.6945870662857822
vt 0.06554485880391381 1
vt 0 1
vt 0.2583923435097365 0.6579125961766369
vt 0.06554526703927605 1
vt 0 1
vt 0.14656549053860995 0.6356754966503226
vt 0.0655439547174261 1
vt 0 0.9942454452800884
vt 0.06528683962408147 0.6267750905850302
vt 0.06528683962408144 1
vt 0 0.9755373913861677
vt 0.06080781841018859 0.6072993675102974
vt 0.06080781841018851 1
vt 0 0.9604943171990987
vt 0.052301845643194955 0.5712921798718124
vt 0.05230184564319473 1
vt 0 0.9496524694955064
vt 0.041967304985239484 0.523003737689893
vt 0.04196730498523937 1
vt 1.7208456881689926e-15 0.9424297687639482
vt 0.03132213547541318 0.466463007227943
vt 0.03132213547541318 1
vt 0 1
vt 0.12499999999999994 0.48131250000000003
vt 0.12499999999999994 0.96875
vn 0.2588190451025203 -0.9659258262890685 -1.9620037578814833e-15
vn 0.3826834323650906 -0.9238795325112865 -1.893147396206384e-15
vn 0.49999999999999983 -0.8660254037844387 -1.791898757702575e-15
vn 0.6087614290087204 -0.7933533402912353 -1.6599902346462812e-15
vn 0.7071067811865476 -0.7071067811865476 -1.4996788184389474e-15
vn 0.7933533402912349 -0.608761429008721 -1.3137074818586029e-15
vn 0.8660254037844386 -0.5000000000000002 -1.105258246035132e-15
vn 0.923879532511287 -0.3826834323650898 -8.778977351865217e-16
vn 0.9659258262890681 -0.25881904510252124 -6.355161506896356e-16
vn 1 -1.5265566588595875e-16 -1.2246467991473562e-16
vn 4.163336342344337e-17 1 1.9984014443252818e-15
vn -0.999999999997958 0.0000020208986452191563 1.224687184812567e-16
vn 0.19611613513818438 -0.9805806756909202 -1.9836111382940087e-15
vn -1.7229230934535156e-16 2.1592513762184137e-15 -1
vn -1.7905416394075654e-16 2.1528463851167677e-15 -1
vn -1.8758069200218218e-16 2.14701849389504e-15 -1
vn -1.9917198021353856e-16 2.1411969509045875e-15 -1
vn -1.665407022175353e-16 2.1668647373867214e-15 -1
vn -1.6126155148965883e-16 2.1766218995302896e-15 -1
vn -1.5593092445855773e-16 2.190218408247188e-15 -1
vn -1.4977118261366825e-16 2.2113330022372322e-15 -1
vn -1.224646799147353e-16 2.3314683517128287e-15 -1
vn -2.1647758074832954e-16 2.1346144276442663e-15 -1
vn -8.027255994133937e-16 1.9580146654805886e-15 -1
vn 1.224646799147353e-16 -2.1094237467877974e-15 1
vn 1.224646799147353e-16 -2.1094237467877974e-15 1
vn 1.224646799147353e-16 -2.1094237467877974e-15 1
vn 1.224646799147353e-16 -2.1094237467877974e-15 1
vn 1.224646799147353e-16 -2.1094237467877974e-15 1
vn 1.224646799147353e-16 -2.1094237467877974e-15 1
vn 1.224646799147353e-16 -2.1094237467877974e-15 1
vn 1.224646799147353e-16 -2.1094237467877974e-15 1
vn 1.224646799147353e-16 -2.1094237467877974e-15 1
vn 1.224646799147353e-16 -2.1094237467877974e-15 1
vn 1.4627984499463668e-15 -1.7056652393449528e-15 1
usemtl none
f 56/237/71 55/238/71 53/239/71 54/240/71
f 58/241/72 57/242/72 55/243/72 56/244/72
f 60/245/73 59/246/73 57/247/73 58/248/73
f 62/249/74 61/250/74 59/251/74 60/252/74
f 64/253/75 63/254/75 61/255/75 62/256/75
f 66/257/76 65/258/76 63/259/76 64/260/76
f 68/261/77 67/262/77 65/263/77 66/264/77
f 70/265/78 69/266/78 67/267/78 68/268/78
f 72/269/79 71/270/79 69/271/79 70/272/79
f 54/273/80 53/274/80 73/275/80 74/276/80
f 77/277/81 74/278/81 73/279/81 78/280/81
f 76/281/82 77/282/82 78/283/82 75/284/82
f 71/285/83 72/286/83 76/287/83 75/288/83
f 78/289/84 61/290/84 63/291/84
f 78/292/85 63/293/85 65/294/85
f 78/295/86 65/296/86 67/297/86
f 78/298/87 67/299/87 69/300/87
f 61/301/88 78/302/88 59/303/88
f 59/304/89 78/305/89 57/306/89
f 57/307/90 78/308/90 55/309/90
f 55/310/91 78/311/91 53/312/91
f 53/313/92 78/314/92 73/315/92
f 78/316/93 69/317/93 71/318/93
f 78/319/94 71/320/94 75/321/94
f 54/322/95 74/323/95 77/324/95
f 54/325/96 77/326/96 56/327/96
f 56/328/97 77/329/97 58/330/97
f 58/331/98 77/332/98 60/333/98
f 60/334/99 77/335/99 62/336/99
f 62/337/100 77/338/100 64/339/100
f 64/340/101 77/341/101 66/342/101
f 66/343/102 77/344/102 68/345/102
f 68/346/103 77/347/103 70/348/103
f 70/349/104 77/350/104 72/351/104
f 72/352/105 77/353/105 76/354/105
o lower2
v -0.49144486137381044 1.3397455391875681 -0.25000000000000017
v -0.4914448613738103 1.3397455391875672 0.24999999999999986
v -0.47448096491525793 1.2764354157099125 -0.2500000000000003
v -0.4744809649152578 1.2764354157099114 0.24999999999999972
v -0.4493985675960289 1.2158811519249992 -0.2500000000000004
v -0.4493985675960288 1.2158811519249981 0.24999999999999958
v -0.4166268361884099 1.159118848075002 -0.25000000000000056
v -0.4166268361884098 1.1591188480750012 0.24999999999999947
v -0.37672650410282543 1.1071197229162784 -0.25000000000000067
v -0.3767265041028253 1.1071197229162775 0.24999999999999936
v -0.3303802770837222 1.060773495897175 -0.2500000000000008
v -0.3303802770837221 1.0607734958971742 0.24999999999999925
v -0.27838115192499857 1.0208731638115907 -0.25000000000000083
v -0.27838115192499846 1.0208731638115898 0.24999999999999917
v -0.22161884807500154 0.9881014324039716 -0.25000000000000094
v -0.22161884807500148 0.9881014324039707 0.24999999999999906
v -0.1610645842900884 0.9630190350847427 -0.250000000000001
v -0.16106458429008835 0.9630190350847416 0.249999999999999
v -0.09775446081243269 0.9460551386261902 -0.25000000000000105
v -0.09775446081243264 0.9460551386261891 0.24999999999999897
v -0.6476948613738104 1.3709955391875681 -0.25000000000000006
v -0.6476948613738104 1.3709955391875672 0.24999999999999992
v -0.09775446081243276 4.440892098500626e-16 -0.25000000000000305
v -0.0977544608124327 -4.440892098500626e-16 0.24999999999999697
v -0.6476948613738105 -4.440892098500626e-16 0.24999999999999703
v -0.6476948613738105 4.440892098500626e-16 -0.25000000000000294
vt 0.0655375 1
vt 0.0655375 0.5
vt 0 0.5
vt 0 1
vt 0.0655375 1
vt 0.0655375 0.5
vt 0 0.5
vt 0 1
vt 0.0655375 1
vt 0.0655375 0.5
vt 0 0.5
vt 0 1
vt 0.0655375 1
vt 0.0655375 0.5
vt 0 0.5
vt 0 1
vt 0.0655375 1
vt 0.0655375 0.5
vt 0 0.5
vt 0 1
vt 0.0655375 1
vt 0.0655375 0.5
vt 0 0.5
vt 0 1
vt 0.0655375 1
vt 0.0655375 0.5
vt 0 0.5
vt 0 1
vt 0.0655375 1
vt 0.0655375 0.5
vt 0 0.5
vt 0 1
vt 0.0655375 1
vt 0.0655375 0.5
vt 0 0.5
vt 0 1
vt 0 0.5
vt 0.12884375000000003 0.5
vt 0.12884375000000003 1
vt 0 1
vt 0 1
vt 0 0.5
vt 0.94605625 0.5
vt 0.94605625 1
vt 0 1
vt 0 0.5
vt 0.5186875 0.5
vt 0.5186875 1
vt 0 1
vt 0 0.5
vt 1.30849375 0.5
vt 1.30849375 1
vt 0 -0.33974375
vt 0.12499999999999994 -0.30849375
vt 0.12499999999999994 1
vt 0 0.977229830889828
vt 1.3455624532752326 0.9772298308898268
vt 0.061456709104919294 1
vt 0 -0.1249649896544911
vt 0.6195964935860845 1
vt 0 -0.05942013085057729
vt 0 0.030569201757929543
vt 0.7526451726646276 1
vt 5.551115123125783e-17 0.09611446879720553
vt 5.551115123125783e-17 0.2020407206052418
vt 0.864143968260453 1
vt 0 0.26758467532266794
vt 0 0.3866555779987886
vt 0.9523579294063366 1
vt 0 0.45219553778001664
vt 0 0.581202070910408
vt 1.0157182922058257 1
vt 0 0.6467460256278341
vt 0 0.782289307629197
vt 1.0531258585556977 1
vt 5.551115123125783e-17 0.8478345746684731
vt 0 0.9344602840120432
vt 1.0640622118208127 0.9344602840120417
vt 0.0008210626305910074 0.999999999999997
vt 0.015560697606976592 0.9363346845975236
vt 1.078915729248727 0.9999999999999997
vt 0 0.9999999999999994
vt 0 0.05394374999999996
vt 0.5186875 1
vt 0 1
vt 0.12499999999999994 -0.33974375
vt 0.12499999999999994 0.96875
vt 0 1
vt 0.022770169110172156 -0.3455624532752326
vt 0.02277016911017199 1
vt 0 0.9385432908950808
vt 0.0316212130964687 -0.2843076122224377
vt 0.03162121309646865 1
vt 1.9984014443252818e-15 0.9425872192109384
vt 0.04019574523852881 -0.22730225638007573
vt 0.04019574523852876 1
vt 0 0.9482266082242115
vt 0.048153926349873144 -0.1762158855640088
vt 0.048153926349873144 1
vt 0 0.9555341774270283
vt 0.05510145772490327 -0.132774031174411
vt 0.055101457724903324 1
vt 1.1102230246251565e-16 0.9645131618101062
vt 0.06059526989624153 -0.09866981142254483
vt 0.06059526989624153 1
vt 1.7208456881689926e-15 0.9750155395054875
vt 0.06418803030272 -0.07539389041004396
vt 0.06418803030272016 1
vt 0 0.9867305313931913
vt 0.06553971598795649 -0.06406221182081273
vt 0.06553971598795633 1
vt 2.4980018054066022e-15 0.999178937369409
vt 0.25616181533369486 -0.04806501477019953
vt 0.06553935989397898 1
vt 0 1
vt 0.5186875 0.05394374999999996
vt 0 1
vt 0 0.05394374999999996
vn 0.9659258262890684 0.2588190451025205 3.9893255641390024e-16
vn 0.923879532511287 0.3826834323650898 6.516125127289815e-16
vn 0.8660254037844393 0.49999999999999933 8.931431982901489e-16
vn 0.7933533402912352 0.6087614290087207 1.1193919561024975e-15
vn 0.7071067811865476 0.7071067811865476 1.3264876071918483e-15
vn 0.6087614290087212 0.7933533402912349 1.5108866875503007e-15
vn 0.49999999999999933 0.866025403784439 1.6694340777878408e-15
vn 0.38268343236509045 0.9238795325112866 1.7994169880998582e-15
vn 0.25881904510252157 0.9659258262890682 1.898611374852847e-15
vn 0.19611613513818402 0.9805806756909202 1.935576538862383e-15
vn 1 -6.938893903907202e-17 -1.2246467991473547e-16
vn -6.93889390390723e-17 -1 -1.9984014443252818e-15
vn -1 6.938893903907202e-17 1.2246467991473547e-16
vn 1.2246467991473532e-16 -2.1094237467877974e-15 1
vn 1.2246467991473532e-16 -2.1094237467877974e-15 1
vn 1.2246467991473532e-16 -2.1094237467877974e-15 1
vn 1.2246467991473532e-16 -2.1094237467877974e-15 1
vn 1.2246467991473532e-16 -2.1094237467877974e-15 1
vn 1.2246467991473532e-16 -2.1094237467877974e-15 1
vn 1.2246467991473532e-16 -2.1094237467877974e-15 1
vn 1.2246467991473532e-16 -2.1094237467877974e-15 1
vn 1.2246467991473532e-16 -2.1094237467877974e-15 1
vn 1.2246467991473532e-16 -2.1094237467877974e-15 1
vn 1.2246467991473532e-16 -2.1094237467877974e-15 1
vn -1.2246467991473532e-16 2.1094237467877974e-15 -1
vn -1.2246467991473532e-16 2.1094237467877974e-15 -1
vn -1.2246467991473532e-16 2.1094237467877974e-15 -1
vn -1.2246467991473532e-16 2.1094237467877974e-15 -1
vn -1.2246467991473532e-16 2.1094237467877974e-15 -1
vn -1.2246467991473532e-16 2.1094237467877974e-15 -1
vn -1.2246467991473532e-16 2.1094237467877974e-15 -1
vn -1.2246467991473532e-16 2.1094237467877974e-15 -1
vn -1.2246467991473532e-16 2.1094237467877974e-15 -1
vn -1.2246467991473532e-16 2.1094237467877974e-15 -1
vn -1.2246467991473532e-16 2.1094237467877974e-15 -1
usemtl none
f 82/355/106 81/356/106 79/357/106 80/358/106
f 84/359/107 83/360/107 81/361/107 82/362/107
f 86/363/108 85/364/108 83/365/108 84/366/108
f 88/367/109 87/368/109 85/369/109 86/370/109
f 90/371/110 89/372/110 87/373/110 88/374/110
f 92/375/111 91/376/111 89/377/111 90/378/111
f 94/379/112 93/380/112 91/381/112 92/382/112
f 96/383/113 95/384/113 93/385/113 94/386/113
f 98/387/114 97/388/114 95/389/114 96/390/114
f 79/391/115 99/392/115 100/393/115 80/394/115
f 102/395/116 101/396/116 97/397/116 98/398/116
f 103/399/117 104/400/117 101/401/117 102/402/117
f 100/403/118 99/404/118 104/405/118 103/406/118
f 80/407/119 100/408/119 103/409/119
f 80/410/120 103/411/120 82/412/120
f 82/413/121 103/414/121 84/415/121
f 84/416/122 103/417/122 86/418/122
f 86/419/123 103/420/123 88/421/123
f 88/422/124 103/423/124 90/424/124
f 90/425/125 103/426/125 92/427/125
f 92/428/126 103/429/126 94/430/126
f 94/431/127 103/432/127 96/433/127
f 96/434/128 103/435/128 98/436/128
f 98/437/129 103/438/129 102/439/129
f 104/440/130 99/441/130 79/442/130
f 104/443/131 79/444/131 81/445/131
f 104/446/132 81/447/132 83/448/132
f 104/449/133 83/450/133 85/451/133
f 104/452/134 85/453/134 87/454/134
f 104/455/135 87/456/135 89/457/135
f 104/458/136 89/459/136 91/460/136
f 104/461/137 91/462/137 93/463/137
f 104/464/138 93/465/138 95/466/138
f 104/467/139 95/468/139 97/469/139
f 104/470/140 97/471/140 101/472/140