# Blender 4.4.3
# www.blender.org
mtllib asteroids.mtl
o wide
v 0.030248 -0.482729 0.075487
v -0.060496 0.486889 0.028309
v 0.202056 -0.261618 -0.608011
v 0.097906 0.461625 0.217530
v -0.005974 0.386706 0.528703
v 0.026303 0.277455 0.648811
v 0.098915 0.474663 -0.028645
v 0.220651 0.421701 0.092174
v 0.289115 0.372123 0.009515
v 0.421881 0.287745 0.094051
v 0.022938 0.093436 0.730551
v 0.009835 -0.252865 0.675846
v 0.252291 -0.288254 0.434055
v 0.429997 -0.185104 0.158786
v 0.112219 -0.476803 0.030883
v 0.368102 -0.305529 0.219148
v -0.061011 -0.289483 0.643858
v 0.358450 0.285242 -0.483721
v 0.076648 0.456115 -0.148216
v 0.111009 0.471474 -0.243911
v 0.153143 0.367206 -0.507618
v 0.386405 -0.293998 -0.292294
v 0.288121 0.082666 -0.637751
v 0.040987 -0.475628 -0.120353
v 0.117562 -0.444848 -0.269300
v 0.206357 -0.325057 -0.525152
v -0.074803 0.495601 -0.185036
v -0.221889 0.402555 -0.302430
v -0.301392 0.284030 -0.535286
v -0.130004 -0.253831 -0.628401
v -0.304335 0.134525 -0.625619
v -0.231270 -0.248554 -0.615547
v -0.049557 -0.454757 -0.314584
v -0.193733 -0.372251 -0.409022
v -0.227095 -0.333627 -0.515362
v -0.150766 0.478837 0.256074
v -0.352478 0.425855 0.223510
v -0.391389 -0.307209 -0.292982
v -0.080018 -0.505834 0.023988
v -0.393039 -0.332146 0.122035
v -0.497999 0.280624 0.284972
v -0.167315 -0.425496 0.104328
v -0.113738 -0.399605 0.381316
v -0.320248 -0.352389 0.161229
v -0.221734 -0.392197 0.296187
v -0.152168 -0.311257 0.532153
v -0.279202 -0.306571 0.407223
v -0.347790 -0.302363 0.255987
v -0.380209 0.333617 0.424335
v -0.385416 0.213824 0.412450
v -0.267649 0.138760 0.565839
v -0.131522 0.231485 0.666447
v -0.117062 0.127472 0.704310
v -0.389947 0.052458 0.432840
v -0.470261 0.053840 0.261117
v -0.199441 0.067523 0.612520
v -0.008591 -0.013233 0.723535
v -0.434812 -0.125397 0.276353
v -0.263348 -0.144435 0.581836
v -0.330028 -0.158956 0.456919
v -0.106077 -0.143599 0.683163
v -0.039839 0.475284 0.346973
v -0.355889 0.356628 0.327161
v -0.264416 0.450621 0.386830
v -0.182964 0.374973 0.495033
v -0.120077 0.284986 0.630934
v -0.170450 -0.449603 -0.108993
v -0.318527 -0.383130 -0.064476
v -0.351243 -0.335321 0.022541
v -0.322755 -0.371567 -0.289437
v -0.383485 -0.313918 -0.108926
v -0.385363 0.305009 -0.339066
v -0.489768 0.206739 0.209774
v -0.357587 0.201714 -0.464591
v -0.459798 0.171594 -0.223366
v -0.497098 0.155503 -0.103213
v -0.514460 0.179230 0.008087
v -0.482478 0.161991 0.331544
v -0.365102 0.105022 -0.470940
v -0.474129 0.081489 0.042596
v -0.438189 0.031783 -0.369099
v -0.491098 0.039169 -0.167848
v -0.276613 -0.099020 -0.621743
v -0.474020 -0.105294 -0.178602
v -0.441807 -0.211108 -0.036981
v -0.498860 -0.078741 0.044458
v -0.330537 -0.143550 -0.520075
v -0.313072 -0.271182 -0.494261
v -0.394666 -0.154905 -0.429056
v -0.404787 -0.138378 -0.283381
v -0.425911 -0.211059 0.075606
v -0.143853 0.472326 -0.039300
v -0.282225 0.452153 -0.199606
v -0.270782 0.448137 0.066682
v -0.324085 0.466516 0.015044
v -0.303507 0.432165 -0.150398
v -0.445823 0.344844 0.192594
v -0.447588 0.361422 -0.096019
v -0.446572 0.332899 0.017977
v 0.019220 -0.424149 -0.406961
v 0.228818 -0.412383 -0.366641
v -0.059232 -0.360556 -0.529070
v 0.020917 -0.312009 -0.629467
v 0.216132 0.188008 -0.650416
v 0.066504 0.152987 -0.698043
v -0.122578 0.139814 -0.679322
v 0.096232 0.034859 -0.704588
v 0.117571 -0.052909 -0.678369
v -0.038858 0.001772 -0.675130
v -0.137518 -0.021507 -0.680475
v 0.254302 -0.041923 -0.637353
v -0.090647 -0.166504 -0.677925
v 0.171519 -0.177131 -0.667791
v 0.069076 -0.194565 -0.643297
v -0.087809 0.439509 -0.252102
v -0.041719 0.404020 -0.450387
v -0.243585 0.356747 -0.494924
v 0.054174 0.265733 -0.656310
v -0.186937 0.275275 -0.613306
v 0.215763 -0.449799 0.039478
v 0.299843 -0.402057 -0.170301
v 0.271050 -0.391286 0.131073
v 0.294012 -0.342695 -0.305396
v 0.349761 -0.356448 0.116878
v 0.368192 -0.336630 -0.067166
v 0.413548 -0.221828 0.101779
v 0.418742 0.340421 -0.126283
v 0.450977 0.078536 0.075156
v 0.435761 0.177624 -0.044062
v 0.473619 0.153870 -0.121251
v 0.383772 0.280078 -0.246065
v 0.387831 0.219327 -0.378224
v 0.329740 0.182850 -0.522337
v 0.409558 0.109685 -0.348500
v 0.359133 -0.036520 -0.465420
v 0.485835 -0.012573 -0.036493
v 0.459319 -0.052213 0.019108
v 0.463618 -0.042601 -0.149033
v 0.426560 -0.033937 -0.294361
v 0.469672 -0.135089 -0.123770
v 0.356607 -0.083157 -0.549788
v 0.418225 -0.139114 -0.354516
v 0.413401 -0.216303 -0.174797
v 0.298102 -0.166001 -0.608150
v 0.177785 0.444726 -0.108055
v 0.103396 0.427375 -0.347694
v 0.291539 0.397849 -0.110370
v 0.240145 0.430015 -0.314007
v 0.347176 0.327543 -0.042886
v 0.270803 0.346617 -0.267172
v 0.253714 0.340877 -0.449738
v 0.334478 0.353170 -0.306385
v 0.004739 -0.511556 0.229256
v 0.164296 -0.427350 0.277268
v -0.001007 -0.404248 0.465780
v 0.130997 -0.436500 0.397052
v 0.257402 -0.364651 0.321784
v 0.121459 -0.344857 0.437712
v 0.022518 -0.351150 0.528533
v 0.305270 0.275869 0.382485
v 0.209592 0.130369 0.598995
v 0.445166 0.165003 0.261617
v 0.322135 0.102011 0.487513
v 0.387419 0.092077 0.344104
v 0.105592 -0.020317 0.701811
v 0.387096 0.005993 0.327976
v 0.035951 -0.119517 0.708992
v 0.243540 0.052706 0.575550
v 0.305789 -0.073128 0.474119
v 0.442753 -0.009419 0.219814
v 0.154937 -0.157606 0.619874
v 0.385061 -0.157155 0.268041
v 0.229287 -0.251796 0.563253
v 0.286512 -0.154200 0.437220
v 0.183110 0.418746 0.361489
v 0.263077 0.366420 0.238402
v 0.335234 0.306981 0.207598
v 0.181626 0.262481 0.563905
vn 0.8751 -0.2387 0.4210
vn 0.6921 -0.5553 -0.4611
vn 0.3395 0.6563 -0.6738
vn -0.9600 -0.2739 0.0577
vn -0.9704 -0.2241 0.0905
vn -0.9712 -0.2371 0.0248
vn -0.3236 -0.8646 0.3844
vn -0.1518 -0.7257 0.6710
vn 0.2634 -0.9552 -0.1354
vn -0.5533 -0.8071 0.2060
vn -0.5422 -0.8204 0.1816
vn -0.3773 -0.9125 0.1583
vn 0.3171 -0.8215 -0.4738
vn -0.3412 -0.8464 0.4088
vn -0.2023 -0.9170 0.3438
vn -0.4066 -0.8297 0.3824
vn -0.3918 -0.8155 0.4261
vn -0.6139 -0.7461 0.2577
vn -0.6119 -0.7589 0.2228
vn -0.4130 -0.8494 0.3284
vn 0.0111 0.5279 0.8492
vn -0.1727 0.5455 0.8201
vn -0.0030 0.4992 0.8665
vn -0.0397 0.2591 0.9650
vn -0.1655 0.2676 0.9492
vn -0.0052 0.3470 0.9378
vn -0.1049 0.0340 0.9939
vn -0.1396 -0.0896 0.9862
vn -0.1180 0.0525 0.9916
vn -0.0991 -0.1318 0.9863
vn -0.2298 -0.2239 0.9471
vn -0.0807 -0.2838 0.9555
vn -0.6866 -0.0325 0.7263
vn -0.7102 0.0302 0.7033
vn -0.7907 -0.1143 0.6015
vn -0.8311 0.0484 0.5541
vn -0.7906 0.0676 0.6086
vn -0.7401 -0.0144 0.6723
vn -0.5844 0.1436 0.7987
vn -0.6695 0.0671 0.7398
vn -0.5922 0.2170 0.7760
vn -0.5926 0.7078 0.3846
vn -0.6893 0.6465 0.3270
vn -0.5574 0.7670 0.3178
vn -0.6405 0.2649 0.7209
vn -0.6180 0.2572 0.7430
vn -0.5972 0.1383 0.7901
vn -0.6949 0.0756 0.7151
vn -0.6720 -0.0147 0.7404
vn -0.7422 -0.0894 0.6642
vn -0.6019 -0.1901 0.7756
vn -0.6676 -0.2642 0.6961
vn -0.6379 -0.1013 0.7634
vn -0.5823 -0.2555 0.7718
vn -0.5738 -0.2573 0.7776
vn -0.4984 -0.3588 0.7892
vn -0.6382 -0.0360 0.7691
vn -0.6070 -0.1029 0.7880
vn -0.6528 -0.1986 0.7310
vn -0.3908 0.0957 0.9155
vn -0.4605 -0.0077 0.8876
vn -0.4033 0.1358 0.9049
vn -0.6962 -0.5183 0.4967
vn -0.6812 -0.5282 0.5069
vn -0.6145 -0.6296 0.4754
vn -0.3876 -0.5014 0.7736
vn -0.4066 -0.5928 0.6952
vn -0.4281 -0.4580 0.7791
vn -0.8156 -0.5010 0.2895
vn -0.7995 -0.5125 0.3134
vn -0.8401 -0.4611 0.2859
vn -0.7806 -0.5264 0.3370
vn -0.7660 -0.5235 0.3731
vn -0.7977 -0.3880 0.4617
vn -0.7191 -0.2952 0.6290
vn -0.6037 -0.4343 0.6686
vn -0.6098 -0.4255 0.6687
vn -0.6732 0.6249 0.3952
vn -0.1521 0.9880 -0.0253
vn 0.0023 0.9993 0.0362
vn 0.1247 0.9918 0.0280
vn -0.2548 0.9670 0.0047
vn -0.2945 0.7991 0.5240
vn -0.5648 0.7575 -0.3274
vn -0.3528 0.8136 0.4623
vn 0.2599 0.8723 0.4142
vn -0.1330 0.9154 0.3800
vn -0.6896 0.2366 0.6845
vn -0.1655 0.7853 0.5966
vn -0.0452 0.7329 0.6788
vn -0.5155 0.8121 0.2734
vn -0.4891 0.8683 0.0832
vn -0.2575 0.9527 0.1612
vn -0.3684 0.6875 0.6257
vn -0.6243 -0.7752 0.0968
vn 0.2576 -0.9586 -0.1214
vn -0.3282 -0.9292 -0.1697
vn -0.3830 -0.9012 -0.2026
vn -0.3795 -0.9187 0.1094
vn -0.4353 -0.9002 -0.0135
vn -0.5149 -0.8182 0.2559
vn -0.4491 -0.8730 -0.1902
vn -0.0519 -0.9974 -0.0503
vn -0.2472 -0.9331 -0.2613
vn -0.2336 -0.9700 -0.0672
vn -0.7513 -0.6553 0.0776
vn -0.7219 -0.6916 -0.0220
vn -0.6841 -0.7294 0.0028
vn -0.6262 -0.6880 -0.3668
vn -0.6034 -0.7044 -0.3738
vn -0.5836 -0.6308 -0.5113
vn -0.8900 -0.4398 0.1206
vn -0.8942 -0.4289 0.1282
vn -0.8655 -0.4798 0.1441
vn -0.5680 -0.2597 -0.7809
vn -0.5303 -0.3164 -0.7865
vn -0.5632 -0.2593 -0.7846
vn -0.8642 0.2550 -0.4338
vn -0.8655 0.2482 -0.4350
vn -0.8843 0.2750 -0.3774
vn -0.9108 0.2505 -0.3282
vn -0.9192 0.2833 -0.2736
vn -0.9092 0.2573 -0.3274
vn -0.9573 0.2853 -0.0473
vn -0.9438 0.3305 -0.0020
vn -0.9526 0.2999 -0.0504
vn -0.9271 0.3727 0.0401
vn -0.9072 0.4197 0.0292
vn -0.9025 0.4288 0.0411
vn -0.9050 0.3761 -0.1989
vn -0.8901 0.3788 -0.2536
vn -0.8761 0.4113 -0.2514
vn -0.9857 0.1033 0.1332
vn -0.9918 0.0908 0.0904
vn -0.9892 0.1287 0.0698
vn -0.9060 -0.0994 -0.4114
vn -0.9077 -0.0946 -0.4088
vn -0.9283 -0.0902 -0.3607
vn -0.8545 0.0731 -0.5143
vn -0.8276 0.0792 -0.5558
vn -0.8341 0.0699 -0.5471
vn -0.9144 0.1963 -0.3539
vn -0.8928 0.2296 -0.3875
vn -0.8907 0.2488 -0.3804
vn -0.9429 0.1092 -0.3148
vn -0.9427 0.1260 -0.3090
vn -0.9563 0.0726 -0.2833
vn -0.9045 -0.4248 -0.0382
vn -0.9053 -0.4161 -0.0861
vn -0.9152 -0.3922 -0.0923
vn -0.9363 -0.3489 0.0398
vn -0.9393 -0.3404 0.0442
vn -0.9181 -0.3905 0.0684
vn -0.8478 0.0489 -0.5281
vn -0.8282 0.0176 -0.5602
vn -0.8116 0.0366 -0.5831
vn -0.8695 -0.1243 -0.4781
vn -0.8433 -0.1146 -0.5251
vn -0.8431 -0.0946 -0.5294
vn -0.9177 -0.2949 -0.2662
vn -0.9216 -0.2846 -0.2640
vn -0.9146 -0.3318 -0.2312
vn -0.9319 -0.2829 -0.2272
vn -0.9419 -0.2585 -0.2145
vn -0.9278 -0.3190 -0.1933
vn -0.7866 -0.2459 -0.5664
vn -0.7913 -0.2395 -0.5626
vn -0.8190 -0.2450 -0.5189
vn -0.7658 -0.2116 -0.6072
vn -0.7686 -0.2060 -0.6056
vn -0.7697 -0.2563 -0.5847
vn -0.9875 -0.0384 -0.1530
vn -0.9803 -0.0440 -0.1927
vn -0.9779 -0.0990 -0.1840
vn -0.8089 -0.5767 0.1144
vn -0.8468 -0.5197 0.1132
vn -0.8403 -0.5352 0.0869
vn -0.7946 0.5327 -0.2914
vn -0.0684 0.8823 -0.4657
vn -0.2143 0.9753 0.0542
vn 0.0249 0.9890 -0.1460
vn -0.1693 0.9853 0.0221
vn -0.2084 0.9777 -0.0264
vn -0.6348 0.7717 0.0389
vn 0.4342 0.8912 -0.1310
vn 0.1334 0.9692 0.2072
vn -0.0647 0.9724 -0.2241
vn -0.8828 -0.1533 -0.4441
vn -0.6647 0.7451 0.0548
vn -0.6322 0.6939 -0.3447
vn -0.5772 0.7709 -0.2692
vn -0.5116 0.7988 -0.3164
vn -0.4985 0.8344 -0.2352
vn -0.7241 0.6676 0.1735
vn -0.7369 0.6746 -0.0430
vn -0.1353 -0.9899 -0.0433
vn 0.0995 -0.9834 -0.1521
vn -0.2081 -0.8716 -0.4438
vn 0.1198 -0.9656 -0.2308
vn 0.0959 -0.9720 -0.2146
vn -0.2256 -0.9363 -0.2693
vn -0.1764 -0.9149 -0.3631
vn -0.0231 -0.8927 -0.4501
vn 0.1353 -0.8852 -0.4451
vn 0.2189 -0.8412 -0.4944
vn 0.2803 -0.7551 -0.5927
vn -0.1207 -0.7592 -0.6396
vn -0.1711 -0.7297 -0.6621
vn -0.2926 -0.7482 -0.5954
vn -0.1483 0.3754 -0.9149
vn -0.2776 0.3111 -0.9089
vn 0.2750 0.1220 -0.9537
vn -0.0996 0.0163 -0.9949
vn 0.3490 -0.0977 -0.9320
vn -0.4095 0.0444 -0.9112
vn 0.0541 -0.0001 -0.9985
vn -0.0134 0.0207 -0.9997
vn -0.0089 -0.7966 -0.6044
vn -0.3788 -0.3214 -0.8679
vn 0.4168 -0.4198 -0.8062
vn -0.0892 -0.5966 -0.7976
vn -0.0450 -0.0986 -0.9941
vn 0.2470 0.9687 0.0230
vn 0.1947 0.9551 0.2232
vn -0.0984 0.7727 -0.6271
vn -0.1316 0.9158 -0.3795
vn -0.0289 0.9828 -0.1826
vn -0.1839 0.9593 -0.2144
vn 0.0641 0.9404 -0.3339
vn 0.0812 0.9409 -0.3287
vn -0.1791 0.9615 -0.2086
vn -0.0080 0.8284 -0.5600
vn -0.0602 0.8086 -0.5853
vn -0.3864 0.6630 -0.6412
vn -0.0711 0.8124 -0.5787
vn 0.0541 -0.9980 -0.0332
vn 0.2225 -0.9711 -0.0863
vn 0.2603 -0.9567 -0.1300
vn 0.2808 -0.9541 -0.1046
vn 0.2484 -0.9679 -0.0389
vn 0.8093 -0.5241 -0.2652
vn 0.6506 -0.7542 0.0891
vn 0.4145 -0.9072 0.0720
vn 0.8180 -0.4470 -0.3621
vn 0.6972 -0.7168 -0.0074
vn 0.8389 -0.4840 -0.2489
vn 0.9047 -0.4233 0.0485
vn 0.4789 -0.8390 -0.2583
vn 0.4765 -0.8701 -0.1262
vn 0.9047 -0.4236 0.0450
vn 0.7483 0.0399 -0.6622
vn 0.6140 0.6828 -0.3958
vn 0.6626 0.0581 -0.7467
vn 0.9939 0.1100 0.0121
vn 0.9305 -0.1321 -0.3417
vn 0.9895 0.1407 -0.0344
vn 0.9903 0.1387 -0.0111
vn 0.8879 0.2508 -0.3856
vn 0.8922 0.3241 -0.3145
vn 0.9822 0.1803 -0.0527
vn 0.9179 0.0763 -0.3893
vn 0.8974 0.2507 0.3630
vn 0.9637 -0.0615 -0.2597
vn 0.9111 0.0152 -0.4119
vn 0.9988 -0.0239 0.0422
vn 0.9736 0.0300 -0.2263
vn 0.9574 0.1689 -0.2341
vn 0.7851 0.5318 -0.3175
vn 0.9689 -0.0041 -0.2473
vn 0.9569 0.0832 -0.2781
vn 0.9886 -0.1081 0.1047
vn 0.5865 -0.6814 0.4378
vn 0.8582 -0.4796 -0.1830
vn 0.9667 0.0451 -0.2520
vn 0.0197 0.9874 -0.1568
vn 0.3412 0.9393 0.0350
vn -0.5005 0.8648 -0.0409
vn 0.3982 0.9159 0.0501
vn 0.3605 0.9327 0.0064
vn 0.7952 0.5348 -0.2856
vn 0.7003 0.6949 0.1633
vn 0.3813 0.9241 0.0246
vn 0.3814 0.9231 0.0495
vn -0.0016 0.9974 -0.0717
vn 0.6565 0.7486 0.0933
vn 0.6577 0.7476 0.0927
vn 0.6901 0.7046 0.1652
vn 0.9505 0.2356 -0.2027
vn 0.9507 0.2943 -0.0982
vn 0.4611 0.7622 -0.4544
vn 0.3302 0.9393 0.0929
vn 0.4110 0.7793 0.4730
vn 0.3532 0.8745 -0.3324
vn -0.0458 0.9947 0.0918
vn -0.1148 0.9932 -0.0205
vn 0.0940 0.9686 0.2302
vn 0.8795 0.2693 -0.3924
vn 0.8776 0.4452 -0.1777
vn 0.7194 0.5286 -0.4506
vn 0.5249 0.7798 0.3411
vn 0.3840 0.8846 -0.2648
vn 0.3404 0.6563 -0.6734
vn -0.0321 -0.9814 -0.1893
vn 0.4450 -0.8915 0.0849
vn 0.2387 -0.9606 0.1424
vn 0.5425 -0.8172 0.1946
vn 0.3324 -0.8558 0.3963
vn -0.3113 -0.9371 -0.1581
vn 0.4154 -0.9061 0.0798
vn 0.4865 -0.8539 0.1851
vn 0.5292 -0.8445 0.0826
vn 0.6015 -0.2709 0.7516
vn 0.1281 -0.7803 0.6122
vn 0.6281 -0.7357 0.2536
vn 0.3473 -0.7679 0.5383
vn 0.6641 -0.2444 0.7066
vn 0.6998 -0.5753 0.4234
vn 0.3844 -0.8683 0.3135
vn 0.3620 -0.8702 0.3341
vn 0.2854 -0.7857 0.5488
vn 0.1688 -0.8131 0.5571
vn 0.8750 -0.1243 0.4679
vn 0.8844 -0.2092 0.4173
vn 0.4781 0.3186 0.8185
vn 0.3578 0.5610 0.7465
vn 0.8914 0.2828 0.3541
vn 0.7880 0.2635 0.5565
vn 0.8541 -0.0989 0.5106
vn 0.5875 0.2310 0.7755
vn 0.9049 -0.0816 0.4176
vn 0.1832 -0.0575 0.9814
vn 0.5824 -0.0747 0.8095
vn 0.3844 -0.4566 0.8023
vn 0.8864 -0.3492 0.3041
vn 0.8553 -0.2159 0.4709
vn 0.7779 0.2741 0.5655
vn 0.8400 -0.2261 0.4933
vn 0.4504 -0.1712 0.8763
vn 0.2010 0.8948 0.3987
vn 0.0952 0.9940 0.0530
vn 0.2341 0.9609 0.1477
vn 0.6190 -0.3320 0.7118
vn 0.5028 0.8635 -0.0404
vn 0.4905 0.8680 0.0774
vn 0.3794 0.7329 0.5647
vn 0.3779 0.7315 0.5675
vn 0.7307 0.6537 0.1968
vn 0.6762 0.6966 0.2398
vn 0.6326 0.6108 0.4762
vn 0.6519 0.6520 0.3870
vn 0.6346 -0.6381 -0.4360
vn -0.0142 0.3194 0.9475
vn -0.1076 0.3899 0.9146
vn -0.0715 0.3251 0.9430
vn -0.0546 -0.2188 0.9742
vn -0.0685 -0.2477 0.9664
vn -0.1894 -0.2696 0.9442
vn -0.1583 -0.3053 0.9390
vn -0.1564 -0.3444 0.9257
vn -0.2589 -0.4062 0.8763
vn -0.4497 0.4830 0.7513
vn -0.3786 0.6190 0.6881
vn -0.5256 0.4906 0.6950
vn -0.7308 -0.4728 0.4923
vn -0.6981 -0.5553 0.4519
vn -0.8099 -0.4222 0.4073
vn -0.6705 0.1930 0.7164
vn -0.6959 0.3510 0.6265
vn -0.6276 0.2911 0.7221
vn -0.7963 -0.4120 0.4430
vn -0.8754 -0.2639 0.4049
vn -0.8101 -0.3400 0.4776
vn -0.5988 -0.1642 0.7839
vn -0.6121 -0.2328 0.7557
vn -0.6792 -0.0743 0.7302
vn -0.8413 -0.2535 0.4774
vn -0.8661 -0.2946 0.4039
vn -0.8744 -0.1297 0.4675
vn -0.8536 0.1319 0.5039
vn -0.8492 0.1386 0.5095
vn -0.8269 0.2551 0.5012
vn -0.8230 -0.1089 0.5576
vn -0.8254 -0.1973 0.5290
vn -0.8744 -0.0381 0.4838
vn -0.4619 0.0298 0.8865
vn -0.4828 -0.0215 0.8755
vn -0.5161 0.1311 0.8464
vn -0.5690 -0.4875 0.6623
vn -0.6650 -0.3481 0.6608
vn -0.5781 -0.4166 0.7016
vn -0.8536 -0.4439 0.2725
vn -0.7742 -0.4772 0.4157
vn -0.7798 -0.4678 0.4159
vn -0.9651 -0.1734 0.1964
vn -0.9641 -0.1356 0.2283
vn -0.9605 -0.1371 0.2421
vn -0.6637 0.6086 -0.4349
vn -0.6353 0.5980 -0.4887
vn -0.6759 0.5623 -0.4764
vn -0.9376 0.2456 -0.2461
vn -0.9507 0.1858 -0.2483
vn -0.9390 0.2478 -0.2385
vn -0.9099 0.4079 0.0755
vn -0.9159 0.3947 0.0726
vn -0.9179 0.3737 0.1334
vn -0.8926 0.2556 -0.3715
vn -0.9172 0.2131 -0.3367
vn -0.8924 0.2663 -0.3643
vn -0.9196 0.0977 -0.3805
vn -0.9293 0.1300 -0.3456
vn -0.9258 0.0703 -0.3715
vn -0.9005 0.1848 -0.3935
vn -0.9020 0.2280 -0.3665
vn -0.9096 0.1655 -0.3810
vn -0.9513 0.1080 -0.2887
vn -0.9520 0.1520 -0.2658
vn -0.9577 0.0888 -0.2736
vn -0.9935 -0.0785 0.0822
vn -0.9857 -0.1409 0.0927
vn -0.9890 -0.1286 0.0737
vn -0.9968 -0.0797 0.0070
vn -0.9903 -0.1374 -0.0228
vn -0.9938 -0.1069 -0.0310
vn -0.9869 0.1606 0.0148
vn -0.9808 0.1862 0.0571
vn -0.9907 0.1351 0.0191
vn -0.9924 0.1212 0.0228
vn -0.9855 0.1694 0.0062
vn -0.9921 0.1185 0.0409
vn -0.7971 -0.0139 -0.6037
vn -0.8112 0.0282 -0.5840
vn -0.8024 -0.0302 -0.5960
vn -0.9690 -0.2373 -0.0682
vn -0.9799 -0.1878 -0.0669
vn -0.9680 -0.2443 -0.0580
vn -0.8341 -0.0282 -0.5509
vn -0.8313 -0.0910 -0.5484
vn -0.8228 -0.0727 -0.5636
vn -0.9817 -0.1552 0.1107
vn -0.9892 -0.1011 0.1057
vn -0.9846 -0.1437 0.0996
vn -0.7549 -0.5857 -0.2953
vn -0.7103 -0.6329 -0.3079
vn -0.7217 -0.6117 -0.3239
vn -0.8963 -0.4303 0.1072
vn -0.8698 -0.4823 0.1041
vn -0.8751 -0.4744 0.0953
vn -0.7898 -0.1903 -0.5831
vn -0.7693 -0.2490 -0.5884
vn -0.7663 -0.2307 -0.5996
vn -0.9979 -0.0432 -0.0476
vn -0.9920 -0.0845 -0.0941
vn -0.9935 -0.0648 -0.0937
vn -0.8593 -0.3535 -0.3698
vn -0.8330 -0.3561 -0.4234
vn -0.8225 -0.3849 -0.4187
vn -0.8670 -0.4957 0.0517
vn -0.8758 -0.4826 -0.0053
vn -0.8656 -0.5004 -0.0160
vn -0.8201 -0.5660 0.0840
vn -0.8348 -0.5319 0.1420
vn -0.8406 -0.5349 0.0857
vn -0.8434 -0.3852 -0.3746
vn -0.8781 -0.3478 -0.3286
vn -0.8544 -0.3541 -0.3802
vn -0.1296 -0.0803 -0.9883
vn 0.2056 0.3594 -0.9102
vn -0.1159 0.3336 -0.9356
vn 0.3062 0.0953 -0.9472
vn -0.2132 0.0005 -0.9770
vn 0.1044 -0.2197 -0.9700
vn -0.2817 -0.0493 -0.9582
vn 0.2963 -0.2065 -0.9325
vn -0.1287 -0.3125 -0.9412
vn 0.2840 0.0418 -0.9579
vn 0.0357 -0.0694 -0.9970
vn -0.3274 -0.1223 -0.9369
vn 0.4298 -0.0603 -0.9009
vn 0.0920 -0.5223 -0.8478
vn 0.1654 -0.1820 -0.9693
vn 0.6931 0.4017 -0.5986
vn 0.8345 -0.2281 -0.5016
vn 0.8943 0.2726 0.3547
vn 0.9622 0.2569 0.0907
vn 0.9315 0.0307 -0.3626
vn 0.9966 0.0312 0.0756
vn 0.9238 -0.0995 0.3696
vn 0.9301 -0.0279 -0.3662
vn 0.8237 -0.5669 -0.0113
vn 0.9969 0.0734 0.0297
vn 0.9748 0.0475 -0.2182
vn 0.9702 -0.2411 -0.0257
vn 0.8614 -0.3468 -0.3712
vn 0.9174 -0.3978 -0.0084
vn 0.7047 -0.6586 -0.2639
vn 0.8948 -0.4455 0.0288
vn 0.9338 -0.3577 -0.0076
vn 0.9393 -0.3430 0.0110
vn 0.4940 0.3454 0.7979
vn 0.9070 0.3596 0.2194
vn 0.5017 0.4824 0.7180
vn 0.8728 0.3116 0.3757
vn 0.5755 0.0047 0.8178
vn 0.1786 -0.1170 0.9769
vn 0.7730 -0.1198 0.6230
vn 0.8934 -0.1166 0.4339
vn 0.7187 -0.4672 0.5150
vn 0.7943 -0.2149 0.5682
vn 0.8503 -0.1694 0.4983
vn 0.5084 -0.3002 0.8071
vn 0.9400 -0.2456 0.2367
vn 0.8431 -0.2528 0.4747
vt 0.001707 0.998324
vt 0.001783 0.999871
vt 0.000149 0.998329
vt 0.000226 0.999998
vt 0.001173 1.000000
vt 0.000880 0.999770
vt 0.000214 0.999687
vt 0.000791 0.998930
vt 0.000414 0.998699
vt 0.001712 0.998052
vt 0.001729 0.999841
vt 0.000153 0.998253
vt 0.001100 0.999429
vt 0.001203 0.999407
vt 0.001205 0.998886
vt 0.000314 0.999696
vt 0.001372 0.998822
vt 0.001002 0.998563
vt 0.000960 0.998687
vt 0.001178 0.999144
vt 0.000280 0.999623
vt 0.000794 0.999595
vt 0.001683 0.999760
vt 0.000838 0.999512
vt 0.000396 0.999320
vt 0.001623 0.999515
vt 0.000091 0.998377
vt 0.001470 0.998271
vt 0.001670 0.999064
vt 0.000062 0.999379
vt 0.001925 0.998665
vt 0.001730 0.998239
vt 0.001479 0.997840
vt 0.000751 0.998587
vt 0.000280 0.999514
vt 0.000549 0.999565
vt 0.000518 0.999135
vt 0.001092 0.999236
vt 0.001490 0.999297
vt 0.001956 0.999588
vt 0.000564 0.998948
vt 0.001254 0.998885
vt 0.000763 0.998294
vt 0.001209 0.998329
vt 0.002044 0.998419
vt 0.000588 0.998961
vt 0.000990 0.999064
vt 0.001152 0.999406
vt 0.001216 0.999244
vt 0.001701 0.999826
vt 0.001690 0.999013
vt 0.000906 0.999221
vt 0.001213 0.999256
vt 0.000972 0.998965
vt 0.001287 0.998591
vt 0.001264 0.998681
vt 0.001024 0.999129
vt 0.001150 0.999047
vt 0.000606 0.999443
vt 0.001190 0.999512
vt 0.001480 0.999731
vt 0.000779 0.999695
vt 0.000896 0.999711
vt 0.001235 0.999907
vt 0.000796 0.999746
vt 0.000248 0.997903
vt 0.001858 0.999562
vt 0.001678 0.998556
vt 0.001719 0.998344
vt 0.000451 0.999410
vt 0.000225 0.998370
vt 0.000741 0.999115
vt 0.001010 0.999298
vt 0.001347 0.998427
vt 0.001629 0.999156
vt 0.001568 0.999457
vt 0.001404 0.999254
vt 0.000976 0.998496
vt 0.000418 0.999153
vt 0.001094 0.999384
vt 0.000727 0.998846
vt 0.001169 0.998858
vt 0.001620 0.999059
vt 0.000352 0.998172
vt 0.000822 0.998404
vt 0.001394 0.998122
vt 0.000616 0.998302
vt 0.001330 0.999327
vt 0.001160 0.999548
vt 0.000751 0.998943
vt 0.000918 0.998944
vt 0.001060 0.998840
vt 0.001430 0.998851
vt 0.000985 0.998666
vt 0.000853 0.998561
vt 0.000795 0.999034
vt 0.000961 0.999365
vt 0.001320 0.999469
vt 0.001140 0.999716
vt 0.000894 0.999941
vt 0.001482 0.998688
vt 0.001409 0.999551
vt 0.000650 0.999118
vt 0.000757 0.999500
vt 0.001530 0.998975
vt 0.001127 0.999327
vt 0.000086 0.998924
vt 0.001080 0.999057
vt 0.001308 0.998487
vt 0.000645 0.998897
vt 0.000735 0.998242
vt 0.000380 0.998406
vt 0.000585 0.998413
vt 0.001129 0.999672
vt 0.000662 0.999403
vt 0.001247 0.999151
vt 0.001118 0.998838
vt 0.001327 0.998940
vt 0.001021 0.998729
vt 0.001078 0.999187
vt 0.000976 0.999552
vt 0.001257 0.999740
vt 0.001278 0.999376
vt 0.001160 0.999661
vt 0.000705 0.999827
vt 0.000336 0.998927
vt 0.001633 0.999567
vt 0.001589 0.998319
vt 0.001774 0.998653
vt 0.001577 0.999047
vt 0.000560 0.999620
vt 0.000783 0.998886
vt 0.000267 0.999291
vt 0.001392 0.999738
vt 0.001240 0.999475
vt 0.000250 0.999411
vt 0.000741 0.999490
vt 0.001072 0.999906
vt 0.001292 0.999288
vt 0.000616 0.999056
vt 0.000439 0.998945
vt 0.001114 0.998911
vt 0.000781 0.998828
vt 0.000786 0.998633
vt 0.001219 0.998508
vt 0.000381 0.998735
vt 0.000903 0.998299
vt 0.000984 0.999636
vt 0.001152 0.999223
vt 0.000977 0.999199
vt 0.000592 0.998968
vt 0.000910 0.998804
vt 0.001364 0.998805
vt 0.001288 0.998556
vt 0.000643 0.998538
vt 0.001230 0.998655
vt 0.001648 0.998609
vt 0.001215 0.998487
vt 0.001026 0.999326
vt 0.000723 0.999502
vt 0.001189 0.999725
vt 0.000762 0.999721
vt 0.001081 0.999631
vt 0.000703 0.998140
vt 0.001626 0.999037
vt 0.000555 0.999559
vt 0.000640 0.999009
vt 0.001511 0.999339
vt 0.000757 0.999272
vt 0.001305 0.999354
vt 0.000273 0.999023
vt 0.001151 0.999286
vt 0.000571 0.998500
vt 0.001057 0.998514
vt 0.001141 0.998803
vt 0.000880 0.998777
vt 0.001431 0.998985
vt 0.001152 0.998468
s 0
usemtl Photoreal_Trees_01-512x512.png.001
f 172/1/1 16/2/1 14/3/1
f 3/4/2 22/5/2 26/6/2
f 104/7/3 118/8/3 21/9/3
f 91/10/4 40/11/5 58/12/6
f 155/13/7 43/14/7 153/15/7
f 159/16/8 46/17/8 155/13/8
f 1/18/9 153/15/9 39/19/9
f 153/15/10 42/20/10 39/19/10
f 153/15/11 43/14/11 42/20/11
f 43/14/12 44/21/12 42/20/12
f 43/14/13 45/22/13 44/21/13
f 155/13/14 46/17/14 43/14/14
f 159/16/15 17/23/15 46/17/15
f 46/17/16 47/24/16 43/14/16
f 43/14/17 47/24/17 45/22/17
f 47/24/18 48/25/18 45/22/18
f 45/22/19 48/25/19 44/21/19
f 48/25/20 40/11/20 44/21/20
f 52/26/21 6/27/22 66/28/23
f 53/29/24 11/30/25 52/26/26
f 57/31/27 11/30/28 53/29/29
f 61/32/30 12/33/31 167/34/32
f 41/35/33 50/36/34 49/37/35
f 50/36/36 51/38/37 49/37/38
f 51/38/39 52/26/40 49/37/41
f 78/39/42 50/36/43 73/40/44
f 51/38/45 53/29/46 52/26/47
f 78/39/48 54/41/49 51/38/50
f 56/42/51 53/29/52 51/38/53
f 56/42/54 57/31/55 53/29/56
f 54/41/57 60/43/58 56/42/59
f 61/32/60 57/31/61 56/42/62
f 60/43/63 46/17/64 59/44/65
f 46/17/66 61/32/67 59/44/68
f 40/11/69 48/25/70 58/12/71
f 48/25/72 60/43/73 58/12/74
f 46/17/75 17/23/76 61/32/77
f 97/45/78 63/46/78 37/47/78
f 92/48/79 36/49/79 2/50/79
f 36/49/80 62/51/80 2/50/80
f 2/50/81 62/51/81 4/52/81
f 37/47/82 36/49/82 94/53/82
f 37/47/83 63/46/83 36/49/83
f 63/46/84 64/54/84 36/49/84
f 36/49/85 5/55/85 62/51/85
f 64/54/86 65/56/86 36/49/86
f 36/49/87 65/56/87 5/55/87
f 63/46/88 65/56/88 64/54/88
f 65/56/89 66/28/89 5/55/89
f 66/28/90 6/27/90 5/55/90
f 97/45/91 41/35/91 63/46/91
f 41/35/92 49/37/92 63/46/92
f 63/46/93 49/37/93 65/56/93
f 49/37/94 66/28/94 65/56/94
f 42/20/95 67/57/95 39/19/95
f 39/19/96 33/58/96 1/18/96
f 39/19/97 67/57/97 33/58/97
f 67/57/98 34/59/98 33/58/98
f 42/20/99 68/60/99 67/57/99
f 44/21/100 69/61/100 42/20/100
f 69/61/101 68/60/101 42/20/101
f 67/57/102 68/60/102 34/59/102
f 68/60/103 70/62/103 34/59/103
f 70/62/104 35/63/104 34/59/104
f 44/21/105 40/11/105 69/61/105
f 69/61/106 71/64/106 68/60/106
f 68/60/107 71/64/107 70/62/107
f 71/64/108 38/65/108 70/62/108
f 38/65/109 88/66/109 70/62/109
f 70/62/110 88/66/110 35/63/110
f 88/66/111 32/67/111 35/63/111
f 91/10/112 58/12/113 86/68/114
f 119/69/115 74/70/116 29/71/117
f 29/71/118 74/70/119 72/72/120
f 75/73/121 98/74/122 72/72/123
f 73/40/124 97/45/125 99/75/126
f 99/75/127 77/76/128 73/40/129
f 75/73/130 76/77/131 77/76/132
f 77/76/133 78/39/134 73/40/135
f 83/78/136 79/79/137 31/80/138
f 79/79/139 81/81/140 74/70/141
f 74/70/142 81/81/143 75/73/144
f 82/82/145 76/77/146 75/73/147
f 76/77/148 80/83/149 77/76/150
f 80/83/151 78/39/152 77/76/153
f 83/78/154 81/81/155 79/79/156
f 83/78/157 87/84/158 81/81/159
f 90/85/160 82/82/161 81/81/162
f 85/86/163 86/68/164 82/82/165
f 32/67/166 87/84/167 83/78/168
f 88/66/169 89/87/170 87/84/171
f 38/65/172 85/86/173 90/85/174
f 85/86/175 69/61/176 91/10/177
f 115/88/178 92/48/178 27/89/178
f 28/90/179 93/91/179 115/88/179
f 27/89/180 92/48/180 2/50/180
f 115/88/181 93/91/181 92/48/181
f 93/91/182 94/53/182 92/48/182
f 92/48/183 94/53/183 36/49/183
f 93/91/184 96/92/184 94/53/184
f 96/92/185 95/93/185 94/53/185
f 94/53/186 95/93/186 37/47/186
f 117/94/187 96/92/187 28/90/187
f 28/90/188 96/92/188 93/91/188
f 95/93/189 97/45/189 37/47/189
f 29/71/190 72/72/190 117/94/190
f 117/94/191 72/72/191 96/92/191
f 72/72/192 98/74/192 96/92/192
f 96/92/193 98/74/193 95/93/193
f 98/74/194 99/75/194 95/93/194
f 95/93/195 99/75/195 97/45/195
f 33/58/196 24/95/196 1/18/196
f 33/58/197 25/96/197 24/95/197
f 34/59/198 100/97/198 33/58/198
f 33/58/199 100/97/199 25/96/199
f 100/97/200 101/98/200 25/96/200
f 34/59/201 35/63/201 100/97/201
f 35/63/202 102/99/202 100/97/202
f 102/99/203 103/100/203 100/97/203
f 100/97/204 103/100/204 101/98/204
f 103/100/205 26/6/205 101/98/205
f 3/4/206 26/6/206 103/100/206
f 35/63/207 32/67/207 30/101/207
f 35/63/208 30/101/208 102/99/208
f 30/101/209 103/100/209 102/99/209
f 118/8/210 106/102/210 119/69/210
f 106/102/211 31/80/211 119/69/211
f 104/7/212 107/103/212 105/104/212
f 105/104/213 110/105/213 106/102/213
f 23/106/214 111/107/214 107/103/214
f 110/105/215 83/78/215 106/102/215
f 109/108/216 112/109/216 110/105/216
f 108/110/217 112/109/217 109/108/217
f 114/111/218 112/109/218 113/112/218
f 30/101/219 83/78/219 112/109/219
f 3/4/220 113/112/220 144/113/220
f 3/4/221 114/111/221 113/112/221
f 114/111/222 103/100/222 30/101/222
f 19/114/223 27/89/223 2/50/223
f 20/115/224 27/89/224 19/114/224
f 20/115/225 115/88/225 27/89/225
f 146/116/226 115/88/226 20/115/226
f 146/116/227 116/117/227 115/88/227
f 116/117/228 28/90/228 115/88/228
f 148/118/229 21/9/229 146/116/229
f 21/9/230 116/117/230 146/116/230
f 116/117/231 117/94/231 28/90/231
f 21/9/232 118/8/232 116/117/232
f 116/117/233 119/69/233 117/94/233
f 119/69/234 29/71/234 117/94/234
f 116/117/235 118/8/235 119/69/235
f 24/95/236 15/119/236 1/18/236
f 25/96/237 120/120/237 24/95/237
f 24/95/238 120/120/238 15/119/238
f 25/96/239 121/121/239 120/120/239
f 101/98/240 121/121/240 25/96/240
f 101/98/241 123/122/241 121/121/241
f 120/120/242 121/121/242 122/123/242
f 121/121/243 124/124/243 122/123/243
f 26/6/244 123/122/244 101/98/244
f 121/121/245 125/125/245 124/124/245
f 123/122/246 125/125/246 121/121/246
f 126/126/247 16/2/247 124/124/247
f 26/6/248 22/5/248 123/122/248
f 123/122/249 22/5/249 125/125/249
f 125/125/250 126/126/250 124/124/250
f 133/127/251 104/7/251 18/128/251
f 141/129/252 111/107/252 135/130/252
f 141/129/253 144/113/253 111/107/253
f 129/131/254 127/132/254 10/133/254
f 132/134/255 133/127/255 18/128/255
f 162/135/256 128/136/256 10/133/256
f 10/133/257 128/136/257 129/131/257
f 127/132/258 130/137/258 131/138/258
f 134/139/259 131/138/259 130/137/259
f 134/139/260 132/134/260 131/138/260
f 134/139/261 133/127/261 132/134/261
f 129/131/262 136/140/262 130/137/262
f 130/137/263 136/140/263 134/139/263
f 134/139/264 135/130/264 133/127/264
f 162/135/265 170/141/265 128/136/265
f 139/142/266 134/139/266 136/140/266
f 138/143/267 139/142/267 136/140/267
f 139/142/268 141/129/268 135/130/268
f 138/143/269 140/144/269 139/142/269
f 139/142/270 142/145/270 141/129/270
f 170/141/271 14/3/271 137/146/271
f 137/146/272 143/147/272 140/144/272
f 143/147/273 142/145/273 140/144/273
f 22/5/274 144/113/274 143/147/274
f 7/148/275 19/114/275 2/50/275
f 8/149/276 145/150/276 4/52/276
f 7/148/277 20/115/277 19/114/277
f 4/52/278 145/150/278 7/148/278
f 7/148/279 145/150/279 20/115/279
f 145/150/280 146/116/280 20/115/280
f 9/151/281 147/152/281 8/149/281
f 8/149/282 147/152/282 145/150/282
f 147/152/283 148/118/283 145/150/283
f 145/150/284 148/118/284 146/116/284
f 176/153/285 177/154/285 9/151/285
f 177/154/286 149/155/286 9/151/286
f 149/155/287 147/152/287 9/151/287
f 147/152/288 150/156/288 148/118/288
f 150/156/289 151/157/289 148/118/289
f 148/118/290 151/157/290 21/9/290
f 10/133/291 149/155/291 177/154/291
f 149/155/292 127/132/292 147/152/292
f 147/152/293 127/132/293 150/156/293
f 127/132/294 152/158/294 150/156/294
f 152/158/295 151/157/295 150/156/295
f 10/133/296 127/132/296 149/155/296
f 127/132/297 131/138/297 152/158/297
f 131/138/298 132/134/298 152/158/298
f 152/158/299 132/134/299 151/157/299
f 132/134/300 18/128/300 151/157/300
f 151/157/301 18/128/301 21/9/301
f 18/128/302 104/7/302 21/9/302
f 15/119/303 153/15/303 1/18/303
f 15/119/304 154/159/304 153/15/304
f 120/120/305 154/159/305 15/119/305
f 122/123/306 154/159/306 120/120/306
f 154/159/307 155/13/307 153/15/307
f 154/159/308 156/160/308 155/13/308
f 122/123/309 124/124/309 154/159/309
f 124/124/310 157/161/310 154/159/310
f 154/159/311 157/161/311 156/160/311
f 157/161/312 158/162/312 156/160/312
f 156/160/313 159/16/313 155/13/313
f 16/2/314 157/161/314 124/124/314
f 157/161/315 13/163/315 158/162/315
f 158/162/316 159/16/316 156/160/316
f 16/2/317 13/163/317 157/161/317
f 13/163/318 173/164/318 158/162/318
f 158/162/319 173/164/319 159/16/319
f 173/164/320 12/33/320 159/16/320
f 159/16/321 12/33/321 17/23/321
f 166/165/322 170/141/322 162/135/322
f 172/1/323 14/3/323 170/141/323
f 6/27/324 161/166/324 178/167/324
f 164/168/325 162/135/325 177/154/325
f 161/166/326 168/169/326 178/167/326
f 168/169/327 160/170/327 178/167/327
f 164/168/328 166/165/328 162/135/328
f 11/30/329 165/171/329 168/169/329
f 163/172/330 166/165/330 164/168/330
f 167/34/331 165/171/331 57/31/331
f 167/34/332 171/173/332 168/169/332
f 174/174/333 169/175/333 168/169/333
f 169/175/334 174/174/334 166/165/334
f 174/174/335 170/141/335 166/165/335
f 173/164/336 174/174/336 171/173/336
f 13/163/337 172/1/337 174/174/337
f 12/33/338 173/164/338 171/173/338
f 5/55/339 175/176/339 62/51/339
f 2/50/340 4/52/340 7/148/340
f 62/51/341 175/176/341 4/52/341
f 4/52/342 9/151/342 8/149/342
f 175/176/343 176/153/343 4/52/343
f 4/52/344 176/153/344 9/151/344
f 6/27/345 178/167/345 5/55/345
f 5/55/346 178/167/346 175/176/346
f 175/176/347 160/170/347 176/153/347
f 160/170/348 177/154/348 176/153/348
f 175/176/349 178/167/349 160/170/349
f 177/154/350 162/135/350 10/133/350
f 144/113/351 22/5/351 3/4/351
f 52/26/352 11/30/353 6/27/354
f 57/31/355 61/32/356 167/34/357
f 61/32/358 17/23/359 12/33/360
f 49/37/361 52/26/362 66/28/363
f 41/35/364 73/40/365 50/36/366
f 78/39/367 51/38/368 50/36/369
f 55/177/370 54/41/371 78/39/372
f 51/38/373 54/41/374 56/42/375
f 54/41/376 55/177/377 60/43/378
f 56/42/379 60/43/380 59/44/381
f 55/177/382 58/12/383 60/43/384
f 56/42/385 59/44/386 61/32/387
f 47/24/388 46/17/389 60/43/390
f 48/25/391 47/24/392 60/43/393
f 55/177/394 86/68/395 58/12/396
f 119/69/397 31/80/398 74/70/399
f 75/73/400 77/76/401 98/74/402
f 98/74/403 77/76/404 99/75/405
f 73/40/406 41/35/407 97/45/408
f 74/70/409 31/80/410 79/79/411
f 72/72/412 74/70/413 75/73/414
f 75/73/415 81/81/416 82/82/417
f 82/82/418 80/83/419 76/77/420
f 80/83/421 55/177/422 78/39/423
f 80/83/424 82/82/425 86/68/426
f 80/83/427 86/68/428 55/177/429
f 81/81/430 87/84/431 89/87/432
f 81/81/433 89/87/434 90/85/435
f 90/85/436 84/178/437 82/82/438
f 82/82/439 84/178/440 85/86/441
f 90/85/442 85/86/443 84/178/444
f 85/86/445 91/10/446 86/68/447
f 32/67/448 88/66/449 87/84/450
f 89/87/451 38/65/452 90/85/453
f 88/66/454 38/65/455 89/87/456
f 38/65/457 71/64/458 85/86/459
f 85/86/460 71/64/461 69/61/462
f 91/10/463 69/61/464 40/11/465
f 30/101/466 32/67/466 83/78/466
f 104/7/467 105/104/467 118/8/467
f 118/8/468 105/104/468 106/102/468
f 104/7/469 23/106/469 107/103/469
f 107/103/470 109/108/470 105/104/470
f 105/104/471 109/108/471 110/105/471
f 106/102/472 83/78/472 31/80/472
f 111/107/473 108/110/473 107/103/473
f 107/103/474 108/110/474 109/108/474
f 111/107/475 113/112/475 108/110/475
f 113/112/476 112/109/476 108/110/476
f 110/105/477 112/109/477 83/78/477
f 144/113/478 113/112/478 111/107/478
f 112/109/479 114/111/479 30/101/479
f 114/111/480 3/4/480 103/100/480
f 133/127/481 23/106/481 104/7/481
f 23/106/482 135/130/482 111/107/482
f 127/132/483 129/131/483 130/137/483
f 129/131/484 128/136/484 136/140/484
f 133/127/485 135/130/485 23/106/485
f 128/136/486 170/141/486 137/146/486
f 128/136/487 137/146/487 136/140/487
f 134/139/488 139/142/488 135/130/488
f 137/146/489 138/143/489 136/140/489
f 137/146/490 140/144/490 138/143/490
f 140/144/491 142/145/491 139/142/491
f 137/146/492 14/3/492 143/147/492
f 142/145/493 144/113/493 141/129/493
f 14/3/494 126/126/494 143/147/494
f 142/145/495 143/147/495 144/113/495
f 16/2/496 126/126/496 14/3/496
f 126/126/497 125/125/497 143/147/497
f 143/147/498 125/125/498 22/5/498
f 6/27/499 11/30/499 161/166/499
f 160/170/500 164/168/500 177/154/500
f 168/169/501 163/172/501 160/170/501
f 160/170/502 163/172/502 164/168/502
f 11/30/503 168/169/503 161/166/503
f 57/31/504 165/171/504 11/30/504
f 168/169/505 169/175/505 163/172/505
f 163/172/506 169/175/506 166/165/506
f 167/34/507 168/169/507 165/171/507
f 168/169/508 171/173/508 174/174/508
f 174/174/509 172/1/509 170/141/509
f 167/34/510 12/33/510 171/173/510
f 173/164/511 13/163/511 174/174/511
f 13/163/512 16/2/512 172/1/512
