# Made in Blockbench 4.10.2
mtllib clock.mtl

o main face
v 0.9375 8.375 4.718447854656915e-17
v 0.9375000000000001 8.090303983041933 1.0625
v 0.9375000000000002 7.597196016958068 0.7778039830419323
v 0.9375000000000002 7.3125 0.2846960169580679
v 0.9375000000000002 7.3125 -0.2846960169580679
v 0.9375000000000002 7.597196016958067 -0.777803983041932
v 0.9375000000000001 8.090303983041931 -1.0624999999999998
v 0.9374999999999999 8.659696016958067 -1.0625
v 0.9374999999999998 9.152803983041933 -0.7778039830419323
v 0.9374999999999998 9.4375 -0.2846960169580676
v 0.9374999999999998 9.4375 0.2846960169580674
v 0.9374999999999998 9.152803983041933 0.777803983041932
v 0.9374999999999999 8.659696016958067 1.0625
vt 0.13368501527180815 0.13399191482215023
vt 0.36573582284068507 0.000017318606588934138
vt 0.49971041905624636 0.5000173186065888
vt 0.36573582284068507 0.000017318606588934138
vt 0.6336850152718077 0.000017318606588934138
vt 0.49971041905624636 0.5000173186065888
vt 0.6336850152718077 0.000017318606588934138
vt 0.8657358228406848 0.13399191482214956
vt 0.49971041905624636 0.5000173186065888
vt 0.8657358228406848 0.13399191482214956
vt 0.9997104190562479 0.36604272239102686
vt 0.49971041905624636 0.5000173186065888
vt 0.9997104190562479 0.36604272239102686
vt 0.9997104190562479 0.6339919148221498
vt 0.49971041905624636 0.5000173186065888
vt 0.9997104190562479 0.6339919148221498
vt 0.8657358228406848 0.8660427223910276
vt 0.49971041905624636 0.5000173186065888
vt 0.8657358228406848 0.8660427223910276
vt 0.6336850152718074 1.0000173186065886
vt 0.49971041905624636 0.5000173186065888
vt 0.6336850152718074 1.0000173186065886
vt 0.3657358228406853 1.0000173186065886
vt 0.49971041905624636 0.5000173186065888
vt 0.3657358228406853 1.0000173186065886
vt 0.13368501527180826 0.8660427223910276
vt 0.49971041905624636 0.5000173186065888
vt 0.13368501527180826 0.8660427223910276
vt -0.0002895809437533288 0.6339919148221498
vt 0.49971041905624636 0.5000173186065888
vt -0.0002895809437533288 0.6339919148221498
vt -0.0002895809437533288 0.36604272239102775
vt 0.49971041905624636 0.5000173186065888
vt -0.0002895809437533288 0.36604272239102775
vt 0.13368501527180815 0.13399191482215023
vt 0.49971041905624636 0.5000173186065888
vn 1 2.220446049250313e-16 0
vn 1 2.220446049250313e-16 0
vn 1 2.220446049250313e-16 0
vn 1 2.220446049250313e-16 0
vn 1 2.220446049250313e-16 0
vn 1 2.220446049250313e-16 0
vn 1 2.220446049250313e-16 0
vn 1 2.220446049250313e-16 0
vn 1 2.220446049250313e-16 0
vn 1 2.220446049250313e-16 0
vn 1 2.220446049250313e-16 0
vn 1 2.220446049250313e-16 0
usemtl m_5388599e-fc13-057f-1e45-799fd62d1fdf
f 3/1/1 4/2/1 1/3/1
f 4/4/2 5/5/2 1/6/2
f 5/7/3 6/8/3 1/9/3
f 6/10/4 7/11/4 1/12/4
f 7/13/5 8/14/5 1/15/5
f 8/16/6 9/17/6 1/18/6
f 9/19/7 10/20/7 1/21/7
f 10/22/8 11/23/8 1/24/8
f 11/25/9 12/26/9 1/27/9
f 12/28/10 13/29/10 1/30/10
f 13/31/11 2/32/11 1/33/11
f 2/34/12 3/35/12 1/36/12
o main body
v -0.9999999999999998 9.4375 1.3125
v -0.9999999999999998 9.625 1.3125
v -0.9999999999999998 9.625 -1.3125
v -0.9999999999999998 9.4375 -1.3125
v -0.9999999999999998 9.625 -1.5
v -0.9999999999999998 9.4375 -1.5
v -0.9374999999999998 9.625 -1.5625
v -0.9374999999999998 9.4375 -1.5625
v -0.8124999999999998 9.4375 -1.625
v -0.8124999999999998 9.625 -1.625
v 1 9.4375 -1.625
v 1.0000000000000002 9.625 -1.625
v 1.1250000000000002 9.625 -1.5625
v 1.125 9.4375 -1.5625
v 1.2500000000000002 9.625 -1.4375
v 1.25 9.4375 -1.4375
v 1.3125000000000002 9.625 -1.3125
v 1.3125 9.4375 -1.3125
v 1.3125000000000002 9.625 1.3125
v 1.3125 9.4375 1.3125
v 1.25 9.4375 1.4375
v 1.2500000000000002 9.625 1.4375
v 1.1250000000000002 9.625 1.5625
v 1.125 9.4375 1.5625
v 1.0000000000000002 9.625 1.625
v 1 9.4375 1.625
v -0.8124999999999998 9.4375 1.625
v -0.8124999999999998 9.625 1.625
v -0.9374999999999998 9.625 1.5625
v -0.9374999999999998 9.4375 1.5625
v -0.9999999999999998 9.625 1.5
v -0.9999999999999998 9.4375 1.5
v 0.9375000000000002 8.090303983041933 1.0625
v 0.9375000000000003 7.597196016958068 0.7778039830419323
v 0.9375000000000003 7.3125 0.2846960169580679
v 0.9375000000000003 7.3125 -0.2846960169580679
v 0.9375000000000003 7.597196016958067 -0.777803983041932
v 0.9375000000000002 8.090303983041931 -1.0624999999999998
v 0.9374999999999999 8.659696016958067 -1.0625
v 0.9374999999999998 9.152803983041933 -0.7778039830419323
v 0.9374999999999999 9.4375 -0.2846960169580676
v 0.9374999999999999 9.4375 0.2846960169580674
v 0.9374999999999998 9.152803983041933 0.777803983041932
v 0.9374999999999999 8.659696016958067 1.0625
v -0.9999999999999998 7 -1.3125
v -0.9999999999999998 7 1.3125
v -0.9999999999999998 7 -1.5
v -0.9375 7 -1.5625
v -0.8125 7 -1.625
v 1 7 -1.625
v 1.3125 7 1.3125
v -0.9375 7 1.5625
v 1.125 7 -1.5625
v 1.25 7 -1.4375
v 1.3125 7 -1.3125
v -0.8125 7 1.625
v 1.25 7 1.4375
v 1.125 7 1.5625
v 1 7 1.625
v -0.9999999999999998 7 1.5
v 1 7.3125 -1.625
v 1.3125 7.3125 -1.3125
v 1.125 7.3125 -1.5625
v 1.25 7.3125 -1.4375
v 1.3125 7.3125 1.3125
v 1 7.3125 1.625
v 1.125 7.3125 1.5625
v 1.25 7.3125 1.4375
v -0.8124999999999998 7.3125 1.625
v -0.9999999999999998 7.3125 1.3125
v -0.9374999999999998 7.3125 1.5625
v -0.9999999999999998 7.3125 1.5
v 1 8.090303983041933 1.0625
v 1.0000000000000007 7.597196016958068 0.7778039830419323
v 1.0000000000000002 7.3125 0.2846960169580679
v 1.0000000000000002 7.3125 -0.2846960169580679
v 1.0000000000000007 7.597196016958067 -0.777803983041932
v 1 8.090303983041931 -1.0624999999999998
v 0.9999999999999999 8.659696016958067 -1.0625
v 0.9999999999999998 9.152803983041933 -0.7778039830419323
v 0.9999999999999998 9.4375 -0.2846960169580676
v 0.9999999999999998 9.4375 0.2846960169580674
v 0.9999999999999998 9.152803983041933 0.777803983041932
v 0.9999999999999999 8.659696016958067 1.0625
v 1 7 -1.3125
v -0.9999999999999998 7 -1.3125
v -0.9999999999999998 7 1.3125
v 1 7 1.3125
v -0.5275249999999998 6.65 1.2
v 0.527525 6.65 1.2
v 0.627525 6.75 1.3125
v -0.6275249999999994 6.75 1.3125
v -0.9999999999999998 -1 1.3125
v -0.9999999999999998 -1 -1.3125
v 1 -1 -1.3125
v 1 -1 1.3125
v 0.9000000000000001 6.65 0.827525
v 0.9000000000000001 6.65 -0.827525
v 1.0000000000000007 6.75 -0.927525
v 1.0000000000000007 6.75 0.927525
v 0.527525 6.65 -1.2
v -0.5275249999999998 6.65 -1.2
v -0.6275249999999994 6.75 -1.3125
v 0.627525 6.75 -1.3125
v 0.6275250000000001 -0.75 1.3125
v -0.6275249999999999 -0.75 1.3125
v -0.6275249999999999 -0.75 -1.3125
v 0.6275250000000001 -0.75 -1.3125
v 0.75 6.627525 1.3125
v 0.7500000000000003 -0.6275259999999996 1.3125
v 0.7500000000000003 -0.6275259999999996 -1.3125
v 0.75 6.627525 -1.3125
v -0.75 6.627525 -1.3125
v -0.7499999999999998 -0.6275259999999996 -1.3125
v 1.0000000000000007 6.627525 -1.05
v 1.0000000000000002 -0.6275250000000003 -1.05
v 0.9000000000000004 -0.5275250000000007 0.95
v 0.9000000000000004 6.527525 0.95
v 1.0000000000000007 6.627525 1.05
v 1.0000000000000002 -0.6275250000000003 1.05
v 0.5275250000000004 -0.6500000000000004 1.2
v 0.6500000000000004 -0.5275250000000007 1.2
v 0.6500000000000001 6.527525 1.2
v -0.527525 -0.6500000000000004 1.2
v -0.6499999999999999 6.527524999999999 -1.2
v -0.6499999999999997 -0.5275250000000007 -1.2
v -0.527525 -0.6500000000000004 -1.2
v -0.6499999999999997 -0.5275250000000007 1.2
v -0.6499999999999999 6.527524999999999 1.2
v -0.75 6.627525 1.3125
v -0.7499999999999998 -0.6275259999999996 1.3125
v 0.5275250000000004 -0.6500000000000004 -1.2
v 1 -0.75 -0.927525
v 1 -0.75 0.927525
v 0.9000000000000004 -0.6500000000000004 -0.827525
v 0.9000000000000004 -0.5275250000000007 -0.95
v 0.9000000000000004 6.527525 -0.95
v 0.9000000000000004 -0.6500000000000004 0.827525
v 0.6500000000000004 -0.5275250000000007 -1.2
v 0.6500000000000001 6.527525 -1.2
v -0.9999999999999998 7 -1.5
v -0.9375 7 -1.5625
v -0.8125 7 -1.625
v 1 7 -1.625
v 1.3125 7 1.3125
v -0.9375 7 1.5625
v 1.125 7 -1.5625
v 1.25 7 -1.4375
v 1.3125 7 -1.3125
v -0.8125 7 1.625
v 1.25 7 1.4375
v 1.125 7 1.5625
v 1 7 1.625
v -0.9999999999999998 7 1.5
v -0.9999999999999998 7.3125 -1.3125
v -0.8124999999999998 7.3125 -1.625
v 1 7.3125 -1.3125
v 1 7.3125 -1.625
v -0.9374999999999998 7.3125 -1.5625
v -0.9999999999999998 7.3125 -1.5
v 1.3125 7.3125 -1.3125
v 1.125 7.3125 -1.5625
v 1.25 7.3125 -1.4375
v 1 7.3125 1.3125
v 1.3125 7.3125 1.3125
v 1 7.3125 1.625
v 1.125 7.3125 1.5625
v 1.25 7.3125 1.4375
v -0.8124999999999998 7.3125 1.625
v -0.9999999999999998 7.3125 1.3125
v -0.9374999999999998 7.3125 1.5625
v -0.9999999999999998 7.3125 1.5
v -0.9999999999999998 7.3125 -1.3125
v -0.8124999999999998 7.3125 -1.625
v -0.9374999999999998 7.3125 -1.5625
v -0.9999999999999998 7.3125 -1.5
v 1 9.4375 -1.3125
v 1 9.4375 1.3125
v 1.0000000000000004 9.625 -1.3125
v 1.0000000000000004 9.625 1.3125
v -0.9999999999999998 9.4375 1.3125
v -0.9999999999999998 9.625 1.3125
v -0.9999999999999998 9.625 -1.3125
v -0.9999999999999998 9.4375 -1.3125
v -0.9999999999999998 9.625 -1.5
v -0.9999999999999998 9.4375 -1.5
v -0.9374999999999998 9.625 -1.5625
v -0.9374999999999998 9.4375 -1.5625
v -0.8124999999999998 9.4375 -1.625
v -0.8124999999999998 9.625 -1.625
v 1 9.4375 -1.625
v 1.0000000000000004 9.625 -1.625
v 1.1250000000000004 9.625 -1.5625
v 1.125 9.4375 -1.5625
v 1.2500000000000004 9.625 -1.4375
v 1.25 9.4375 -1.4375
v 1.3125000000000004 9.625 -1.3125
v 1.3125 9.4375 -1.3125
v 1.3125000000000004 9.625 1.3125
v 1.3125 9.4375 1.3125
v 1.25 9.4375 1.4375
v 1.2500000000000004 9.625 1.4375
v 1.1250000000000004 9.625 1.5625
v 1.125 9.4375 1.5625
v 1.0000000000000004 9.625 1.625
v 1 9.4375 1.625
v -0.8124999999999998 9.4375 1.625
v -0.8124999999999998 9.625 1.625
v -0.9374999999999998 9.625 1.5625
v -0.9374999999999998 9.4375 1.5625
v -0.9999999999999998 9.625 1.5
v -0.9999999999999998 9.4375 1.5
v -0.5275249999999998 6.65 1.2
v 0.527525 6.65 1.2
v 0.627525 6.75 1.3125
v -0.6275249999999997 6.75 1.3125
v 0.9000000000000001 6.65 0.827525
v 0.9000000000000001 6.65 -0.827525
v 1.0000000000000004 6.75 -0.927525
v 1.0000000000000004 6.75 0.927525
v 0.527525 6.65 -1.2
v -0.5275249999999998 6.65 -1.2
v -0.6275249999999997 6.75 -1.3125
v 0.627525 6.75 -1.3125
v 0.6275250000000001 -0.75 1.3125
v -0.6275249999999999 -0.75 1.3125
v -0.6275249999999999 -0.75 -1.3125
v 0.6275250000000001 -0.75 -1.3125
v 0.75 6.627525 1.3125
v 0.7500000000000002 -0.6275259999999996 1.3125
v 0.7500000000000002 -0.6275259999999996 -1.3125
v 0.75 6.627525 -1.3125
v -0.75 6.627525 -1.3125
v -0.7499999999999998 -0.6275259999999996 -1.3125
v 1.0000000000000004 6.627525 -1.05
v 1.0000000000000002 -0.6275250000000003 -1.05
v 0.9000000000000002 -0.5275250000000007 0.95
v 0.9000000000000002 6.527525 0.95
v 1.0000000000000004 6.627525 1.05
v 1.0000000000000002 -0.6275250000000003 1.05
v 0.5275250000000002 -0.6500000000000004 1.2
v 0.6500000000000002 -0.5275250000000007 1.2
v 0.6500000000000001 6.527525 1.2
v -0.527525 -0.6500000000000004 1.2
v -0.6499999999999999 6.527524999999999 -1.2
v -0.6499999999999997 -0.5275250000000007 -1.2
v -0.527525 -0.6500000000000004 -1.2
v -0.6499999999999997 -0.5275250000000007 1.2
v -0.6499999999999999 6.527524999999999 1.2
v -0.75 6.627525 1.3125
v -0.7499999999999998 -0.6275259999999996 1.3125
v 0.5275250000000002 -0.6500000000000004 -1.2
v 1 -0.75 -0.927525
v 1 -0.75 0.927525
v 0.9000000000000002 -0.6500000000000004 -0.827525
v 0.9000000000000002 -0.5275250000000007 -0.95
v 0.9000000000000002 6.527525 -0.95
v 0.9000000000000002 -0.6500000000000004 0.827525
v 0.6500000000000002 -0.5275250000000007 -1.2
v 0.6500000000000001 6.527525 -1.2
vt 0.5049804687500005 1
vt 0.4962457031250005 1
vt 0.4962457031250005 0.98046875
vt 0.5049804687500005 0.98046875
vt 0.5156250000000006 1
vt 0.5045765625000005 1
vt 0.5045765625000005 0.98046875
vt 0.5156250000000006 0.98046875
vt 0.5243593750000006 1
vt 0.5156250000000007 1
vt 0.5156250000000007 0.98046875
vt 0.5243593750000006 0.98046875
vt 0.5243164062500005 0.98046875
vt 0.6375976562500008 0.98046875
vt 0.6375976562500008 1
vt 0.5243164062500005 1
vt 0.6377496093750007 0.98046875
vt 0.6464843750000007 0.98046875
vt 0.6464843750000007 1
vt 0.6377496093750007 1
vt 0.6640625 0.98046875
vt 0.6640625 1
vt 0.65234375 1
vt 0.65234375 0.98046875
vt 0.6523437500000006 1
vt 0.6468195312500006 1
vt 0.6468195312500006 0.98046875
vt 0.6523437500000006 0.98046875
vt 0.16406250000000056 1
vt 0.16406250000000056 0.98046875
vt 0.17578125000000056 0.98046875
vt 0.17578125000000056 1
vt 0.18130546875000075 1
vt 0.17578125000000078 1
vt 0.17578125000000078 0.98046875
vt 0.18130546875000075 0.98046875
vt 0.19027773437500056 1
vt 0.1815429687500006 1
vt 0.1815429687500006 0.98046875
vt 0.19027773437500056 0.98046875
vt 0.1904296875000006 0.98046875
vt 0.3037109375000006 0.98046875
vt 0.3037109375000006 1
vt 0.1904296875000006 1
vt 0.31244531250000057 1
vt 0.30371093750000056 1
vt 0.30371093750000056 0.98046875
vt 0.31244531250000057 0.98046875
vt 0.3235484375000006 1
vt 0.31250000000000056 1
vt 0.31250000000000056 0.98046875
vt 0.3235484375000006 0.98046875
vt 0.32373046875000067 0.98046875
vt 0.33246523437500064 0.98046875
vt 0.33246523437500064 1
vt 0.32373046875000067 1
vt 0.4961914062500006 0.98046875
vt 0.4961914062500006 1
vt 0.3321289062500006 1
vt 0.3321289062500006 0.98046875
vt 0.1640625 0.98046875
vt 0.1640625 1
vt 0 1
vt 0 0.98046875
vt 0.5049804687500005 1
vt 0.4962457031250005 1
vt 0.4962457031250005 0.98046875
vt 0.5049804687500005 0.98046875
vt 0.5156250000000006 1
vt 0.5045765625000005 1
vt 0.5045765625000005 0.98046875
vt 0.5156250000000006 0.98046875
vt 0.5243593750000006 1
vt 0.5156250000000007 1
vt 0.5156250000000007 0.98046875
vt 0.5243593750000006 0.98046875
vt 0.5243164062500005 0.98046875
vt 0.6375976562500008 0.98046875
vt 0.6375976562500008 1
vt 0.5243164062500005 1
vt 0.6377496093750007 0.98046875
vt 0.6464843750000007 0.98046875
vt 0.6464843750000007 1
vt 0.6377496093750007 1
vt 0.6640625 0.98046875
vt 0.6640625 1
vt 0.65234375 1
vt 0.65234375 0.98046875
vt 0.6523437500000006 1
vt 0.6468195312500006 1
vt 0.6468195312500006 0.98046875
vt 0.6523437500000006 0.98046875
vt 0.16406250000000056 1
vt 0.16406250000000056 0.98046875
vt 0.17578125000000056 0.98046875
vt 0.17578125000000056 1
vt 0.18130546875000075 1
vt 0.17578125000000078 1
vt 0.17578125000000078 0.98046875
vt 0.18130546875000075 0.98046875
vt 0.19027773437500056 1
vt 0.1815429687500006 1
vt 0.1815429687500006 0.98046875
vt 0.19027773437500056 0.98046875
vt 0.1904296875000006 0.98046875
vt 0.3037109375000006 0.98046875
vt 0.3037109375000006 1
vt 0.1904296875000006 1
vt 0.31244531250000057 1
vt 0.30371093750000056 1
vt 0.30371093750000056 0.98046875
vt 0.31244531250000057 0.98046875
vt 0.3235484375000006 1
vt 0.31250000000000056 1
vt 0.31250000000000056 0.98046875
vt 0.3235484375000006 0.98046875
vt 0.32373046875000067 0.98046875
vt 0.33246523437500064 0.98046875
vt 0.33246523437500064 1
vt 0.32373046875000067 1
vt 0.4961914062500006 0.98046875
vt 0.4961914062500006 1
vt 0.3321289062500006 1
vt 0.3321289062500006 0.98046875
vt 0.1640625 0.98046875
vt 0.1640625 1
vt 0 1
vt 0 0.98046875
vt 0.2893974093678242 0.5000000000000001
vt 0.2893974093678242 1
vt 0.1268974093678242 1
vt 0.1268974093678242 0.5000000000000001
vt 0.0078125 0.96875
vt 0.0234375 0.96875
vt 0.0234375 0.984375
vt 0.0078125 0.984375
vt 0.157451804933252 0.5232796875000001
vt 0.149797117433252 0.515625
vt 0.17307680493325203 0.5
vt 0.149797117433252 0.515625
vt 0.033856492433252026 0.515625
vt 0.010576804933252033 0.5
vt 0.17307680493325203 0.5
vt 0.157451804933252 0.9767203125
vt 0.157451804933252 0.5232796875000001
vt 0.17307680493325203 0.5
vt 0.17307680493325203 1
vt 0.033856492433252026 0.984375
vt 0.149797117433252 0.984375
vt 0.17307680493325203 1
vt 0.010576804933252033 1
vt 0.17307680493325203 1
vt 0.149797117433252 0.984375
vt 0.157451804933252 0.9767203125
vt 0.02620180493325202 0.9767203125
vt 0.033856492433252026 0.984375
vt 0.010576804933252033 1
vt 0.4480157841156171 0.9767203125
vt 0.45567047161561713 0.984375
vt 0.4323907841156171 1
vt 0.5341110966156171 0.984375
vt 0.541765784115617 0.9767203125
vt 0.557390784115617 1
vt 0.4323907841156171 1
vt 0.45567047161561713 0.984375
vt 0.5341110966156171 0.984375
vt 0.557390784115617 1
vt 0.02620180493325202 0.5232796875000001
vt 0.02620180493325202 0.9767203125
vt 0.010576804933252033 1
vt 0.010576804933252033 0.5
vt 0.033856492433252026 0.515625
vt 0.02620180493325202 0.5232796875000001
vt 0.010576804933252033 0.5
vt 0.44464443751217336 0.9767203125
vt 0.45229912501217334 0.984375
vt 0.4290194375121733 1
vt 0.5307397500121733 0.984375
vt 0.5383944375121734 0.9767203125
vt 0.5540194375121734 1
vt 0.4290194375121733 1
vt 0.45229912501217334 0.984375
vt 0.5307397500121733 0.984375
vt 0.5540194375121734 1
vt 0.5540194375121734 1
vt 0.5383944375121734 0.9767203125
vt 0.5383944375121734 0.523279625
vt 0.5540194375121734 0.5000000000000001
vt 0.5383944375121734 0.523279625
vt 0.5307397500121733 0.515625
vt 0.5540194375121734 0.5000000000000001
vt 0.45229912501217334 0.515625
vt 0.44464443751217336 0.523279625
vt 0.4290194375121733 0.5000000000000001
vt 0.5307397500121733 0.515625
vt 0.45229912501217334 0.515625
vt 0.4290194375121733 0.5000000000000001
vt 0.5540194375121734 0.5000000000000001
vt 0.4290194375121733 1
vt 0.4290194375121733 0.5000000000000001
vt 0.44464443751217336 0.523279625
vt 0.44464443751217336 0.9767203125
vt 0.39632656249999976 1
vt 0.3886718749999998 0.9923453125
vt 0.5074218749999997 0.9923453125
vt 0.4997671874999997 1
vt 0.39632656249999976 0.54375
vt 0.4997671874999997 0.54375
vt 0.5074218749999997 0.5514046874999999
vt 0.3886718749999998 0.5514046874999999
vt 0.557390784115617 1
vt 0.541765784115617 0.9767203125
vt 0.541765784115617 0.523279625
vt 0.557390784115617 0.5
vt 0.541765784115617 0.523279625
vt 0.5341110966156171 0.515625
vt 0.557390784115617 0.5
vt 0.557390784115617 0.5
vt 0.5341110966156171 0.515625
vt 0.45567047161561713 0.515625
vt 0.4323907841156171 0.5
vt 0.45567047161561713 0.515625
vt 0.4480157841156171 0.523279625
vt 0.4323907841156171 0.5
vt 0.4323907841156171 0.5
vt 0.4480157841156171 0.523279625
vt 0.4480157841156171 0.9767203125
vt 0.4323907841156171 1
vt 0.5180992823051295 0.54375
vt 0.4521586573051294 0.54375
vt 0.4445039698051294 0.5514046875
vt 0.5257539698051295 0.5514046875
vt 0.4521586573051294 1
vt 0.5180992823051295 1
vt 0.5257539698051295 0.9923453125
vt 0.4445039698051294 0.9923453125
vt 0.250847724952626 1
vt 0.18490709995262597 1
vt 0.177252412452626 0.9923453124999999
vt 0.25850241245262606 0.9923453124999999
vt 0.25850241245262606 0.9923453124999999
vt 0.177252412452626 0.9923453124999999
vt 0.177252412452626 0.5514046875
vt 0.25850241245262606 0.5514046875
vt 0.18490709995262597 0.5437500000000002
vt 0.250847724952626 0.5437500000000002
vt 0.25850241245262606 0.5514046875
vt 0.177252412452626 0.5514046875
vt 0.3886718749999998 0.9923453125
vt 0.3886718749999998 0.5514046874999999
vt 0.5074218749999997 0.5514046874999999
vt 0.5074218749999997 0.9923453125
vt 0.4445039698051294 0.5514046875
vt 0.4445039698051294 0.9923453125
vt 0.5257539698051295 0.9923453125
vt 0.5257539698051295 0.5514046875
vt -0.052179611721765606 0.8164062500000918
vt -0.040460861721765606 0.7968750000001017
vt -0.04827336172176558 0.8007812500000997
vt -0.052179611721765606 0.8046875000000978
vt -0.040460861721765606 0.7968750000001017
vt -0.052179611721765606 0.8164062500000918
vt 0.07282038827823434 0.8164062500000918
vt 0.07282038827823434 0.7968750000001017
vt 0.08063288827823434 0.8007812500000997
vt 0.07282038827823434 0.7968750000001017
vt 0.0923516382782344 0.8164062500000918
vt 0.0884453882782344 0.8085937500000957
vt 0.07282038827823434 0.8164062500000918
vt 0.0923516382782344 0.8164062500000918
vt 0.07282038827823434 0.7968750000001017
vt 0.0923516382782344 0.9804687500000098
vt 0.07282038827823434 0.9804687500000098
vt 0.07282038827823434 1
vt 0.0923516382782344 0.9804687500000098
vt 0.07282038827823434 1
vt 0.08063288827823434 0.996093750000002
vt 0.0884453882782344 0.9882812500000059
vt -0.04827336172176558 0.996093750000002
vt -0.040460861721765606 1
vt -0.052179611721765606 0.9804687500000098
vt -0.052179611721765606 0.9921875000000039
vt 0.07282038827823434 0.9804687500000098
vt -0.052179611721765606 0.9804687500000098
vt -0.040460861721765606 1
vt 0.07282038827823434 1
vt 0.07282038827823434 0.8164062500000918
vt 0.07282038827823434 0.9804687500000098
vt 0.0923516382782344 0.9804687500000098
vt 0.0923516382782344 0.8164062500000918
vt -0.04827336172176558 0.8007812500000997
vt -0.040460861721765606 0.7968750000001017
vt -0.052179611721765606 0.8164062500000918
vt -0.052179611721765606 0.8046875000000978
vt 0.07282038827823434 0.8164062500000918
vt -0.052179611721765606 0.8164062500000918
vt -0.040460861721765606 0.7968750000001017
vt 0.07282038827823434 0.7968750000001017
vt 0.0923516382782344 0.8164062500000918
vt 0.07282038827823434 0.7968750000001017
vt 0.08063288827823434 0.8007812500000997
vt 0.0884453882782344 0.8085937500000957
vt 0.0923516382782344 0.8164062500000918
vt 0.07282038827823434 0.8164062500000918
vt 0.07282038827823434 0.7968750000001017
vt 0.07282038827823434 0.9804687500000098
vt 0.0923516382782344 0.9804687500000098
vt 0.07282038827823434 1
vt 0.08063288827823434 0.996093750000002
vt 0.07282038827823434 1
vt 0.0923516382782344 0.9804687500000098
vt 0.0884453882782344 0.9882812500000059
vt -0.052179611721765606 0.9804687500000098
vt -0.040460861721765606 1
vt -0.04827336172176558 0.996093750000002
vt -0.052179611721765606 0.9921875000000039
vt -0.040460861721765606 1
vt -0.052179611721765606 0.9804687500000098
vt 0.07282038827823434 0.9804687500000098
vt 0.07282038827823434 1
vt 0.0923516382782344 0.9804687500000098
vt 0.07282038827823434 0.9804687500000098
vt 0.07282038827823434 0.8164062500000918
vt 0.0923516382782344 0.8164062500000918
vt 0.07470834887097978 0.9822064989401208
vt 0.041289847811100525 1
vt 0.056914847811100525 0.9513872510598792
vt 0.10552759675122132 1
vt 0.041289847811100525 1
vt 0.07470834887097978 0.9822064989401208
vt 0.2053523478111005 1
vt 0.14111459887097977 1
vt 0.1719338467512213 0.9822064989401208
vt 0.2053523478111005 1
vt 0.1719338467512213 0.9822064989401208
vt 0.18972734781110057 0.9513872510598792
vt 0.18972734781110057 0.9158002489401207
vt 0.1719338467512213 0.8849810010598792
vt 0.2053523478111005 0.8671875
vt 0.1719338467512213 0.8849810010598792
vt 0.14111459887097982 0.8671875
vt 0.2053523478111005 0.8671875
vt 0.1055275967512213 0.8671875
vt 0.07470834887097975 0.8849810010598792
vt 0.041289847811100525 0.8671875
vt 0.056914847811100525 0.9158002489401208
vt 0.041289847811100525 0.8671875
vt 0.07470834887097975 0.8849810010598792
vt 0.056914847811100525 0.9158002489401208
vt 0.056914847811100525 0.9513872510598792
vt 0.041289847811100525 1
vt 0.041289847811100525 0.8671875
vt 0.2053523478111005 1
vt 0.18972734781110057 0.9513872510598792
vt 0.18972734781110057 0.9158002489401207
vt 0.2053523478111005 0.8671875
vt 0.0473540649845105 0.8671875
vt 0.17235406498451045 0.8671875
vt 0.17235406498451045 1
vt 0.0473540649845105 1
vt 0.17235406498451045 0.8671875
vt 0.17235406498451045 1
vt 0.0473540649845105 1
vt 0.0473540649845105 0.8671875
vt -0.052179611721765606 0.8164062500000918
vt -0.040460861721765606 0.7968750000001017
vt -0.04827336172176558 0.8007812500000997
vt -0.052179611721765606 0.8046875000000978
vt -0.040460861721765606 0.7968750000001017
vt -0.052179611721765606 0.8164062500000918
vt 0.07282038827823434 0.8164062500000918
vt 0.07282038827823434 0.7968750000001017
vt 0.08063288827823434 0.8007812500000997
vt 0.07282038827823434 0.7968750000001017
vt 0.0923516382782344 0.8164062500000918
vt 0.0884453882782344 0.8085937500000957
vt 0.07282038827823434 0.8164062500000918
vt 0.0923516382782344 0.8164062500000918
vt 0.07282038827823434 0.7968750000001017
vt 0.0923516382782344 0.9804687500000098
vt 0.07282038827823434 0.9804687500000098
vt 0.07282038827823434 1
vt 0.0923516382782344 0.9804687500000098
vt 0.07282038827823434 1
vt 0.08063288827823434 0.996093750000002
vt 0.0884453882782344 0.9882812500000059
vt -0.04827336172176558 0.996093750000002
vt -0.040460861721765606 1
vt -0.052179611721765606 0.9804687500000098
vt -0.052179611721765606 0.9921875000000039
vt 0.07282038827823434 0.9804687500000098
vt -0.052179611721765606 0.9804687500000098
vt -0.040460861721765606 1
vt 0.07282038827823434 1
vt 0.07282038827823434 0.8164062500000918
vt 0.07282038827823434 0.9804687500000098
vt 0.0923516382782344 0.9804687500000098
vt 0.0923516382782344 0.8164062500000918
vt 0.10183540496376019 0.8007812500000996
vt 0.10964790496376016 0.7968750000001016
vt 0.09792915496376016 0.8164062500000918
vt 0.09792915496376016 0.8046875000000977
vt 0.2229291549637602 0.8164062500000918
vt 0.09792915496376016 0.8164062500000918
vt 0.10964790496376016 0.7968750000001016
vt 0.2229291549637602 0.7968750000001016
vt 0.2424604049637602 0.8164062500000918
vt 0.2229291549637602 0.7968750000001016
vt 0.2307416549637602 0.8007812500000996
vt 0.2385541549637602 0.8085937500000957
vt 0.2424604049637602 0.8164062500000918
vt 0.2229291549637602 0.8164062500000918
vt 0.2229291549637602 0.7968750000001016
vt 0.2229291549637602 0.9804687500000098
vt 0.2424604049637602 0.9804687500000098
vt 0.2229291549637602 1
vt 0.2307416549637602 0.9960937500000019
vt 0.2229291549637602 1
vt 0.2424604049637602 0.9804687500000098
vt 0.2385541549637602 0.9882812500000058
vt 0.2424604049637602 0.8164062500000918
vt 0.2424604049637602 0.9804687500000098
vt 0.09792915496376016 0.9804687500000098
vt 0.09792915496376016 0.8164062500000918
vt 0.1640625 0.8671875
vt 0 0.8671875
vt 0 1
vt 0.1640625 1
vt 0.09792915496376016 0.9804687500000098
vt 0.10964790496376016 1
vt 0.10183540496376019 0.9960937500000019
vt 0.09792915496376016 0.9921875000000039
vt 0.2229291549637602 1
vt 0.10964790496376016 1
vt 0.09792915496376016 0.9804687500000098
vt 0.2229291549637602 0.9804687500000098
vt 0 1
vt 0 0.99609375
vt 0.03558671875 0.99609375
vt 0.03558671875 1
vt 0 1
vt 0 0.99609375
vt 0.03558671875 0.99609375
vt 0.03558671875 1
vt 0 1
vt 0 0.99609375
vt 0.03558671875 0.99609375
vt 0.03558671875 1
vt 0.03558671875 0.99609375
vt 0.03558671875 1
vt 0 1
vt 0 0.99609375
vt 0 1
vt 0 0.99609375
vt 0.03558671875 0.99609375
vt 0.03558671875 1
vt 0.03558671875 0.99609375
vt 0.03558671875 1
vt 0 1
vt 0 0.99609375
vt 0.03558671875 1
vt 0 1
vt 0 0.99609375
vt 0.03558671875 0.99609375
vt 0.03558671875 0.99609375
vt 0.03558671875 1
vt 0 1
vt 0 0.99609375
vt 0.03558671875 1
vt 0 1
vt 0 0.99609375
vt 0.03558671875 0.99609375
vt 0.03558671875 0.99609375
vt 0.03558671875 1
vt 0 1
vt 0 0.99609375
vt 0 1
vt 0 0.99609375
vt 0.03558671875 0.99609375
vt 0.03558671875 1
vt 0 0.99609375
vt 0.03558671875 0.99609375
vt 0.03558671875 1
vt 0 1
vt 0.006249999999999999 0.9866863281249999
vt 0.07219062500000001 0.9866863281249999
vt 0.07844062499999999 0.9960937499999999
vt 0 0.9960937499999999
vt -0.04843749999999982 0.991161328125
vt 0.05500312500000018 0.991161328125
vt 0.061253125000000186 1
vt -0.054687499999999827 1
vt 0.006249999999999999 0.9554363281249999
vt 0.07219062500000001 0.9554363281249999
vt 0.07844062499999999 0.9648437499999999
vt 0 0.9648437499999999
vt 0.06352617187499984 0.552809375
vt 0.06352617187499984 0.9937499999999999
vt 0.05468749999999983 1
vt 0.05468749999999983 0.546559375
vt 0.07219062500000001 0.9960937499999999
vt 0.006249999999999999 0.9960937499999999
vt 0 0.9866859374999999
vt 0.07844062499999999 0.9866859374999999
vt 0.027343750000000083 0.9937499999999999
vt 0.027343750000000083 0.552809375
vt 0.036751562500000085 0.546559375
vt 0.036751562500000085 1
vt 0.027343750000000083 0.9937499999999999
vt 0.027343750000000083 0.552809375
vt 0.036751562500000085 0.546559375
vt 0.036751562500000085 1
vt 0.03675156250000003 0.552809375
vt 0.03675156250000003 0.9937499999999999
vt 0.027343750000000028 1
vt 0.027343750000000028 0.546559375
vt 0.07219062500000001 0.9648437499999999
vt 0.006249999999999999 0.9648437499999999
vt 0 0.9554359374999999
vt 0.07844062499999999 0.9554359374999999
vt 0.109690625 0.9453125
vt 0.0062500000000000056 0.9453125
vt 0 0.9364734375
vt 0.115940625 0.9364734375
vt 0.05468750000000014 0.9937499999999999
vt 0.05468750000000014 0.552809375
vt 0.06352617187500015 0.546559375
vt 0.06352617187500015 1
vt 0.01953134421965834 0.9891745213014277
vt 0.030825674609561884 0.9891745213014277
vt 0.03082582112693978 0.9999999999999999
vt 0.01953125000000011 0.9999996923743019
vt 0.042075478690566104 0.9887054288688709
vt 0.04207547869056616 1
vt 0.031249999999999944 0.9999995586334063
vt 0.03125030761914099 0.988705228247692
vt 0.042544771752308363 0.9921875000000001
vt 0.031250200621179336 0.9921875000000001
vt 0.03125000000000033 0.9813623289285749
vt 0.042544330385714646 0.9813620213094338
vt 0.019531250000000208 0.9921875
vt 0.019531250000000208 0.9808931696100964
vt 0.030356661809910507 0.9808927677647402
vt 0.0303566618099105 0.9921870981546438
vt 0.03035696943598068 0.9496429288688708
vt 0.03035696943598068 0.9609374999999998
vt 0.019531249999999792 0.9609373662525471
vt 0.0195315576191408 0.9496430358668329
vt 0.03082540929037024 0.9687500000000001
vt 0.019531386523598968 0.9687500000000001
vt 0.019531250000000028 0.9579248289275768
vt 0.030825580387337792 0.9579245881839835
vt 0.042075478690566104 0.961361678868871
vt 0.04207547869056616 0.97265625
vt 0.031249999999999944 0.9726558086334063
vt 0.03125030761914099 0.961361478247692
vt 0.042544771752308363 0.9609375000000001
vt 0.031250200621179336 0.9609375000000001
vt 0.03125000000000033 0.9501123289285749
vt 0.042544330385714646 0.9501120213094338
vt 0.061607010650340244 1
vt 0.05078125000000039 1
vt 0.05078149705520818 0.9891745419246342
vt 0.06160670807536617 0.9891744864048679
vt 0.05078125000000022 0.9492187499999998
vt 0.050781250000000215 0.9383929893496599
vt 0.06160676359513232 0.9383932919246339
vt 0.06160670807536603 0.9492185029447919
vt 0.05078125000000003 0.9383932364048679
vt 0.06160701065033991 0.9383932364048679
vt 0.06160676359513212 0.9492186944802338
vt 0.05078155257497409 0.94921875
vt 0.06160676359513184 0.9852679893496603
vt 0.06160676359513184 0.9960937500000002
vt 0.05078124999999978 0.9960934474250261
vt 0.050781305519766035 0.9852682364048682
vt 0.03675156250000003 0.552809375
vt 0.03675156250000003 0.9937499999999999
vt 0.027343750000000028 1
vt 0.027343750000000028 0.546559375
vn 0.8944271909999161 -8.606118397923882e-16 -0.44721359549995804
vn 0.7071067811865476 -6.803733987629693e-16 -0.7071067811865476
vn 0.44721359549995804 -4.303059198961941e-16 -0.8944271909999161
vn 0 0 -1
vn -0.44721359549995804 -9.930136612989094e-17 -0.8944271909999161
vn -1 -2.220446049250313e-16 0
vn -0.7071067811865476 -1.5700924586837752e-16 -0.7071067811865476
vn -1 -2.220446049250313e-16 0
vn -0.7071067811865476 -1.5700924586837752e-16 0.7071067811865476
vn -0.44721359549995804 -9.930136612989094e-17 0.8944271909999161
vn 0 0 1
vn 0.44721359549995804 -4.303059198961941e-16 0.8944271909999161
vn 0.7071067811865476 -6.803733987629693e-16 0.7071067811865476
vn 0.8944271909999161 -8.606118397923882e-16 0.44721359549995804
vn 1 -9.62193288008469e-16 0
vn -1 -2.220446049250313e-16 0
vn 0.8944271909999161 1.9860273225978188e-16 -0.44721359549995804
vn 0.7071067811865476 1.5700924586837752e-16 -0.7071067811865476
vn 0.44721359549995804 9.930136612989094e-17 -0.8944271909999161
vn 0 0 -1
vn -0.44721359549995804 2.184630054857601e-16 -0.8944271909999161
vn -1 -2.220446049250313e-16 0
vn -0.7071067811865476 3.454203409104306e-16 -0.7071067811865476
vn -1 -2.220446049250313e-16 0
vn -0.7071067811865476 -1.5700924586837752e-16 0.7071067811865476
vn -0.44721359549995804 2.184630054857601e-16 0.8944271909999161
vn 0 0 1
vn 0.44721359549995804 9.930136612989094e-17 0.8944271909999161
vn 0.7071067811865476 1.5700924586837752e-16 0.7071067811865476
vn 0.8944271909999161 1.9860273225978188e-16 0.44721359549995804
vn 1 2.220446049250313e-16 0
vn -1 -2.220446049250313e-16 0
vn -1 0 0
vn 2.220446049250313e-16 -1 0
vn 1 -8.771350423010157e-16 7.137993682875818e-16
vn 1 2.220446049250313e-16 0
vn 1 -5.3405108629703896e-17 -4.550341823570706e-16
vn 1 1.9984014443252818e-15 0
vn 1 9.21425225973204e-16 -6.9938062104817075e-16
vn 1 9.21425225973204e-16 6.9938062104817075e-16
vn 0 0 1
vn 0 0 1
vn 0 0 1
vn 1 -5.3405108629703896e-17 2.082618445357572e-15
vn 1 -8.771350423010157e-16 -7.137993682875818e-16
vn 0 0 -1
vn 0 0 -1
vn 0 0 -1
vn 0 0 -1
vn 0 0 -1
vn 0 0 -1
vn 0 0 -1
vn 0 0 -1
vn 1 1.12853411268184e-15 0
vn 1 2.220446049250313e-16 0
vn 0 0 1
vn 0 0 1
vn 0 0 1
vn 0 0 1
vn 0 0 1
vn 0 0 1
vn 0 0 1
vn 0 0 -1
vn 0 0 -1
vn 0 0 -1
vn 1 1.7325965799141355e-18 0
vn 0 0 1
vn 2.220446049250313e-16 -1 0
vn 2.220446049250313e-16 -1 0
vn 2.220446049250313e-16 -1 0
vn 2.220446049250313e-16 -1 0
vn 2.220446049250313e-16 -1 0
vn 2.220446049250313e-16 -1 0
vn 2.220446049250313e-16 -1 0
vn 2.220446049250313e-16 -1 0
vn 2.220446049250313e-16 -1 0
vn -2.220446049250313e-16 1 0
vn -2.220446049250313e-16 1 0
vn -2.220446049250313e-16 1 0
vn -2.220446049250313e-16 1 0
vn -2.220446049250313e-16 1 0
vn -2.220446049250313e-16 1 0
vn -2.220446049250313e-16 1 0
vn -2.220446049250313e-16 1 0
vn -2.220446049250313e-16 1 0
vn 1 3.866044141963114e-17 -3.176306884948721e-16
vn 1 -1.521439987603304e-16 -2.1603789106543314e-16
vn 1 -1.5214399876033054e-16 2.160378910654332e-16
vn 1 3.866044141963124e-17 3.176306884948723e-16
vn 1 3.6073056636347734e-16 -1.3196603924954159e-15
vn 1 -1.7120155227636757e-15 -2.1603789106543324e-16
vn 1 -1.7120155227636698e-15 2.1603789106543324e-16
vn 1 3.607305663634769e-16 1.3196603924954167e-15
vn 1 2.220446049250313e-16 -8.881784197001252e-16
vn 1 2.2204460492503165e-16 8.881784197001262e-16
vn 0 0 -1
vn 0 0 1
vn 2.220446049250313e-16 -1 0
vn 2.220446049250313e-16 -1 0
vn 2.220446049250313e-16 -1 0
vn 2.220446049250313e-16 -1 0
vn 2.220446049250313e-16 -1 0
vn 2.220446049250313e-16 -1 0
vn 2.220446049250313e-16 -1 0
vn 2.220446049250313e-16 -1 0
vn 2.220446049250313e-16 -1 0
vn -2.220446049250313e-16 1 0
vn -2.220446049250313e-16 1 0
vn -2.220446049250313e-16 1 0
vn -2.220446049250313e-16 1 0
vn -2.220446049250313e-16 1 0
vn -2.220446049250313e-16 1 0
vn -2.220446049250313e-16 1 0
vn -1 -1.3061447348531256e-17 0
vn -2.220446049250313e-16 1 0
vn -2.220446049250313e-16 1 0
vn -1.1102230246251573e-16 0.5000000000000003 0.8660254037844385
vn -8.659026407028207e-32 3.8996788100083517e-16 1
vn 1.110223024625154e-16 -0.49999999999999883 0.8660254037844395
vn 1.9229626863835655e-16 -0.8660254037844394 0.49999999999999883
vn 2.220446049250313e-16 -1 0
vn 1.9229626863835653e-16 -0.8660254037844393 -0.49999999999999895
vn 1.1102230246251548e-16 -0.4999999999999992 -0.8660254037844392
vn 0 0 -1
vn -1.1102230246251554e-16 0.4999999999999995 -0.8660254037844392
vn -1.9229626863835638e-16 0.8660254037844386 -0.5000000000000002
vn -2.220446049250313e-16 1 0
vn -1.922962686383565e-16 0.8660254037844392 0.49999999999999933
vn 1.6595820688440035e-16 -0.7474093186836611 0.6643638388299183
vn 0.7071067811865457 -0.7071067811865493 0
vn 1.6595820688440035e-16 -0.7474093186836611 -0.6643638388299183
vn 0.7071067811865472 1.225130790717895e-18 -0.7071067811865478
vn -1.6595820688440033e-16 0.747409318683661 0.6643638388299183
vn 0.7474093186836596 2.4818279980069032e-17 -0.6643638388299199
vn -0.7474093186836599 -1.294958829347241e-18 0.6643638388299197
vn 0.7474093186836596 2.4818279980069032e-17 0.6643638388299201
vn -1.6595820688440033e-16 0.747409318683661 -0.6643638388299183
vn 0.707106781186547 0.7071067811865481 0
vn 0.7071067811865479 1.2251307907178953e-18 0.7071067811865472
vn 0.44020438924006733 0.4402043892400676 0.7825855808712289
vn 0.4402043892400664 -0.4402043892400685 0.7825855808712288
vn -0.440204389240068 -0.44020438924006666 0.7825855808712291
vn -0.44020259211194146 0.4402061863653499 0.7825855808687012
vn 0.44020304124858783 0.44020304124858806 -0.7825870973578521
vn -0.4402012441204621 0.4402048383628642 -0.7825870973615153
vn -0.44020438924006655 -0.44020438924006794 -0.7825855808712289
vn 0.44020438924006994 -0.440204389240065 -0.7825855808712289
vn 0.8164965809277254 -0.40824829046386296 0.408248290463865
vn 0.8164965809277264 0.4082482904638628 0.408248290463863
vn 0.8164965809277264 0.4082482904638635 -0.40824829046386235
vn 0.8164965809277254 -0.40824829046386435 -0.40824829046386346
vn -0.7474093186836603 -1.2949588293472407e-18 -0.6643638388299191
usemtl m_2facd6d0-8637-6b21-7410-ca515d8b51af
f 28/37/13 30/38/13 31/39/13 29/40/13
f 26/41/14 28/42/14 29/43/14 27/44/14
f 25/45/15 26/46/15 27/47/15 24/48/15
f 24/49/16 22/50/16 23/51/16 25/52/16
f 22/53/17 21/54/17 20/55/17 23/56/17
f 17/57/18 16/58/18 18/59/18 19/60/18
f 18/61/19 20/62/19 21/63/19 19/64/19
f 15/65/20 14/66/20 45/67/20 44/68/20
f 42/69/21 44/70/21 45/71/21 43/72/21
f 41/73/22 42/74/22 43/75/22 40/76/22
f 40/77/23 39/78/23 38/79/23 41/80/23
f 36/81/24 38/82/24 39/83/24 37/84/24
f 35/85/25 36/86/25 37/87/25 34/88/25
f 34/89/26 33/90/26 32/91/26 35/92/26
f 31/93/27 30/94/27 32/95/27 33/96/27
f 14/97/28 15/98/28 16/99/28 17/100/28
f 77/101/29 75/102/29 68/103/29 67/104/29
f 76/105/30 77/106/30 67/107/30 66/108/30
f 74/109/31 76/110/31 66/111/31 63/112/31
f 63/113/32 62/114/32 187/115/32 74/116/32
f 62/117/33 61/118/33 188/119/33 187/120/33
f 58/121/34 186/122/34 189/123/34 60/124/34
f 189/125/35 188/126/35 61/127/35 60/128/35
f 83/129/36 59/130/36 73/131/36 85/132/36
f 84/133/37 85/134/37 73/135/37 65/136/37
f 82/137/38 84/138/38 65/139/38 69/140/38
f 69/141/39 72/142/39 79/143/39 82/144/39
f 80/145/40 79/146/40 72/147/40 71/148/40
f 81/149/41 80/150/41 71/151/41 70/152/41
f 70/153/42 64/154/42 78/155/42 81/156/42
f 68/157/43 75/158/43 78/159/43 64/160/43
f 59/161/44 83/162/44 186/163/44 58/164/44
f 106/165/45 100/166/45 99/167/45 107/168/45
f 107/169/46 108/170/46 109/171/46 106/172/46
f 129/173/47 146/174/47 108/175/47
f 146/176/48 147/177/48 109/178/48 108/179/48
f 128/180/49 129/181/49 108/182/49 98/183/49
f 113/184/50 112/185/50 98/186/50 101/187/50
f 98/188/51 112/189/51 128/190/51
f 132/191/52 113/192/52 101/193/52
f 143/194/53 105/195/53 100/196/53
f 104/197/54 122/198/54 101/199/54
f 100/200/55 105/201/55 104/202/55 101/203/55
f 133/204/56 132/205/56 101/206/56 109/207/56
f 147/208/57 133/209/57 109/210/57
f 125/211/58 117/212/58 98/213/58
f 116/214/59 126/215/59 99/216/59
f 98/217/60 117/218/60 116/219/60 99/220/60
f 99/221/61 126/222/61 127/223/61 107/224/61
f 127/225/62 120/226/62 107/227/62
f 121/228/63 124/229/63 108/230/63
f 120/231/64 121/232/64 108/233/64 107/234/64
f 98/235/65 108/236/65 124/237/65 125/238/65
f 110/239/66 131/240/66 150/241/66 111/242/66
f 151/243/67 148/244/67 149/245/67 130/246/67
f 101/247/68 122/248/68 123/249/68 109/250/68
f 123/251/69 118/252/69 109/253/69
f 109/254/70 118/255/70 119/256/70 106/257/70
f 119/258/71 144/259/71 106/260/71
f 106/261/72 144/262/72 143/263/72 100/264/72
f 137/265/73 134/266/73 135/267/73 141/268/73
f 103/269/74 102/270/74 142/271/74 136/272/74
f 115/273/75 114/274/75 153/275/75 138/276/75
f 138/277/76 153/278/76 152/279/76 139/280/76
f 145/281/77 140/282/77 139/283/77 152/284/77
f 131/285/78 130/286/78 149/287/78 150/288/78
f 135/289/79 136/290/79 142/291/79 141/292/79
f 100/293/80 163/294/80 159/295/80 167/296/80
f 163/297/81 100/298/81 101/299/81 166/300/81
f 165/301/82 166/302/82 158/303/82 164/304/82
f 101/305/83 158/306/83 166/307/83
f 162/308/84 98/309/84 157/310/84
f 162/311/85 157/312/85 160/313/85 161/314/85
f 155/315/86 156/316/86 99/317/86 154/318/86
f 98/319/87 99/320/87 156/321/87 157/322/87
f 101/323/88 98/324/88 162/325/88 158/326/88
f 184/327/89 182/328/89 183/329/89 185/330/89
f 177/331/90 183/332/90 182/333/90 179/334/90
f 178/335/91 179/336/91 180/337/91 181/338/91
f 178/339/92 177/340/92 179/341/92
f 170/342/93 174/343/93 171/344/93
f 175/345/94 171/346/94 174/347/94 176/348/94
f 168/349/95 169/350/95 172/351/95 173/352/95
f 169/353/96 168/354/96 170/355/96 171/356/96
f 174/357/97 170/358/97 177/359/97 178/360/97
f 96/361/98 191/362/98 97/363/98
f 95/364/99 191/365/99 96/366/99
f 190/367/100 94/368/100 93/369/100
f 190/370/101 93/371/101 92/372/101
f 91/373/102 90/374/102 170/375/102
f 90/376/103 89/377/103 170/378/103
f 88/379/104 87/380/104 177/381/104
f 86/382/105 177/383/105 87/384/105
f 86/385/106 97/386/106 191/387/106 177/388/106
f 190/389/107 92/390/107 91/391/107 170/392/107
f 170/393/108 168/394/108 197/395/108 190/396/108
f 177/397/109 191/398/109 194/399/109 183/400/109
f 194/401/110 220/402/110 223/403/110 225/404/110
f 220/405/111 194/406/111 191/407/111 219/408/111
f 217/409/112 219/410/112 213/411/112 214/412/112
f 191/413/113 213/414/113 219/415/113
f 211/416/114 190/417/114 204/418/114
f 211/419/115 204/420/115 207/421/115 209/422/115
f 201/423/116 202/424/116 197/425/116 199/426/116
f 190/427/117 197/428/117 202/429/117 204/430/117
f 191/431/118 190/432/118 211/433/118 213/434/118
f 222/435/119 221/436/119 195/437/119 224/438/119
f 193/439/120 195/440/120 221/441/120 218/442/120
f 212/443/121 218/444/121 216/445/121 215/446/121
f 212/447/122 193/448/122 218/449/122
f 192/450/123 210/451/123 205/452/123
f 206/453/124 205/454/124 210/455/124 208/456/124
f 212/457/125 210/458/125 196/459/125 195/460/125
f 168/461/126 83/462/126 194/463/126 197/464/126
f 196/465/127 203/466/127 200/467/127 198/468/127
f 205/469/128 203/470/128 196/471/128 192/472/128
f 91/473/129 51/474/129 50/475/129 90/476/129
f 92/477/130 52/478/130 51/479/130 91/480/130
f 93/481/131 53/482/131 52/483/131 92/484/131
f 53/485/132 93/486/132 94/487/132 54/488/132
f 95/489/133 55/490/133 54/491/133 94/492/133
f 55/493/134 95/494/134 96/495/134 56/496/134
f 96/497/135 97/498/135 57/499/135 56/500/135
f 57/501/136 97/502/136 86/503/136 46/504/136
f 86/505/137 87/506/137 47/507/137 46/508/137
f 47/509/138 87/510/138 88/511/138 48/512/138
f 89/513/139 49/514/139 48/515/139 88/516/139
f 50/517/140 49/518/140 89/519/140 90/520/140
f 226/521/141 227/522/141 228/523/141 229/524/141
f 230/525/142 231/526/142 232/527/142 233/528/142
f 234/529/143 235/530/143 236/531/143 237/532/143
f 250/533/144 251/534/144 252/535/144 253/536/144
f 254/537/145 257/538/145 239/539/145 238/540/145
f 258/541/146 259/542/146 247/543/146 246/544/146
f 256/545/147 255/546/147 243/547/147 242/548/147
f 261/549/148 262/550/148 263/551/148 264/552/148
f 260/553/149 265/554/149 241/555/149 240/556/149
f 268/557/150 271/558/150 267/559/150 266/560/150
f 270/561/151 269/562/151 249/563/151 248/564/151
f 239/565/152 257/566/152 261/567/152 264/568/152
f 226/569/153 229/570/153 263/571/153 262/572/153
f 228/573/154 227/574/154 256/575/154 242/576/154
f 254/577/155 238/578/155 243/579/155 255/580/155
f 247/581/156 259/582/156 260/583/156 240/584/156
f 272/585/157 244/586/157 241/587/157 265/588/157
f 234/589/158 237/590/158 245/591/158 273/592/158
f 236/593/159 235/594/159 258/595/159 246/596/159
f 232/597/160 231/598/160 270/599/160 248/600/160
f 268/601/161 266/602/161 249/603/161 269/604/161
f 267/605/162 271/606/162 250/607/162 253/608/162
f 230/609/163 233/610/163 252/611/163 251/612/163
f 272/613/164 273/614/164 245/615/164 244/616/164
o cylinder
v 0.84375 8.375 0
v 0.96875 8.375 0
v 0.84375 8.35766560817565 0.03125
v 0.96875 8.35766560817565 0.03125
v 0.84375 8.340331216351297 2.209531747343556e-18
v 0.96875 8.340331216351297 2.209531747343556e-18
v 0.84375 8.35766560817565 -0.03125
v 0.96875 8.35766560817565 -0.03125
v 0.84375 8.392334391824352 -0.031249999999999997
v 0.96875 8.392334391824352 -0.031249999999999997
v 0.84375 8.409668783648703 -6.6285952420306674e-18
v 0.96875 8.409668783648703 -6.6285952420306674e-18
v 0.84375 8.392334391824352 0.03124999999999999
v 0.96875 8.392334391824352 0.03124999999999999
vt 0.09716875 0.59375
vt 0.0798375 0.625
vt 0.0625 0.59375
vt 0.25 0.6875
vt 0.3125 0.6875
vt 0.3125 0.8125
vt 0.25 0.8125
vt 0.4548375 0.9375
vt 0.47216875 0.96875
vt 0.4375 0.96875
vt 0.0798375 0.5625
vt 0.09716875 0.59375
vt 0.0625 0.59375
vt 0.125 0.6875
vt 0.1875 0.6875
vt 0.1875 0.8125
vt 0.125 0.8125
vt 0.47216875 0.96875
vt 0.4548375 1
vt 0.4375 0.96875
vt 0.0451625 0.5625
vt 0.0798375 0.5625
vt 0.0625 0.59375
vt 0 0.875
vt 0.0625 0.875
vt 0.0625 1
vt 0 1
vt 0.4548375 1
vt 0.4201625 1
vt 0.4375 0.96875
vt 0.027831250000000002 0.59375
vt 0.0451625 0.5625
vt 0.0625 0.59375
vt 0.25 0.875
vt 0.3125 0.875
vt 0.3125 1
vt 0.25 1
vt 0.4201625 1
vt 0.40283125 0.96875
vt 0.4375 0.96875
vt 0.0451625 0.625
vt 0.027831250000000002 0.59375
vt 0.0625 0.59375
vt 0 0.6875
vt 0.0625 0.6875
vt 0.0625 0.8125
vt 0 0.8125
vt 0.40283125 0.96875
vt 0.4201625 0.9375
vt 0.4375 0.96875
vt 0.0798375 0.625
vt 0.0451625 0.625
vt 0.0625 0.59375
vt 0.125 0.875
vt 0.1875 0.875
vt 0.1875 1
vt 0.125 1
vt 0.4201625 0.9375
vt 0.4548375 0.9375
vt 0.4375 0.96875
vn -1 -2.220446049250313e-16 0
vn 1.94172346041391e-16 -0.8744745052776635 0.48507147887644986
vn 1 2.220446049250313e-16 0
vn -1 -2.220446049250313e-16 0
vn 1.9417234604139096e-16 -0.8744745052776633 -0.48507147887644975
vn 1 2.220446049250313e-16 0
vn -1 -2.220446049250313e-16 0
vn -2.2220911629350165e-32 1.0007408933377412e-16 -1
vn 1 2.220446049250313e-16 0
vn -1 -2.220446049250313e-16 0
vn -1.94172346041391e-16 0.8744745052776635 -0.4850714788764497
vn 1 2.220446049250313e-16 0
vn -1 -2.220446049250313e-16 0
vn -1.9417234604139104e-16 0.8744745052776637 0.48507147887644936
vn 1 2.220446049250313e-16 0
vn -1 -2.220446049250313e-16 0
vn -6.666273488805048e-32 3.002222680013223e-16 1
vn 1 2.220446049250313e-16 0
usemtl m_56384011-e919-e0b4-412d-9ac4eb134789
f 278/617/165 276/618/165 274/619/165
f 276/620/166 278/621/166 279/622/166 277/623/166
f 277/624/167 279/625/167 275/626/167
f 280/627/168 278/628/168 274/629/168
f 278/630/169 280/631/169 281/632/169 279/633/169
f 279/634/170 281/635/170 275/636/170
f 282/637/171 280/638/171 274/639/171
f 280/640/172 282/641/172 283/642/172 281/643/172
f 281/644/173 283/645/173 275/646/173
f 284/647/174 282/648/174 274/649/174
f 282/650/175 284/651/175 285/652/175 283/653/175
f 283/654/176 285/655/176 275/656/176
f 286/657/177 284/658/177 274/659/177
f 284/660/178 286/661/178 287/662/178 285/663/178
f 285/664/179 287/665/179 275/666/179
f 276/667/180 286/668/180 274/669/180
f 286/670/181 276/671/181 277/672/181 287/673/181
f 287/674/182 277/675/182 275/676/182
o minute hand
v 0.96875 9.324999999999994 0.09843749999999839
v 0.96875 8.137500000000006 0.09843749999999878
v 0.96875 9.324999999999994 -0.08906249999999923
v 0.96875 8.137500000000006 -0.08906249999999889
vt 0 0
vt 1 0.001388888888888773
vt 1 1
vt 0 1
vn 1 0 0
usemtl m_fd13caab-ef9d-7062-019c-ea667eac2bd3
f 288/677/183 289/678/183 291/679/183 290/680/183
o hour hand
v 0.9718750000000002 8.815624999999994 0.09843749999999839
v 0.9718750000000002 8.253125000000006 0.09843749999999878
v 0.9718750000000002 8.815624999999994 -0.08906249999999923
v 0.9718750000000002 8.253125000000006 -0.08906249999999889
vt 0 0
vt 1 0.001388888888888773
vt 1 1
vt 0 1
vn 1 0 0
usemtl m_403a0e9d-d1e5-fdf0-6a4d-e07d72c1f82b
f 292/681/184 293/682/184 295/683/184 294/684/184