# Blender 4.1.1
# www.blender.org
mtllib clock from blender.mtl
o Cube
v -1.000000 -1.000000 1.300000
v -1.000000 7.000000 1.300000
v -1.000000 -1.000000 -1.300000
v -1.000000 7.000000 -1.300000
v 1.000000 7.000000 -1.300000
v 1.000000 -1.000000 -1.300000
v 1.000000 7.000000 1.300000
v 1.000000 -1.000000 1.300000
v 0.527525 6.650000 -1.200000
v 0.650000 6.527525 -1.200000
v 0.650000 -0.527525 -1.200000
v 0.527525 -0.650000 -1.200000
v 0.650000 6.527525 1.200000
v 0.527525 6.650000 1.200000
v 0.527525 -0.650000 1.200000
v 0.650000 -0.527525 1.200000
v -0.650000 6.527525 -1.200000
v -0.527525 6.650000 -1.200000
v -0.527525 -0.650000 -1.200000
v -0.650000 -0.527525 -1.200000
v -0.527525 6.650000 1.200000
v -0.650000 6.527525 1.200000
v -0.650000 -0.527525 1.200000
v -0.527525 -0.650000 1.200000
v 0.900000 6.650000 0.827525
v 0.900000 6.527525 0.950000
v 0.900000 -0.527525 0.950000
v 0.900000 -0.650000 0.827525
v 0.900000 -0.650000 -0.827525
v 0.900000 -0.527525 -0.950000
v 0.900000 6.527525 -0.950000
v 0.900000 6.650000 -0.827525
v -0.627525 -0.750000 1.300000
v -0.750000 -0.627526 1.300000
v -0.820711 -0.820711 1.300000
v -0.750000 6.627525 1.300000
v -0.627525 6.750000 1.300000
v -0.820711 6.820711 1.300000
v 0.627525 6.750000 1.300000
v 0.750000 6.627525 1.300000
v 0.820711 6.820711 1.300000
v 0.750000 -0.627526 1.300000
v 0.627525 -0.750000 1.300000
v 0.820711 -0.820711 1.300000
v 0.627525 -0.750000 -1.300000
v 0.750000 -0.627526 -1.300000
v 0.820711 -0.820711 -1.300000
v -0.750000 -0.627526 -1.300000
v -0.627525 -0.750000 -1.300000
v -0.820711 -0.820711 -1.300000
v 0.750000 6.627525 -1.300000
v 0.627525 6.750000 -1.300000
v 0.820711 6.820711 -1.300000
v -0.627525 6.750000 -1.300000
v -0.750000 6.627525 -1.300000
v -0.820711 6.820711 -1.300000
v 1.000000 6.750000 -0.927525
v 1.000000 6.627525 -1.050000
v 1.000000 6.820711 -1.120711
v 1.000000 -0.627525 -1.050000
v 1.000000 -0.750000 -0.927525
v 1.000000 -0.820711 -1.120711
v 1.000000 6.627525 1.050000
v 1.000000 6.750000 0.927525
v 1.000000 6.820711 1.120711
v 1.000000 -0.750000 0.927525
v 1.000000 -0.627525 1.050000
v 1.000000 -0.820711 1.120711
vn -0.0000 1.0000 -0.0000
vn -0.0000 -0.7071 0.7071
vn -1.0000 -0.0000 -0.0000
vn -0.0000 -1.0000 -0.0000
vn 0.7071 -0.7071 -0.0000
vn -0.0000 -0.7071 -0.7071
vn -0.0000 -0.0000 1.0000
vn -0.0000 -0.0000 -1.0000
vn 1.0000 -0.0000 -0.0000
vn 0.7071 -0.0000 -0.7071
vn -0.0000 0.7071 0.7071
vn -0.7071 -0.0000 0.7071
vn 0.7071 -0.0000 0.7071
vn -0.0000 0.7071 -0.7071
vn 0.7071 0.7071 -0.0000
vn 0.4082 0.4082 0.8165
vn 0.4082 -0.4082 0.8165
vn -0.4082 -0.4082 0.8165
vn -0.4082 0.4082 0.8165
vn 0.4082 0.4082 -0.8165
vn -0.4082 0.4082 -0.8165
vn -0.4082 -0.4082 -0.8165
vn 0.4082 -0.4082 -0.8165
vn 0.8165 -0.4082 0.4082
vn 0.8165 0.4082 0.4082
vn 0.8165 0.4082 -0.4082
vn 0.8165 -0.4082 -0.4082
vn -0.7071 -0.0000 -0.7071
vt 0.625000 0.500000
vt 0.875000 0.500000
vt 0.875000 0.750000
vt 0.625000 0.750000
vt 0.614063 0.940941
vt 0.614063 0.809059
vt 0.617188 0.796559
vt 0.617188 0.953441
vt 0.375000 0.000000
vt 0.625000 0.000000
vt 0.625000 0.250000
vt 0.375000 0.250000
vt 0.125000 0.500000
vt 0.375000 0.500000
vt 0.375000 0.750000
vt 0.125000 0.750000
vt 0.614063 0.704570
vt 0.614063 0.545430
vt 0.617188 0.535815
vt 0.617188 0.714185
vt 0.614063 0.440941
vt 0.614063 0.309059
vt 0.617188 0.296559
vt 0.617188 0.453441
vt 0.380603 0.772411
vt 0.382812 0.796559
vt 0.382812 0.953441
vt 0.380603 0.977589
vt 0.375000 1.000000
vt 0.380603 0.272411
vt 0.382812 0.296559
vt 0.382812 0.453441
vt 0.380603 0.477589
vt 0.619397 0.772411
vt 0.613360 0.781250
vt 0.386640 0.781250
vt 0.619397 0.977589
vt 0.625000 1.000000
vt 0.386640 0.468750
vt 0.613360 0.468750
vt 0.619397 0.477589
vt 0.619397 0.272411
vt 0.613360 0.281250
vt 0.386640 0.281250
vt 0.617188 0.296559
vt 0.619397 0.517239
vt 0.613360 0.524038
vt 0.386640 0.524038
vt 0.380603 0.517239
vt 0.389765 0.716346
vt 0.610235 0.716346
vt 0.613360 0.725962
vt 0.386640 0.725962
vt 0.385938 0.809059
vt 0.389765 0.793750
vt 0.610235 0.793750
vt 0.614062 0.809059
vt 0.610235 0.956250
vt 0.389765 0.956250
vt 0.385938 0.940941
vt 0.385938 0.809059
vt 0.385938 0.940941
vt 0.610235 0.293750
vt 0.389765 0.293750
vt 0.610235 0.793750
vt 0.385938 0.309059
vt 0.610235 0.293750
vt 0.614062 0.309059
vt 0.614063 0.440941
vt 0.610235 0.456250
vt 0.389765 0.456250
vt 0.385938 0.440941
vt 0.610235 0.956250
vt 0.613360 0.968750
vt 0.386640 0.968750
vt 0.385938 0.309059
vt 0.385938 0.440941
vt 0.382812 0.453441
vt 0.619397 0.732761
vt 0.382812 0.535815
vt 0.382812 0.714185
vt 0.380603 0.732761
vt 0.613360 0.725962
vt 0.613360 0.968750
vt 0.385937 0.545430
vt 0.389765 0.533654
vt 0.610235 0.533654
vt 0.614063 0.704570
vt 0.610235 0.716346
vt 0.385937 0.704570
vt 0.382812 0.714185
vt 0.382812 0.535815
vt 0.610235 0.533654
vt 0.384726 0.968750
vt 0.617188 0.961095
vt 0.615274 0.781250
vt 0.382813 0.788905
vt 0.384726 0.468750
vt 0.382813 0.288905
vt 0.617188 0.461095
vt 0.615274 0.281250
vt 0.615274 0.524038
vt 0.382812 0.529927
vt 0.617188 0.720073
vt 0.384726 0.725962
vt 0.610235 0.456250
s 0
usemtl Material
f 5/1/1 4/2/1 2/3/1 7/4/1
f 21/5/2 14/6/2 39/7/2 37/8/2
f 1/9/3 2/10/3 4/11/3 3/12/3
f 3/13/4 6/14/4 8/15/4 1/16/4
f 25/17/5 32/18/5 57/19/5 64/20/5
f 9/21/6 18/22/6 54/23/6 52/24/6
f 44/25/7 43/26/7 33/27/7 35/28/7 1/29/7 8/15/7
f 50/30/8 49/31/8 45/32/8 47/33/8 6/14/8 3/12/8
f 41/34/7 40/35/7 42/36/7 44/25/7 8/15/7 7/4/7
f 38/37/7 37/8/7 39/7/7 41/34/7 7/4/7 2/38/7
f 47/33/8 46/39/8 51/40/8 53/41/8 5/1/8 6/14/8
f 56/42/8 55/43/8 48/44/8 50/30/8 3/12/8 4/11/8
f 53/41/8 52/24/8 54/45/8 56/42/8 4/11/8 5/1/8
f 59/46/9 58/47/9 60/48/9 62/49/9 6/14/9 5/1/9
f 27/50/10 26/51/10 63/52/10 67/53/10
f 15/54/7 16/55/7 13/56/7 14/57/7 21/5/7 22/58/7 23/59/7 24/60/7
f 15/61/11 24/62/11 33/27/11 43/26/11
f 17/63/10 20/64/10 48/44/10 55/43/10
f 13/65/12 16/55/12 42/36/12 40/35/12
f 19/66/8 20/64/8 17/67/8 18/68/8 9/69/8 10/70/8 11/71/8 12/72/8
f 23/59/13 22/73/13 36/74/13 34/75/13
f 19/76/14 12/77/14 45/78/14 49/31/14
f 65/79/9 64/20/9 57/19/9 59/46/9 5/1/9 7/4/9
f 62/49/9 61/80/9 66/81/9 68/82/9 8/15/9 6/14/9
f 68/82/9 67/53/9 63/83/9 65/79/9 7/4/9 8/15/9
f 35/28/7 34/75/7 36/84/7 38/37/7 2/38/7 1/29/7
f 29/85/9 30/86/9 31/87/9 32/18/9 25/88/9 26/89/9 27/50/9 28/90/9
f 29/85/15 28/90/15 66/91/15 61/92/15
f 31/93/13 30/86/13 60/48/13 58/47/13
f 33/27/7 34/94/7 35/28/7
f 36/74/7 37/95/7 38/37/7
f 39/7/7 40/96/7 41/34/7
f 42/36/7 43/97/7 44/25/7
f 45/78/8 46/98/8 47/33/8
f 48/44/8 49/99/8 50/30/8
f 51/40/8 52/100/8 53/41/8
f 54/23/8 55/101/8 56/42/8
f 57/19/9 58/102/9 59/46/9
f 60/48/9 61/103/9 62/49/9
f 63/52/9 64/104/9 65/79/9
f 66/91/9 67/105/9 68/82/9
f 33/27/16 24/62/16 23/59/16 34/75/16
f 21/5/17 37/8/17 36/74/17 22/73/17
f 39/7/18 14/6/18 13/65/18 40/35/18
f 15/61/19 43/26/19 42/36/19 16/55/19
f 48/44/20 20/64/20 19/76/20 49/31/20
f 11/71/21 46/39/21 45/78/21 12/77/21
f 9/21/22 52/24/22 51/40/22 10/106/22
f 54/23/23 18/22/23 17/63/23 55/43/23
f 57/19/24 32/18/24 31/93/24 58/47/24
f 29/85/25 61/92/25 60/48/25 30/86/25
f 66/91/26 28/90/26 27/50/26 67/53/26
f 25/17/27 64/20/27 63/52/27 26/51/27
f 11/71/28 10/106/28 51/40/28 46/39/28
