# File produced by Open Asset Import Library (http://www.assimp.sf.net)
# (assimp v5.3.1186045126)

mtllib small double.obj.mtl

# 27 vertex positions
v 100 1.8189894e-10 5.76204548e-06
v 125 1.48609125e-10 43.3012772
v 0 0 0
v 49.9999962 -6.65750094e-11 86.6000061
v 99.9999924 2.43744608e-11 86.6000061
v 99.9999924 45 86.6000061
v 125 45 43.3012772
v 49.9999962 45 86.6000061
v 100 45 5.76204548e-06
v 0 45 0
v 49.9999962 1.8189894e-10 86.6025467
v 24.9999924 1.48609125e-10 129.903809
v -49.9978027 -6.65750094e-11 86.601265
v -24.9978104 2.43744608e-11 129.902542
v -24.9978104 45 129.902542
v 24.9999924 45 129.903809
v -49.9978027 45 86.601265
v 49.9999962 45 86.6025467
v 93.75 1.63709046e-10 6.49531698
v 116.25 1.33748207e-10 45.4664612
v 3.75 0 6.49531174
v 48.7499962 1.63709046e-10 84.4376068
v 26.2499924 1.33748207e-10 123.408737
v 48.7499962 -5.99175085e-11 84.435318
v 93.7499924 2.19370147e-11 84.435318
v -41.2480202 -5.99175085e-11 84.4364471
v -18.7480278 2.19370147e-11 123.407593

# 14 UV coordinates
vt 0.015625 0.972937524 0
vt 0 1 0
vt 0.078125 0.972937524 0
vt 0.03125 1 0
vt 0.0625 0.945874989 0
vt 1.11716192e-15 0.994095266 0
vt 0.0306863766 1 0
vt 0.0306863766 0.917321324 0
vt 0.0312437508 1 0
vt 0.0312437508 0.975000024 0
vt 0 0.975000024 0
vt 0.03125 0.975000024 0
vt 0.0625 1 0
vt 0.0625 0.975000024 0

# 20 vertex normals
vn 1.8189894e-12 -1 -1.8189893e-12
vn 2.15188761e-12 -1 -5.76596442e-13
vn 2.15188761e-12 -1 -5.7659655e-13
vn 1.81898962e-12 -1 -1.8189893e-12
vn 0.499988973 0 0.866031826
vn 1 0 1.27858229e-05
vn 0.499999881 0 0.866025448
vn 0.5 0 -0.866025329
vn -0.500005484 0 -0.866022229
vn 2.48478581e-12 -1 6.65796519e-13
vn 2.48478581e-12 -1 6.65796574e-13
vn -0.500011027 0 0.86601907
vn 0.499988943 0 0.866031826
vn -0.99999994 0 6.24450104e-06
vn 1.63709042e-12 -0.899999976 -1.63709031e-12
vn 1.93669885e-12 -0.899999976 -5.18936727e-13
vn 1.93669885e-12 -0.899999976 -5.1893689e-13
vn 2.23630728e-12 -0.899999976 5.99216857e-13
vn 1.63709053e-12 -0.899999976 -1.63709031e-12
vn 2.23630728e-12 -0.899999976 5.99216911e-13

# Mesh '' with 22 faces
usemtl Material: DefaultMaterial
f  1/1/1 2/2/1 3/3/2
f  4/4/3 3/5/2 5/2/4
f  2/6/1 5/7/4 3/8/2
f  6/9/5 5/10/5 2/11/6
f  7/2/6 6/9/5 2/11/6
f  8/4/7 4/12/7 5/11/5
f  6/2/5 8/4/7 5/11/5
f  9/13/8 1/14/8 3/11/9
f  10/2/9 9/13/8 3/11/9
f  7/4/6 2/12/6 1/11/8
f  9/2/8 7/4/6 1/11/8
f  11/1/3 12/2/10 3/3/2
f  13/4/11 3/5/2 14/2/11
f  12/6/10 14/7/11 3/8/2
f  15/9/12 14/10/12 12/11/13
f  16/2/13 15/9/12 12/11/13
f  17/4/14 13/12/14 14/11/12
f  15/2/12 17/4/14 14/11/12
f  10/13/9 3/14/9 13/11/14
f  17/2/14 10/13/9 13/11/14
f  16/4/13 12/12/13 11/11/7
f  18/2/7 16/4/13 11/11/7

# Mesh '' with 6 faces
usemtl Material: DefaultMaterial
f  19/1/15 20/2/15 21/3/16
f  22/1/17 23/2/18 21/3/16
f  24/4/17 21/5/16 25/2/19
f  26/4/20 21/5/16 27/2/20
f  20/6/15 25/7/19 21/8/16
f  23/6/18 27/7/20 21/8/16

