# Made in Blockbench 4.9.4
mtllib fdsa.mtl

o circle
v 0 0 0
v 0.13397459621556132 0 0.49999999999999994
v 0.3660254037844386 0 0.36602540378443865
v 0.49999999999999994 0 0.13397459621556132
v 0.49999999999999994 0 -0.13397459621556138
v 0.36602540378443865 0 -0.3660254037844386
v 0.1339745962155615 0 -0.4999999999999999
v -0.13397459621556113 0 -0.5
v -0.3660254037844386 0 -0.3660254037844387
v -0.49999999999999994 0 -0.13397459621556126
v -0.5 0 0.1339745962155611
v -0.3660254037844387 0 0.36602540378443854
v -0.1339745962155613 0 0.49999999999999994
vt 5.551115123125783e-17 0.48236248083238786
vt 0.25881875958380607 0.5517119783972586
vt 0 1
vt 0.5 0.73205
vt 0.5 1
vt 0 0.866025
vt 0.5176381947122913 0.7411815781880927
vt 0.44828743656363346 1
vt 0 0.7411815781880928
vt 0.5176375191676121 0.7411812404161939
vt 0.44828802160274145 1
vt 0 0.7411812404161939
vt 0.26795 1
vt 0 1
vt 0.133975 0.5
vt 0.2588184218119073 1
vt 0 0.9306492418513421
vt 0.2588184218119072 0.48236180528770867
vt 0.258818759583806 1
vt 0 0.9306505024351293
vt 0.25881875958380607 0.48236248083238786
vt 0 1
vt 0 0.73205
vt 0.5 0.866025
vt 0 1
vt 0.06935075814865788 0.7411815781880927
vt 0.5176381947122913 0.9999999999999999
vt 0 1
vt 0.06934949756487069 0.7411812404161939
vt 0.5176375191676121 1
vt 0 0.5
vt 0.26795 0.5
vt 0.133975 1
vt 0 0.48236180528770867
vt 0.2588184218119073 0.5517125634363665
vt 8.326672684688674e-17 1
vn 0 1 0
vn 0 1 0
vn 0 1 0
vn 0 1 0
vn 0 1 0
vn 0 1 0
vn 0 1 0
vn 0 1 0
vn 0 1 0
vn 0 1 0
vn 0 1 0
vn 0 1 0
usemtl none
f 3/1/1 4/2/1 1/3/1
f 4/4/2 5/5/2 1/6/2
f 5/7/3 6/8/3 1/9/3
f 6/10/4 7/11/4 1/12/4
f 7/13/5 8/14/5 1/15/5
f 8/16/6 9/17/6 1/18/6
f 9/19/7 10/20/7 1/21/7
f 10/22/8 11/23/8 1/24/8
f 11/25/9 12/26/9 1/27/9
f 12/28/10 13/29/10 1/30/10
f 13/31/11 2/32/11 1/33/11
f 2/34/12 3/35/12 1/36/12