# Made in Blockbench 4.9.4
mtllib TREE STUFF.mtl

o Icosphere_selection
v 0.109375 0.125 0.03937492207021735
v -0.053125 0.125 -0.109375
v -0.24687500000000015 0.125 -0.03687504453130438
v -0.23176801796660426 0.140625 0.1725042124354832
v -0.026525602329840234 0.125 0.24479218207630216
v -0.0907570769315842 0.875 0.20919975498193247
v -0.020916276307226048 0.875 -0.04251044918989366
v 0.059136848114767465 0.875 0.10302094912427354
v -0.22093522421078418 0.890625 0.09900459980037934
v -0.21848490166243784 0.875 -0.04790843726433722
v -0.30223703360348375 0.015454429252160118 0.23977684812794378
v 0.013520528914614749 -0.00017057074783988213 0.3567132046300908
v 0.2225983786528305 -0.00017057074783988213 0.02442076278784651
v -0.027401621347169502 -0.00017057074783988213 -0.21620397744621134
v -0.4024016213471695 -0.00017057074783988213 -0.07870412588389258
v -0.02130977096662938 2.0001252122361213 -0.05606071041193762
v 0.013637174249621187 2.0001252122361213 0.03265790202370999
v -0.13278039434622302 2.0157502122361213 0.11415562472588257
v -0.1758426100833575 2.0001252122361213 0.024210647561203284
v -0.034326888228947826 2.0001252122361213 0.1374458410156454
v -0.12012555935483112 1.9998786669081767 -0.09446483115228065
v -0.07633842493553897 2.8089186692571655 0.12306975362655101
v -0.15838482423097233 2.8245436692571655 0.0638758738393418
v -0.13249867138971716 2.8089186692571655 -0.08257664613883296
v -0.03713542543914426 2.8089186692571655 -0.0663505535307926
v 0.008075198848400952 2.8089186692571655 0.044613373597332945
vt 1.125202903981572 0.8912929341739955
vt 1.125202903981572 0.9973119643790724
vt 0 1
vt 0 -0.1251437499999999
vt 0.1661 -0.1251437499999999
vt 0.17815625000000002 1
vt 0.08358125000000001 0.9999312499999999
vt 0.08186079043581397 -0.127166641654878
vt 0.13110647658725713 1
vt 0 0.9999999999999998
vt 0.0027816220934912504 -0.11588835007995035
vt 0.30751416068253234 1
vt 0.2066819365960033 0.9954357572011892
vt 0 -0.11371258510879612
vt 0.13799317932080013 -0.11371258510879612
vt 1.1254070038476682 0.8976317598004024
vt 1.1254070038476682 1
vt 0 0.9150845025555399
vt 0.0068070050970290286 0.763851432112361
vt 0 -0.1282375
vt 0.1836875 -0.1282375
vt 0.18723125 1
vt 0.08752499999999999 0.9957125
vt 0 0.8450187499999999
vt 0.3994125 0.8450187499999999
vt 0.31903750000000003 0.99765
vt 0.06092500000000001 1
vt 0.346875 0.84215
vt 0.29371875 1
vt 0.07341874999999999 1
vt 0 0.84744375
vt 0.39249375 0.84803125
vt 0.31755 1
vt 0.07124375 1
vt 0 0.8429375
vt 0.29631844312547173 0.7215692391569514
vt 0.29631844312547173 0.89419187513823
vt 0.10553404457867999 1
vt 0 0.8819697899945624
vt 0.3342219769596436 0.8457890788207028
vt 0.29708344680772375 1
vt 0.08923615815639131 0.9933967492397905
vt 0 0.8457890788207028
vt 0.2186653577721662 1
vt 0.0646879998333689 1
vt 0 0.2521717878127472
vt 0.20961590480045816 0.24719556764224926
vt 0 1
vt 1.3877787807814457e-16 0.2463255866827756
vt 0.2172725722726319 0.2266746483566675
vt 0.15855107288303444 0.9755714525961184
vt 0.1835234951965697 0.9922395639887494
vt 1.3877787807814457e-16 1
vt 0 0.24641466371584686
vt 0.22976332381199235 0.24453718836899174
vt 0.24020625 0.24998750000000003
vt 0.1661 1
vt 0 1
vt 0.03155625000000001 0.24961250000000001
vt 0.1974422303679786 0.9910771315497434
vt 0 1
vt 2.220446049250313e-16 0.24633780815668982
vt 0.19180585568184733 0.24448911362623016
vt 0.13110648835607833 0.19096326621831983
vt 0.017561491109686068 1
vt 0 0.19096326621831983
vt 0.09673749999999999 1
vt 0 1
vt 0.08653124999999999 0.19084374999999998
vt 0.105377356601069 1
vt 0 0.19787487300521778
vt 0.105377356601069 0.18622809313281796
vt 0 1
vt 0.0219281312806784 0.18333006127545604
vt 0.1224890342979649 0.19203199954577244
vt 0.12248903429796482 0.9982367155463439
vt 0.10001084234371568 0.9781531840575002
vt 1.3877787807814457e-16 1
vt 0 0.18924117478978397
vt 0.09259607405356926 0.16910535278822625
vt 0.11524374999999999 1
vt 0 1
vt 0.020987499999999992 0.19025625000000002
vt 0.12745625 0.19238749999999993
vt 0.10431875 0.19113749999999996
vt 0.11981875 1
vt 0 1
vt 0.008974999999999997 0.19114999999999993
vn 0.36224938064706314 -0.011097880744764102 -0.9320151411129513
vn 0.876175066953455 -0.005497997793673405 -0.4819616416991809
vn -0.9034420035641514 0.06143663840028371 -0.4242853823289992
vn -0.9023835793322755 0.006581296291226312 0.4308834671817868
vn -0.22947179310006674 0.00487279733601595 0.9733031141517848
vn 0.5764381258788377 0.07420215616384365 0.8137647860739184
vn -0.27652856206527004 0.5956174434500616 -0.7541696197939338
vn 0.5354289415033469 0.6092465080694587 -0.5849226795105287
vn 0.6869382218591362 0.5670765704190224 0.4544667673557747
vn -0.2216504473093796 0.6096084569617904 0.7610838379628205
vn -0.8653005973655324 0.5006258205913858 0.025073172038145894
vn -0.9990826149853822 0.03751490302234264 -0.020653340775652215
vn -0.32407029160589435 0.09690387215604186 0.9410568982052234
vn 0.5757948796774697 0.08788759638655806 0.8128567075066809
vn 0.8761758129587861 0.0053408952699706335 -0.4819620520577584
vn 0.027206884855733658 0.08760841300957588 -0.9957833857754359
vn -0.9051809844529085 -0.007599032996476533 -0.42495839806077707
vn 0.167715198478011 0.01704884913887385 -0.9856880586384932
vn 0.36225385175262725 -0.004769971435031877 -0.9320672691726143
vn -0.9040057625234755 0.10322314116333718 0.41487174458225434
vn -0.580747385748265 0.03218402223707341 0.8134473939101406
vn 0.6799925103781829 0.048325603743259775 0.7316247821475339
vn 0.926001178171861 0.013319055689483687 -0.3772855957757542
usemtl none
f 21/1/1 16/2/1 7/3/1
f 8/4/2 7/5/2 16/6/2 17/7/2
f 10/8/3 19/9/3 21/10/3 7/11/3
f 18/12/4 19/13/4 10/14/4 9/15/4
f 20/16/5 18/17/5 9/18/5 6/19/5
f 6/20/6 8/21/6 17/22/6 20/23/6
f 14/24/7 15/25/7 3/26/7 2/27/7
f 14/28/8 2/29/8 1/30/8 13/31/8
f 13/32/9 1/33/9 5/34/9 12/35/9
f 12/36/10 5/37/10 4/38/10 11/39/10
f 11/40/11 4/41/11 3/42/11 15/43/11
f 9/44/12 10/45/12 3/46/12 4/47/12
f 9/48/13 4/49/13 5/50/13 6/51/13
f 8/52/14 6/53/14 5/54/14 1/55/14
f 2/56/15 7/57/15 8/58/15 1/59/15
f 10/60/16 7/61/16 2/62/16 3/63/16
f 19/64/17 24/65/17 21/66/17
f 24/67/18 25/68/18 21/69/18
f 25/70/19 16/71/19 21/72/19
f 24/73/20 19/74/20 18/75/20 23/76/20
f 22/77/21 23/78/21 18/79/21 20/80/21
f 26/81/22 22/82/22 20/83/22 17/84/22
f 16/85/23 25/86/23 26/87/23 17/88/23