# Blender 4.3.2
# www.blender.org
mtllib skysphere.mtl
o cube
v 0.500000 1.500000 0.500000
v 0.500000 1.500000 -0.500000
v 0.500000 0.500000 0.500000
v 0.500000 0.500000 -0.500000
v -0.500000 1.500000 0.500000
v -0.500000 1.500000 -0.500000
v -0.500000 0.500000 0.500000
v -0.500000 0.500000 -0.500000
v 0.535118 0.464882 0.418850
v 0.572933 0.427067 0.296650
v 0.599636 0.400365 0.153401
v 0.609568 0.390432 -0.000000
v 0.599636 0.400365 -0.153401
v 0.572933 0.427067 -0.296650
v 0.535118 0.464882 -0.418850
v 0.535118 1.418849 -0.535118
v 0.572933 1.296650 -0.572933
v 0.599636 1.153401 -0.599636
v 0.609568 1.000000 -0.609568
v 0.599636 0.846599 -0.599636
v 0.572933 0.703350 -0.572933
v 0.535118 0.581150 -0.535118
v 0.535118 1.535118 0.418849
v 0.572933 1.572933 0.296650
v 0.599636 1.599636 0.153401
v 0.609568 1.609568 -0.000000
v 0.599636 1.599636 -0.153401
v 0.572933 1.572933 -0.296650
v 0.535118 1.535118 -0.418850
v 0.535118 1.418850 0.535118
v 0.572933 1.296650 0.572933
v 0.599636 1.153401 0.599635
v 0.609568 1.000000 0.609568
v 0.599636 0.846599 0.599635
v 0.572933 0.703350 0.572933
v 0.535118 0.581151 0.535118
v -0.535118 0.464882 0.418850
v -0.572933 0.427067 0.296650
v -0.599636 0.400365 0.153401
v -0.609568 0.390432 -0.000000
v -0.599636 0.400365 -0.153401
v -0.572933 0.427067 -0.296650
v -0.535118 0.464882 -0.418850
v -0.535118 1.418849 0.535118
v -0.572933 1.296650 0.572933
v -0.599636 1.153401 0.599635
v -0.609568 1.000000 0.609568
v -0.599636 0.846599 0.599635
v -0.572933 0.703350 0.572933
v -0.535118 0.581151 0.535118
v -0.535118 1.535118 0.418849
v -0.572933 1.572933 0.296650
v -0.599636 1.599636 0.153401
v -0.609568 1.609568 -0.000000
v -0.599636 1.599636 -0.153401
v -0.572933 1.572933 -0.296650
v -0.535118 1.535118 -0.418850
v -0.535118 1.418850 -0.535118
v -0.572933 1.296650 -0.572933
v -0.599636 1.153401 -0.599636
v -0.609568 1.000000 -0.609568
v -0.599636 0.846599 -0.599636
v -0.572933 0.703350 -0.572933
v -0.535118 0.581150 -0.535118
v 0.418850 1.535118 0.535118
v 0.296650 1.572933 0.572933
v 0.153401 1.599636 0.599635
v 0.000000 1.609568 0.609568
v -0.153401 1.599636 0.599635
v -0.296650 1.572933 0.572933
v -0.418850 1.535118 0.535118
v 0.418850 1.535118 -0.535118
v 0.296650 1.572933 -0.572933
v 0.153401 1.599636 -0.599636
v 0.000000 1.609568 -0.609568
v -0.153401 1.599636 -0.599636
v -0.296650 1.572933 -0.572933
v -0.418850 1.535118 -0.535118
v 0.418850 0.464882 -0.535118
v 0.296650 0.427067 -0.572933
v 0.153401 0.400364 -0.599636
v 0.000000 0.390432 -0.609568
v -0.153401 0.400364 -0.599636
v -0.296650 0.427067 -0.572933
v -0.418850 0.464882 -0.535118
v 0.418850 0.464882 0.535118
v 0.296650 0.427067 0.572933
v 0.153401 0.400365 0.599636
v 0.000000 0.390432 0.609568
v -0.153401 0.400365 0.599635
v -0.296650 0.427067 0.572933
v -0.418850 0.464882 0.535118
v 0.610461 0.568241 -0.431759
v 0.664133 0.697017 -0.455302
v 0.698026 0.843909 -0.474400
v 0.709949 1.000000 -0.481988
v 0.698026 1.156091 -0.474400
v 0.664133 1.302983 -0.455302
v 0.610461 1.431759 -0.431759
v 0.664133 0.544698 -0.302983
v 0.728990 0.683843 -0.316157
v 0.768442 0.838085 -0.328070
v 0.781829 1.000000 -0.333141
v 0.768442 1.161916 -0.328070
v 0.728990 1.316157 -0.316157
v 0.664133 1.455302 -0.302983
v 0.698026 0.525600 -0.156091
v 0.768442 0.671930 -0.161916
v 0.810862 0.832418 -0.167582
v 0.825063 1.000000 -0.170115
v 0.810862 1.167582 -0.167582
v 0.768442 1.328070 -0.161916
v 0.698026 1.474400 -0.156091
v 0.709949 0.518012 -0.000000
v 0.781829 0.666860 -0.000000
v 0.825063 0.829885 -0.000000
v 0.839506 1.000000 -0.000000
v 0.825063 1.170115 -0.000000
v 0.781829 1.333140 -0.000000
v 0.709949 1.481988 -0.000000
v 0.698026 0.525600 0.156091
v 0.768442 0.671930 0.161915
v 0.810862 0.832418 0.167582
v 0.825063 1.000000 0.170115
v 0.810862 1.167582 0.167582
v 0.768442 1.328070 0.161915
v 0.698026 1.474400 0.156091
v 0.664133 0.544698 0.302983
v 0.728990 0.683843 0.316157
v 0.768442 0.838085 0.328070
v 0.781829 1.000000 0.333140
v 0.768442 1.161916 0.328070
v 0.728990 1.316157 0.316157
v 0.664133 1.455302 0.302982
v 0.610461 0.568241 0.431759
v 0.664133 0.697018 0.455302
v 0.698026 0.843909 0.474400
v 0.709949 1.000000 0.481988
v 0.698026 1.156091 0.474400
v 0.664133 1.302983 0.455302
v 0.610461 1.431759 0.431759
v -0.610461 0.568241 0.431759
v -0.664133 0.697018 0.455302
v -0.698026 0.843909 0.474400
v -0.709949 1.000000 0.481988
v -0.698026 1.156091 0.474400
v -0.664133 1.302983 0.455302
v -0.610461 1.431759 0.431759
v -0.664133 0.544698 0.302983
v -0.728990 0.683843 0.316157
v -0.768442 0.838085 0.328070
v -0.781829 1.000000 0.333140
v -0.768442 1.161916 0.328070
v -0.728990 1.316157 0.316157
v -0.664133 1.455302 0.302982
v -0.698026 0.525600 0.156091
v -0.768442 0.671930 0.161915
v -0.810862 0.832418 0.167582
v -0.825063 1.000000 0.170115
v -0.810862 1.167582 0.167582
v -0.768442 1.328070 0.161915
v -0.698026 1.474400 0.156091
v -0.709949 0.518012 -0.000000
v -0.781829 0.666860 -0.000000
v -0.825063 0.829885 -0.000000
v -0.839506 1.000000 -0.000000
v -0.825063 1.170115 -0.000000
v -0.781829 1.333140 -0.000000
v -0.709949 1.481988 -0.000000
v -0.698026 0.525600 -0.156091
v -0.768442 0.671930 -0.161916
v -0.810862 0.832418 -0.167582
v -0.825063 1.000000 -0.170115
v -0.810862 1.167582 -0.167582
v -0.768442 1.328070 -0.161916
v -0.698026 1.474400 -0.156091
v -0.664133 0.544698 -0.302983
v -0.728990 0.683843 -0.316157
v -0.768442 0.838085 -0.328070
v -0.781829 1.000000 -0.333141
v -0.768442 1.161916 -0.328070
v -0.728990 1.316157 -0.316157
v -0.664133 1.455302 -0.302983
v -0.610461 0.568241 -0.431759
v -0.664133 0.697017 -0.455302
v -0.698026 0.843909 -0.474400
v -0.709949 1.000000 -0.481988
v -0.698026 1.156091 -0.474400
v -0.664133 1.302983 -0.455302
v -0.610461 1.431759 -0.431759
v 0.431759 1.610461 0.431759
v 0.455302 1.664133 0.302982
v 0.474400 1.698026 0.156091
v 0.481988 1.709949 -0.000000
v 0.474400 1.698026 -0.156091
v 0.455302 1.664133 -0.302983
v 0.431759 1.610461 -0.431759
v 0.302983 1.664133 0.455302
v 0.316157 1.728990 0.316157
v 0.328070 1.768442 0.161915
v 0.333140 1.781829 -0.000000
v 0.328070 1.768442 -0.161916
v 0.316157 1.728990 -0.316157
v 0.302983 1.664133 -0.455302
v 0.156091 1.698026 0.474400
v 0.161915 1.768442 0.328070
v 0.167582 1.810862 0.167582
v 0.170115 1.825063 -0.000000
v 0.167582 1.810862 -0.167582
v 0.161915 1.768442 -0.328070
v 0.156091 1.698026 -0.474400
v -0.000000 1.709949 0.481988
v -0.000000 1.781829 0.333140
v 0.000000 1.825063 0.170115
v 0.000000 1.839506 -0.000000
v 0.000000 1.825063 -0.170115
v 0.000000 1.781829 -0.333141
v 0.000000 1.709949 -0.481988
v -0.156091 1.698026 0.474400
v -0.161915 1.768443 0.328070
v -0.167582 1.810862 0.167582
v -0.170115 1.825063 -0.000000
v -0.167582 1.810862 -0.167582
v -0.161915 1.768442 -0.328070
v -0.156091 1.698026 -0.474400
v -0.302983 1.664133 0.455302
v -0.316157 1.728990 0.316157
v -0.328070 1.768442 0.161915
v -0.333140 1.781829 -0.000000
v -0.328070 1.768442 -0.161916
v -0.316157 1.728990 -0.316157
v -0.302983 1.664133 -0.455302
v -0.431759 1.610461 0.431759
v -0.455302 1.664133 0.302982
v -0.474400 1.698026 0.156091
v -0.481988 1.709949 -0.000000
v -0.474400 1.698026 -0.156091
v -0.455302 1.664133 -0.302983
v -0.431759 1.610461 -0.431759
v 0.431759 0.389539 -0.431759
v 0.455302 0.335867 -0.302983
v 0.474400 0.301974 -0.156091
v 0.481988 0.290051 -0.000000
v 0.474400 0.301974 0.156091
v 0.455302 0.335867 0.302983
v 0.431759 0.389539 0.431759
v 0.302983 0.335867 -0.455302
v 0.316157 0.271010 -0.316157
v 0.328070 0.231558 -0.161916
v 0.333140 0.218171 -0.000000
v 0.328070 0.231558 0.161915
v 0.316157 0.271010 0.316157
v 0.302983 0.335867 0.455302
v 0.156091 0.301974 -0.474400
v 0.161915 0.231558 -0.328070
v 0.167582 0.189138 -0.167582
v 0.170115 0.174937 -0.000000
v 0.167582 0.189138 0.167582
v 0.161915 0.231558 0.328070
v 0.156091 0.301974 0.474400
v -0.000000 0.290051 -0.481988
v -0.000000 0.218171 -0.333140
v 0.000000 0.174937 -0.170115
v 0.000000 0.160494 -0.000000
v 0.000000 0.174937 0.170115
v 0.000000 0.218171 0.333140
v 0.000000 0.290051 0.481988
v -0.156091 0.301974 -0.474400
v -0.161915 0.231558 -0.328070
v -0.167582 0.189138 -0.167582
v -0.170115 0.174937 -0.000000
v -0.167582 0.189138 0.167582
v -0.161915 0.231558 0.328070
v -0.156091 0.301974 0.474400
v -0.302983 0.335867 -0.455302
v -0.316157 0.271010 -0.316157
v -0.328070 0.231558 -0.161916
v -0.333140 0.218171 -0.000000
v -0.328070 0.231558 0.161915
v -0.316157 0.271010 0.316157
v -0.302983 0.335867 0.455302
v -0.431759 0.389539 -0.431759
v -0.455302 0.335867 -0.302983
v -0.474400 0.301974 -0.156091
v -0.481988 0.290051 -0.000000
v -0.474400 0.301974 0.156091
v -0.455302 0.335867 0.302983
v -0.431759 0.389539 0.431759
v 0.431759 0.568241 0.610461
v 0.455302 0.697018 0.664133
v 0.474400 0.843909 0.698026
v 0.481988 1.000000 0.709949
v 0.474400 1.156091 0.698026
v 0.455302 1.302983 0.664133
v 0.431759 1.431759 0.610461
v 0.302983 0.544698 0.664133
v 0.316157 0.683843 0.728990
v 0.328070 0.838085 0.768442
v 0.333140 1.000000 0.781829
v 0.328070 1.161916 0.768442
v 0.316157 1.316157 0.728990
v 0.302983 1.455302 0.664133
v 0.156091 0.525600 0.698026
v 0.161915 0.671930 0.768442
v 0.167582 0.832418 0.810862
v 0.170115 1.000000 0.825063
v 0.167582 1.167582 0.810862
v 0.161915 1.328070 0.768442
v 0.156091 1.474400 0.698026
v -0.000000 0.518012 0.709949
v -0.000000 0.666860 0.781829
v 0.000000 0.829885 0.825063
v 0.000000 1.000000 0.839506
v 0.000000 1.170115 0.825063
v 0.000000 1.333140 0.781829
v 0.000000 1.481988 0.709949
v -0.156091 0.525600 0.698026
v -0.161915 0.671930 0.768442
v -0.167582 0.832418 0.810862
v -0.170115 1.000000 0.825063
v -0.167582 1.167582 0.810862
v -0.161915 1.328070 0.768442
v -0.156091 1.474400 0.698026
v -0.302983 0.544698 0.664133
v -0.316157 0.683843 0.728990
v -0.328070 0.838085 0.768442
v -0.333140 1.000000 0.781829
v -0.328070 1.161916 0.768442
v -0.316157 1.316157 0.728990
v -0.302983 1.455302 0.664133
v -0.431759 0.568241 0.610461
v -0.455302 0.697018 0.664133
v -0.474400 0.843909 0.698026
v -0.481988 1.000000 0.709949
v -0.474400 1.156091 0.698026
v -0.455302 1.302983 0.664133
v -0.431759 1.431759 0.610461
v -0.431759 0.568241 -0.610461
v -0.455302 0.697017 -0.664133
v -0.474400 0.843909 -0.698026
v -0.481988 1.000000 -0.709949
v -0.474400 1.156091 -0.698026
v -0.455302 1.302983 -0.664133
v -0.431759 1.431759 -0.610461
v -0.302983 0.544698 -0.664133
v -0.316157 0.683843 -0.728990
v -0.328070 0.838085 -0.768442
v -0.333140 1.000000 -0.781829
v -0.328070 1.161916 -0.768442
v -0.316157 1.316157 -0.728990
v -0.302983 1.455302 -0.664133
v -0.156091 0.525600 -0.698026
v -0.161915 0.671930 -0.768442
v -0.167582 0.832418 -0.810862
v -0.170115 1.000000 -0.825063
v -0.167582 1.167582 -0.810862
v -0.161915 1.328070 -0.768442
v -0.156091 1.474400 -0.698026
v 0.000000 0.518012 -0.709949
v 0.000000 0.666860 -0.781829
v -0.000000 0.829885 -0.825063
v -0.000000 1.000000 -0.839506
v -0.000000 1.170115 -0.825063
v -0.000000 1.333140 -0.781829
v 0.000000 1.481988 -0.709949
v 0.156091 0.525600 -0.698026
v 0.161915 0.671930 -0.768442
v 0.167582 0.832418 -0.810862
v 0.170115 1.000000 -0.825063
v 0.167582 1.167582 -0.810862
v 0.161915 1.328070 -0.768442
v 0.156091 1.474400 -0.698026
v 0.302983 0.544698 -0.664133
v 0.316157 0.683843 -0.728990
v 0.328070 0.838085 -0.768442
v 0.333140 1.000000 -0.781829
v 0.328070 1.161916 -0.768442
v 0.316157 1.316157 -0.728990
v 0.302983 1.455302 -0.664133
v 0.431759 0.568241 -0.610461
v 0.455302 0.697017 -0.664133
v 0.474400 0.843909 -0.698026
v 0.481988 1.000000 -0.709949
v 0.474400 1.156091 -0.698026
v 0.455302 1.302983 -0.664133
v 0.431759 1.431759 -0.610461
vn 0.7335 -0.4806 -0.4806
vn 0.7956 -0.3309 -0.5075
vn 0.8768 -0.3400 -0.3400
vn 0.7956 -0.5075 -0.3309
vn 0.8341 -0.1719 -0.5242
vn 0.9223 -0.1723 -0.3460
vn 0.8478 -0.0000 -0.5303
vn 0.9374 -0.0000 -0.3481
vn 0.8341 0.1719 -0.5242
vn 0.9223 0.1723 -0.3460
vn 0.7956 0.3309 -0.5075
vn 0.8768 0.3400 -0.3400
vn 0.7335 0.4806 -0.4806
vn 0.7956 0.5075 -0.3309
vn 0.9223 -0.3460 -0.1723
vn 0.8341 -0.5242 -0.1719
vn 0.9699 -0.1721 -0.1721
vn 0.9851 -0.0000 -0.1719
vn 0.9699 0.1721 -0.1721
vn 0.9223 0.3460 -0.1723
vn 0.8341 0.5242 -0.1719
vn 0.9374 -0.3481 -0.0000
vn 0.8478 -0.5303 -0.0000
vn 0.9851 -0.1719 -0.0000
vn 1.0000 -0.0000 -0.0000
vn 0.9851 0.1719 -0.0000
vn 0.9374 0.3481 -0.0000
vn 0.8478 0.5303 -0.0000
vn 0.9223 -0.3460 0.1723
vn 0.8341 -0.5242 0.1719
vn 0.9699 -0.1721 0.1721
vn 0.9851 -0.0000 0.1719
vn 0.9699 0.1721 0.1721
vn 0.9223 0.3460 0.1723
vn 0.8341 0.5242 0.1719
vn 0.8768 -0.3400 0.3400
vn 0.7956 -0.5075 0.3309
vn 0.9223 -0.1723 0.3460
vn 0.9374 -0.0000 0.3481
vn 0.9223 0.1723 0.3460
vn 0.8768 0.3400 0.3400
vn 0.7956 0.5075 0.3309
vn 0.7956 -0.3309 0.5075
vn 0.7335 -0.4806 0.4806
vn 0.8341 -0.1719 0.5242
vn 0.8478 -0.0000 0.5303
vn 0.8341 0.1719 0.5242
vn 0.7956 0.3309 0.5075
vn 0.7335 0.4806 0.4806
vn 0.6579 -0.5325 -0.5325
vn 0.6911 -0.4611 -0.5566
vn 0.6911 -0.5566 -0.4611
vn 0.7397 -0.3241 -0.5898
vn 0.7732 -0.1703 -0.6109
vn 0.7857 -0.0000 -0.6187
vn 0.7732 0.1703 -0.6109
vn 0.7397 0.3241 -0.5898
vn 0.6911 0.4611 -0.5566
vn 0.6579 0.5325 -0.5325
vn 0.6911 0.5566 -0.4611
vn 0.7397 0.5898 -0.3241
vn 0.7732 0.6109 -0.1703
vn 0.7857 0.6187 -0.0000
vn 0.7732 0.6109 0.1703
vn 0.7397 0.5898 0.3241
vn 0.6911 0.5566 0.4611
vn 0.6579 0.5325 0.5325
vn 0.6911 0.4611 0.5566
vn 0.7397 0.3241 0.5898
vn 0.7732 0.1703 0.6109
vn 0.7857 -0.0000 0.6187
vn 0.7732 -0.1703 0.6109
vn 0.7397 -0.3241 0.5898
vn 0.6911 -0.4611 0.5566
vn 0.6911 -0.5566 0.4611
vn 0.6579 -0.5325 0.5325
vn 0.7397 -0.5898 0.3241
vn 0.7732 -0.6109 0.1703
vn 0.7857 -0.6187 -0.0000
vn 0.7732 -0.6109 -0.1703
vn 0.7397 -0.5898 -0.3241
vn -0.7335 -0.4806 0.4806
vn -0.7956 -0.3309 0.5075
vn -0.8768 -0.3400 0.3400
vn -0.7956 -0.5075 0.3309
vn -0.8341 -0.1719 0.5242
vn -0.9223 -0.1723 0.3460
vn -0.8478 -0.0000 0.5303
vn -0.9374 -0.0000 0.3481
vn -0.8341 0.1719 0.5242
vn -0.9223 0.1723 0.3460
vn -0.7956 0.3309 0.5075
vn -0.8768 0.3400 0.3400
vn -0.7335 0.4806 0.4806
vn -0.7956 0.5075 0.3309
vn -0.9223 -0.3460 0.1723
vn -0.8341 -0.5242 0.1719
vn -0.9699 -0.1721 0.1721
vn -0.9851 -0.0000 0.1719
vn -0.9699 0.1721 0.1721
vn -0.9223 0.3460 0.1723
vn -0.8341 0.5242 0.1719
vn -0.9374 -0.3481 -0.0000
vn -0.8478 -0.5303 -0.0000
vn -0.9851 -0.1719 -0.0000
vn -1.0000 -0.0000 -0.0000
vn -0.9851 0.1719 -0.0000
vn -0.9374 0.3481 -0.0000
vn -0.8478 0.5303 -0.0000
vn -0.9223 -0.3460 -0.1723
vn -0.8341 -0.5242 -0.1719
vn -0.9699 -0.1721 -0.1721
vn -0.9851 -0.0000 -0.1719
vn -0.9699 0.1721 -0.1721
vn -0.9223 0.3460 -0.1723
vn -0.8341 0.5242 -0.1719
vn -0.8768 -0.3400 -0.3400
vn -0.7956 -0.5075 -0.3309
vn -0.9223 -0.1723 -0.3460
vn -0.9374 -0.0000 -0.3481
vn -0.9223 0.1723 -0.3460
vn -0.8768 0.3400 -0.3400
vn -0.7956 0.5075 -0.3309
vn -0.7956 -0.3309 -0.5075
vn -0.7335 -0.4806 -0.4806
vn -0.8341 -0.1719 -0.5242
vn -0.8478 -0.0000 -0.5303
vn -0.8341 0.1719 -0.5242
vn -0.7956 0.3309 -0.5075
vn -0.7335 0.4806 -0.4806
vn -0.6579 -0.5325 0.5325
vn -0.6911 -0.4611 0.5566
vn -0.6911 -0.5566 0.4611
vn -0.7397 -0.3241 0.5898
vn -0.7732 -0.1703 0.6109
vn -0.7857 -0.0000 0.6187
vn -0.7732 0.1703 0.6109
vn -0.7397 0.3241 0.5898
vn -0.6911 0.4611 0.5566
vn -0.6579 0.5325 0.5325
vn -0.6911 0.5566 0.4611
vn -0.7397 0.5898 0.3241
vn -0.7732 0.6109 0.1703
vn -0.7857 0.6187 -0.0000
vn -0.7732 0.6109 -0.1703
vn -0.7397 0.5898 -0.3241
vn -0.6911 0.5566 -0.4611
vn -0.6579 0.5325 -0.5325
vn -0.6911 0.4611 -0.5566
vn -0.7397 0.3241 -0.5898
vn -0.7732 0.1703 -0.6109
vn -0.7857 -0.0000 -0.6187
vn -0.7732 -0.1703 -0.6109
vn -0.7397 -0.3241 -0.5898
vn -0.6911 -0.4611 -0.5566
vn -0.6911 -0.5566 -0.4611
vn -0.6579 -0.5325 -0.5325
vn -0.7397 -0.5898 -0.3241
vn -0.7732 -0.6109 -0.1703
vn -0.7857 -0.6187 -0.0000
vn -0.7732 -0.6109 0.1703
vn -0.7397 -0.5898 0.3241
vn 0.4806 0.7335 0.4806
vn 0.5075 0.7956 0.3309
vn 0.3400 0.8768 0.3400
vn 0.3309 0.7956 0.5075
vn 0.5242 0.8341 0.1719
vn 0.3460 0.9223 0.1723
vn 0.5303 0.8478 -0.0000
vn 0.3481 0.9374 -0.0000
vn 0.5242 0.8341 -0.1719
vn 0.3460 0.9223 -0.1723
vn 0.5075 0.7956 -0.3309
vn 0.3400 0.8768 -0.3400
vn 0.4806 0.7335 -0.4806
vn 0.3309 0.7956 -0.5075
vn 0.1723 0.9223 0.3460
vn 0.1719 0.8341 0.5242
vn 0.1721 0.9699 0.1721
vn 0.1719 0.9851 -0.0000
vn 0.1721 0.9699 -0.1721
vn 0.1723 0.9223 -0.3460
vn 0.1719 0.8341 -0.5242
vn -0.0000 0.9374 0.3481
vn -0.0000 0.8478 0.5303
vn -0.0000 0.9851 0.1719
vn -0.0000 1.0000 -0.0000
vn -0.0000 0.9851 -0.1719
vn -0.0000 0.9374 -0.3481
vn -0.0000 0.8478 -0.5303
vn -0.1723 0.9223 0.3460
vn -0.1719 0.8341 0.5242
vn -0.1721 0.9699 0.1721
vn -0.1719 0.9851 -0.0000
vn -0.1721 0.9699 -0.1721
vn -0.1723 0.9223 -0.3460
vn -0.1719 0.8341 -0.5242
vn -0.3400 0.8768 0.3400
vn -0.3309 0.7956 0.5075
vn -0.3460 0.9223 0.1723
vn -0.3481 0.9374 -0.0000
vn -0.3460 0.9223 -0.1723
vn -0.3400 0.8768 -0.3400
vn -0.3309 0.7956 -0.5075
vn -0.5075 0.7956 0.3309
vn -0.4806 0.7335 0.4806
vn -0.5242 0.8341 0.1719
vn -0.5303 0.8478 -0.0000
vn -0.5242 0.8341 -0.1719
vn -0.5075 0.7956 -0.3309
vn -0.4806 0.7335 -0.4806
vn 0.5325 0.6579 0.5325
vn 0.5566 0.6911 0.4611
vn 0.4611 0.6911 0.5566
vn 0.5898 0.7397 0.3241
vn 0.6109 0.7732 0.1703
vn 0.6187 0.7857 -0.0000
vn 0.6109 0.7732 -0.1703
vn 0.5898 0.7397 -0.3241
vn 0.5566 0.6911 -0.4611
vn 0.5325 0.6579 -0.5325
vn 0.4611 0.6911 -0.5566
vn 0.3241 0.7397 -0.5898
vn 0.1703 0.7732 -0.6109
vn -0.0000 0.7857 -0.6187
vn -0.1703 0.7732 -0.6109
vn -0.3241 0.7397 -0.5898
vn -0.4611 0.6911 -0.5566
vn -0.5325 0.6579 -0.5325
vn -0.5566 0.6911 -0.4611
vn -0.5898 0.7397 -0.3241
vn -0.6109 0.7732 -0.1703
vn -0.6187 0.7857 -0.0000
vn -0.6109 0.7732 0.1703
vn -0.5898 0.7397 0.3241
vn -0.5566 0.6911 0.4611
vn -0.4611 0.6911 0.5566
vn -0.5325 0.6579 0.5325
vn -0.3241 0.7397 0.5898
vn -0.1703 0.7732 0.6109
vn -0.0000 0.7857 0.6187
vn 0.1703 0.7732 0.6109
vn 0.3241 0.7397 0.5898
vn 0.4806 -0.7335 -0.4806
vn 0.5075 -0.7956 -0.3309
vn 0.3400 -0.8768 -0.3400
vn 0.3309 -0.7956 -0.5075
vn 0.5242 -0.8341 -0.1719
vn 0.3460 -0.9223 -0.1723
vn 0.5303 -0.8478 -0.0000
vn 0.3481 -0.9374 -0.0000
vn 0.5242 -0.8341 0.1719
vn 0.3460 -0.9223 0.1723
vn 0.5075 -0.7956 0.3309
vn 0.3400 -0.8768 0.3400
vn 0.4806 -0.7335 0.4806
vn 0.3309 -0.7956 0.5075
vn 0.1723 -0.9223 -0.3460
vn 0.1719 -0.8341 -0.5242
vn 0.1721 -0.9699 -0.1721
vn 0.1719 -0.9851 -0.0000
vn 0.1721 -0.9699 0.1721
vn 0.1723 -0.9223 0.3460
vn 0.1719 -0.8341 0.5242
vn -0.0000 -0.9374 -0.3481
vn -0.0000 -0.8478 -0.5303
vn -0.0000 -0.9851 -0.1719
vn -0.0000 -1.0000 -0.0000
vn -0.0000 -0.9851 0.1719
vn -0.0000 -0.9374 0.3481
vn -0.0000 -0.8478 0.5303
vn -0.1723 -0.9223 -0.3460
vn -0.1719 -0.8341 -0.5242
vn -0.1721 -0.9699 -0.1721
vn -0.1719 -0.9851 -0.0000
vn -0.1721 -0.9699 0.1721
vn -0.1723 -0.9223 0.3460
vn -0.1719 -0.8341 0.5242
vn -0.3400 -0.8768 -0.3400
vn -0.3309 -0.7956 -0.5075
vn -0.3460 -0.9223 -0.1723
vn -0.3481 -0.9374 -0.0000
vn -0.3460 -0.9223 0.1723
vn -0.3400 -0.8768 0.3400
vn -0.3309 -0.7956 0.5075
vn -0.5075 -0.7956 -0.3309
vn -0.4806 -0.7335 -0.4806
vn -0.5242 -0.8341 -0.1719
vn -0.5303 -0.8478 -0.0000
vn -0.5242 -0.8341 0.1719
vn -0.5075 -0.7956 0.3309
vn -0.4806 -0.7335 0.4806
vn 0.5325 -0.6579 -0.5325
vn 0.5566 -0.6911 -0.4611
vn 0.4611 -0.6911 -0.5566
vn 0.5898 -0.7397 -0.3241
vn 0.6109 -0.7732 -0.1703
vn 0.6187 -0.7857 -0.0000
vn 0.6109 -0.7732 0.1703
vn 0.5898 -0.7397 0.3241
vn 0.5566 -0.6911 0.4611
vn 0.5325 -0.6579 0.5325
vn 0.4611 -0.6911 0.5566
vn 0.3241 -0.7397 0.5898
vn 0.1703 -0.7732 0.6109
vn -0.0000 -0.7857 0.6187
vn -0.1703 -0.7732 0.6109
vn -0.3241 -0.7397 0.5898
vn -0.4611 -0.6911 0.5566
vn -0.5325 -0.6579 0.5325
vn -0.5566 -0.6911 0.4611
vn -0.5898 -0.7397 0.3241
vn -0.6109 -0.7732 0.1703
vn -0.6187 -0.7857 -0.0000
vn -0.6109 -0.7732 -0.1703
vn -0.5898 -0.7397 -0.3241
vn -0.5566 -0.6911 -0.4611
vn -0.4611 -0.6911 -0.5566
vn -0.5325 -0.6579 -0.5325
vn -0.3241 -0.7397 -0.5898
vn -0.1703 -0.7732 -0.6109
vn -0.0000 -0.7857 -0.6187
vn 0.1703 -0.7732 -0.6109
vn 0.3241 -0.7397 -0.5898
vn 0.4806 -0.4806 0.7335
vn 0.5075 -0.3309 0.7956
vn 0.3400 -0.3400 0.8768
vn 0.3309 -0.5075 0.7956
vn 0.5242 -0.1719 0.8341
vn 0.3460 -0.1723 0.9223
vn 0.5303 -0.0000 0.8478
vn 0.3481 -0.0000 0.9374
vn 0.5242 0.1719 0.8341
vn 0.3460 0.1723 0.9223
vn 0.5075 0.3309 0.7956
vn 0.3400 0.3400 0.8768
vn 0.4806 0.4806 0.7335
vn 0.3309 0.5075 0.7956
vn 0.1723 -0.3460 0.9223
vn 0.1719 -0.5242 0.8341
vn 0.1721 -0.1721 0.9699
vn 0.1719 -0.0000 0.9851
vn 0.1721 0.1721 0.9699
vn 0.1723 0.3460 0.9223
vn 0.1719 0.5242 0.8341
vn -0.0000 -0.3481 0.9374
vn -0.0000 -0.5303 0.8478
vn -0.0000 -0.1719 0.9851
vn -0.0000 -0.0000 1.0000
vn -0.0000 0.1719 0.9851
vn -0.0000 0.3481 0.9374
vn -0.0000 0.5303 0.8478
vn -0.1723 -0.3460 0.9223
vn -0.1719 -0.5242 0.8341
vn -0.1721 -0.1721 0.9699
vn -0.1719 -0.0000 0.9851
vn -0.1721 0.1721 0.9699
vn -0.1723 0.3460 0.9223
vn -0.1719 0.5242 0.8341
vn -0.3400 -0.3400 0.8768
vn -0.3309 -0.5075 0.7956
vn -0.3460 -0.1723 0.9223
vn -0.3481 -0.0000 0.9374
vn -0.3460 0.1723 0.9223
vn -0.3400 0.3400 0.8768
vn -0.3309 0.5075 0.7956
vn -0.5075 -0.3309 0.7956
vn -0.4806 -0.4806 0.7335
vn -0.5242 -0.1719 0.8341
vn -0.5303 -0.0000 0.8478
vn -0.5242 0.1719 0.8341
vn -0.5075 0.3309 0.7956
vn -0.4806 0.4806 0.7335
vn 0.5325 -0.5325 0.6579
vn 0.5566 -0.4611 0.6911
vn 0.4611 -0.5566 0.6911
vn 0.5898 -0.3241 0.7397
vn 0.6109 -0.1703 0.7732
vn 0.6187 -0.0000 0.7857
vn 0.6109 0.1703 0.7732
vn 0.5898 0.3241 0.7397
vn 0.5566 0.4611 0.6911
vn 0.5325 0.5325 0.6579
vn 0.4611 0.5566 0.6911
vn 0.3241 0.5898 0.7397
vn 0.1703 0.6109 0.7732
vn -0.0000 0.6187 0.7857
vn -0.1703 0.6109 0.7732
vn -0.3241 0.5898 0.7397
vn -0.4611 0.5566 0.6911
vn -0.5325 0.5325 0.6579
vn -0.5566 0.4611 0.6911
vn -0.5898 0.3241 0.7397
vn -0.6109 0.1703 0.7732
vn -0.6187 -0.0000 0.7857
vn -0.6109 -0.1703 0.7732
vn -0.5898 -0.3241 0.7397
vn -0.5566 -0.4611 0.6911
vn -0.4611 -0.5566 0.6911
vn -0.5325 -0.5325 0.6579
vn -0.3241 -0.5898 0.7397
vn -0.1703 -0.6109 0.7732
vn -0.0000 -0.6187 0.7857
vn 0.1703 -0.6109 0.7732
vn 0.3241 -0.5898 0.7397
vn -0.4806 -0.4806 -0.7335
vn -0.5075 -0.3309 -0.7956
vn -0.3400 -0.3400 -0.8768
vn -0.3309 -0.5075 -0.7956
vn -0.5242 -0.1719 -0.8341
vn -0.3460 -0.1723 -0.9223
vn -0.5303 -0.0000 -0.8478
vn -0.3481 -0.0000 -0.9374
vn -0.5242 0.1719 -0.8341
vn -0.3460 0.1723 -0.9223
vn -0.5075 0.3309 -0.7956
vn -0.3400 0.3400 -0.8768
vn -0.4806 0.4806 -0.7335
vn -0.3309 0.5075 -0.7956
vn -0.1723 -0.3460 -0.9223
vn -0.1719 -0.5242 -0.8341
vn -0.1721 -0.1721 -0.9699
vn -0.1719 -0.0000 -0.9851
vn -0.1721 0.1721 -0.9699
vn -0.1723 0.3460 -0.9223
vn -0.1719 0.5242 -0.8341
vn -0.0000 -0.3481 -0.9374
vn -0.0000 -0.5303 -0.8478
vn -0.0000 -0.1719 -0.9851
vn -0.0000 -0.0000 -1.0000
vn -0.0000 0.1719 -0.9851
vn -0.0000 0.3481 -0.9374
vn -0.0000 0.5303 -0.8478
vn 0.1723 -0.3460 -0.9223
vn 0.1719 -0.5242 -0.8341
vn 0.1721 -0.1721 -0.9699
vn 0.1719 -0.0000 -0.9851
vn 0.1721 0.1721 -0.9699
vn 0.1723 0.3460 -0.9223
vn 0.1719 0.5242 -0.8341
vn 0.3400 -0.3400 -0.8768
vn 0.3309 -0.5075 -0.7956
vn 0.3460 -0.1723 -0.9223
vn 0.3481 -0.0000 -0.9374
vn 0.3460 0.1723 -0.9223
vn 0.3400 0.3400 -0.8768
vn 0.3309 0.5075 -0.7956
vn 0.5075 -0.3309 -0.7956
vn 0.4806 -0.4806 -0.7335
vn 0.5242 -0.1719 -0.8341
vn 0.5303 -0.0000 -0.8478
vn 0.5242 0.1719 -0.8341
vn 0.5075 0.3309 -0.7956
vn 0.4806 0.4806 -0.7335
vn -0.5325 -0.5325 -0.6579
vn -0.5566 -0.4611 -0.6911
vn -0.4611 -0.5566 -0.6911
vn -0.5898 -0.3241 -0.7397
vn -0.6109 -0.1703 -0.7732
vn -0.6187 -0.0000 -0.7857
vn -0.6109 0.1703 -0.7732
vn -0.5898 0.3241 -0.7397
vn -0.5566 0.4611 -0.6911
vn -0.5325 0.5325 -0.6579
vn -0.4611 0.5566 -0.6911
vn -0.3241 0.5898 -0.7397
vn -0.1703 0.6109 -0.7732
vn -0.0000 0.6187 -0.7857
vn 0.1703 0.6109 -0.7732
vn 0.3241 0.5898 -0.7397
vn 0.4611 0.5566 -0.6911
vn 0.5325 0.5325 -0.6579
vn 0.5566 0.4611 -0.6911
vn 0.5898 0.3241 -0.7397
vn 0.6109 0.1703 -0.7732
vn 0.6187 -0.0000 -0.7857
vn 0.6109 -0.1703 -0.7732
vn 0.5898 -0.3241 -0.7397
vn 0.5566 -0.4611 -0.6911
vn 0.4611 -0.5566 -0.6911
vn 0.5325 -0.5325 -0.6579
vn 0.3241 -0.5898 -0.7397
vn 0.1703 -0.6109 -0.7732
vn -0.0000 -0.6187 -0.7857
vn -0.1703 -0.6109 -0.7732
vn -0.3241 -0.5898 -0.7397
vt 0.875000 0.125000
vt 0.875000 0.250000
vt 0.750000 0.250000
vt 0.750000 0.125000
vt 0.875000 0.375000
vt 0.750000 0.375000
vt 0.875000 0.500000
vt 0.750000 0.500000
vt 0.875000 0.625000
vt 0.750000 0.625000
vt 0.875000 0.750000
vt 0.750000 0.750000
vt 0.875000 0.875000
vt 0.750000 0.875000
vt 0.625000 0.250000
vt 0.625000 0.125000
vt 0.625000 0.375000
vt 0.625000 0.500000
vt 0.625000 0.625000
vt 0.625000 0.750000
vt 0.625000 0.875000
vt 0.500000 0.250000
vt 0.500000 0.125000
vt 0.500000 0.375000
vt 0.500000 0.500000
vt 0.500000 0.625000
vt 0.500000 0.750000
vt 0.500000 0.875000
vt 0.375000 0.250000
vt 0.375000 0.125000
vt 0.375000 0.375000
vt 0.375000 0.500000
vt 0.375000 0.625000
vt 0.375000 0.750000
vt 0.375000 0.875000
vt 0.250000 0.250000
vt 0.250000 0.125000
vt 0.250000 0.375000
vt 0.250000 0.500000
vt 0.250000 0.625000
vt 0.250000 0.750000
vt 0.250000 0.875000
vt 0.125000 0.250000
vt 0.125000 0.125000
vt 0.125000 0.375000
vt 0.125000 0.500000
vt 0.125000 0.625000
vt 0.125000 0.750000
vt 0.125000 0.875000
vt 1.000000 0.000000
vt 1.000000 0.125000
vt 0.875000 0.000000
vt 1.000000 0.250000
vt 1.000000 0.375000
vt 1.000000 0.500000
vt 1.000000 0.625000
vt 1.000000 0.750000
vt 1.000000 0.875000
vt 1.000000 1.000000
vt 0.875000 1.000000
vt 0.750000 1.000000
vt 0.625000 1.000000
vt 0.500000 1.000000
vt 0.375000 1.000000
vt 0.250000 1.000000
vt 0.125000 1.000000
vt 0.000000 1.000000
vt 0.000000 0.875000
vt 0.000000 0.750000
vt 0.000000 0.625000
vt 0.000000 0.500000
vt 0.000000 0.375000
vt 0.000000 0.250000
vt 0.000000 0.125000
vt 0.125000 0.000000
vt 0.000000 0.000000
vt 0.250000 0.000000
vt 0.375000 0.000000
vt 0.500000 0.000000
vt 0.625000 0.000000
vt 0.750000 0.000000
s 1
usemtl Animal_01-256x256.png
f 191/1/163 192/2/164 199/3/165 198/4/166
f 192/2/164 193/5/167 200/6/168 199/3/165
f 193/5/167 194/7/169 201/8/170 200/6/168
f 194/7/169 195/9/171 202/10/172 201/8/170
f 195/9/171 196/11/173 203/12/174 202/10/172
f 196/11/173 197/13/175 204/14/176 203/12/174
f 198/4/166 199/3/165 206/15/177 205/16/178
f 199/3/165 200/6/168 207/17/179 206/15/177
f 200/6/168 201/8/170 208/18/180 207/17/179
f 201/8/170 202/10/172 209/19/181 208/18/180
f 202/10/172 203/12/174 210/20/182 209/19/181
f 203/12/174 204/14/176 211/21/183 210/20/182
f 205/16/178 206/15/177 213/22/184 212/23/185
f 206/15/177 207/17/179 214/24/186 213/22/184
f 207/17/179 208/18/180 215/25/187 214/24/186
f 208/18/180 209/19/181 216/26/188 215/25/187
f 209/19/181 210/20/182 217/27/189 216/26/188
f 210/20/182 211/21/183 218/28/190 217/27/189
f 212/23/185 213/22/184 220/29/191 219/30/192
f 213/22/184 214/24/186 221/31/193 220/29/191
f 214/24/186 215/25/187 222/32/194 221/31/193
f 215/25/187 216/26/188 223/33/195 222/32/194
f 216/26/188 217/27/189 224/34/196 223/33/195
f 217/27/189 218/28/190 225/35/197 224/34/196
f 219/30/192 220/29/191 227/36/198 226/37/199
f 220/29/191 221/31/193 228/38/200 227/36/198
f 221/31/193 222/32/194 229/39/201 228/38/200
f 222/32/194 223/33/195 230/40/202 229/39/201
f 223/33/195 224/34/196 231/41/203 230/40/202
f 224/34/196 225/35/197 232/42/204 231/41/203
f 226/37/199 227/36/198 234/43/205 233/44/206
f 227/36/198 228/38/200 235/45/207 234/43/205
f 228/38/200 229/39/201 236/46/208 235/45/207
f 229/39/201 230/40/202 237/47/209 236/46/208
f 230/40/202 231/41/203 238/48/210 237/47/209
f 231/41/203 232/42/204 239/49/211 238/48/210
f 1/50/212 23/51/213 191/1/163 65/52/214
f 23/51/213 24/53/215 192/2/164 191/1/163
f 24/53/215 25/54/216 193/5/167 192/2/164
f 25/54/216 26/55/217 194/7/169 193/5/167
f 26/55/217 27/56/218 195/9/171 194/7/169
f 27/56/218 28/57/219 196/11/173 195/9/171
f 28/57/219 29/58/220 197/13/175 196/11/173
f 29/58/220 2/59/221 72/60/222 197/13/175
f 197/13/175 72/60/222 73/61/223 204/14/176
f 204/14/176 73/61/223 74/62/224 211/21/183
f 211/21/183 74/62/224 75/63/225 218/28/190
f 218/28/190 75/63/225 76/64/226 225/35/197
f 225/35/197 76/64/226 77/65/227 232/42/204
f 232/42/204 77/65/227 78/66/228 239/49/211
f 239/49/211 78/66/228 6/67/229 57/68/230
f 238/48/210 239/49/211 57/68/230 56/69/231
f 237/47/209 238/48/210 56/69/231 55/70/232
f 236/46/208 237/47/209 55/70/232 54/71/233
f 235/45/207 236/46/208 54/71/233 53/72/234
f 234/43/205 235/45/207 53/72/234 52/73/235
f 233/44/206 234/43/205 52/73/235 51/74/236
f 71/75/237 233/44/206 51/74/236 5/76/238
f 70/77/239 226/37/199 233/44/206 71/75/237
f 69/78/240 219/30/192 226/37/199 70/77/239
f 68/79/241 212/23/185 219/30/192 69/78/240
f 67/80/242 205/16/178 212/23/185 68/79/241
f 66/81/243 198/4/166 205/16/178 67/80/242
f 65/52/214 191/1/163 198/4/166 66/81/243
usemtl Animal_02-256x256.png
f 142/1/82 143/2/83 150/3/84 149/4/85
f 143/2/83 144/5/86 151/6/87 150/3/84
f 144/5/86 145/7/88 152/8/89 151/6/87
f 145/7/88 146/9/90 153/10/91 152/8/89
f 146/9/90 147/11/92 154/12/93 153/10/91
f 147/11/92 148/13/94 155/14/95 154/12/93
f 149/4/85 150/3/84 157/15/96 156/16/97
f 150/3/84 151/6/87 158/17/98 157/15/96
f 151/6/87 152/8/89 159/18/99 158/17/98
f 152/8/89 153/10/91 160/19/100 159/18/99
f 153/10/91 154/12/93 161/20/101 160/19/100
f 154/12/93 155/14/95 162/21/102 161/20/101
f 156/16/97 157/15/96 164/22/103 163/23/104
f 157/15/96 158/17/98 165/24/105 164/22/103
f 158/17/98 159/18/99 166/25/106 165/24/105
f 159/18/99 160/19/100 167/26/107 166/25/106
f 160/19/100 161/20/101 168/27/108 167/26/107
f 161/20/101 162/21/102 169/28/109 168/27/108
f 163/23/104 164/22/103 171/29/110 170/30/111
f 164/22/103 165/24/105 172/31/112 171/29/110
f 165/24/105 166/25/106 173/32/113 172/31/112
f 166/25/106 167/26/107 174/33/114 173/32/113
f 167/26/107 168/27/108 175/34/115 174/33/114
f 168/27/108 169/28/109 176/35/116 175/34/115
f 170/30/111 171/29/110 178/36/117 177/37/118
f 171/29/110 172/31/112 179/38/119 178/36/117
f 172/31/112 173/32/113 180/39/120 179/38/119
f 173/32/113 174/33/114 181/40/121 180/39/120
f 174/33/114 175/34/115 182/41/122 181/40/121
f 175/34/115 176/35/116 183/42/123 182/41/122
f 177/37/118 178/36/117 185/43/124 184/44/125
f 178/36/117 179/38/119 186/45/126 185/43/124
f 179/38/119 180/39/120 187/46/127 186/45/126
f 180/39/120 181/40/121 188/47/128 187/46/127
f 181/40/121 182/41/122 189/48/129 188/47/128
f 182/41/122 183/42/123 190/49/130 189/48/129
f 7/50/131 50/51/132 142/1/82 37/52/133
f 50/51/132 49/53/134 143/2/83 142/1/82
f 49/53/134 48/54/135 144/5/86 143/2/83
f 48/54/135 47/55/136 145/7/88 144/5/86
f 47/55/136 46/56/137 146/9/90 145/7/88
f 46/56/137 45/57/138 147/11/92 146/9/90
f 45/57/138 44/58/139 148/13/94 147/11/92
f 44/58/139 5/59/140 51/60/141 148/13/94
f 148/13/94 51/60/141 52/61/142 155/14/95
f 155/14/95 52/61/142 53/62/143 162/21/102
f 162/21/102 53/62/143 54/63/144 169/28/109
f 169/28/109 54/63/144 55/64/145 176/35/116
f 176/35/116 55/64/145 56/65/146 183/42/123
f 183/42/123 56/65/146 57/66/147 190/49/130
f 190/49/130 57/66/147 6/67/148 58/68/149
f 189/48/129 190/49/130 58/68/149 59/69/150
f 188/47/128 189/48/129 59/69/150 60/70/151
f 187/46/127 188/47/128 60/70/151 61/71/152
f 186/45/126 187/46/127 61/71/152 62/72/153
f 185/43/124 186/45/126 62/72/153 63/73/154
f 184/44/125 185/43/124 63/73/154 64/74/155
f 43/75/156 184/44/125 64/74/155 8/76/157
f 42/77/158 177/37/118 184/44/125 43/75/156
f 41/78/159 170/30/111 177/37/118 42/77/158
f 40/79/160 163/23/104 170/30/111 41/78/159
f 39/80/161 156/16/97 163/23/104 40/79/160
f 38/81/162 149/4/85 156/16/97 39/80/161
f 37/52/133 142/1/82 149/4/85 38/81/162
usemtl Animal_03-256x256.png
f 338/1/406 339/2/407 346/3/408 345/4/409
f 339/2/407 340/5/410 347/6/411 346/3/408
f 340/5/410 341/7/412 348/8/413 347/6/411
f 341/7/412 342/9/414 349/10/415 348/8/413
f 342/9/414 343/11/416 350/12/417 349/10/415
f 343/11/416 344/13/418 351/14/419 350/12/417
f 345/4/409 346/3/408 353/15/420 352/16/421
f 346/3/408 347/6/411 354/17/422 353/15/420
f 347/6/411 348/8/413 355/18/423 354/17/422
f 348/8/413 349/10/415 356/19/424 355/18/423
f 349/10/415 350/12/417 357/20/425 356/19/424
f 350/12/417 351/14/419 358/21/426 357/20/425
f 352/16/421 353/15/420 360/22/427 359/23/428
f 353/15/420 354/17/422 361/24/429 360/22/427
f 354/17/422 355/18/423 362/25/430 361/24/429
f 355/18/423 356/19/424 363/26/431 362/25/430
f 356/19/424 357/20/425 364/27/432 363/26/431
f 357/20/425 358/21/426 365/28/433 364/27/432
f 359/23/428 360/22/427 367/29/434 366/30/435
f 360/22/427 361/24/429 368/31/436 367/29/434
f 361/24/429 362/25/430 369/32/437 368/31/436
f 362/25/430 363/26/431 370/33/438 369/32/437
f 363/26/431 364/27/432 371/34/439 370/33/438
f 364/27/432 365/28/433 372/35/440 371/34/439
f 366/30/435 367/29/434 374/36/441 373/37/442
f 367/29/434 368/31/436 375/38/443 374/36/441
f 368/31/436 369/32/437 376/39/444 375/38/443
f 369/32/437 370/33/438 377/40/445 376/39/444
f 370/33/438 371/34/439 378/41/446 377/40/445
f 371/34/439 372/35/440 379/42/447 378/41/446
f 373/37/442 374/36/441 381/43/448 380/44/449
f 374/36/441 375/38/443 382/45/450 381/43/448
f 375/38/443 376/39/444 383/46/451 382/45/450
f 376/39/444 377/40/445 384/47/452 383/46/451
f 377/40/445 378/41/446 385/48/453 384/47/452
f 378/41/446 379/42/447 386/49/454 385/48/453
f 8/50/455 64/51/456 338/1/406 85/52/457
f 64/51/456 63/53/458 339/2/407 338/1/406
f 63/53/458 62/54/459 340/5/410 339/2/407
f 62/54/459 61/55/460 341/7/412 340/5/410
f 61/55/460 60/56/461 342/9/414 341/7/412
f 60/56/461 59/57/462 343/11/416 342/9/414
f 59/57/462 58/58/463 344/13/418 343/11/416
f 58/58/463 6/59/464 78/60/465 344/13/418
f 344/13/418 78/60/465 77/61/466 351/14/419
f 351/14/419 77/61/466 76/62/467 358/21/426
f 358/21/426 76/62/467 75/63/468 365/28/433
f 365/28/433 75/63/468 74/64/469 372/35/440
f 372/35/440 74/64/469 73/65/470 379/42/447
f 379/42/447 73/65/470 72/66/471 386/49/454
f 386/49/454 72/66/471 2/67/472 16/68/473
f 385/48/453 386/49/454 16/68/473 17/69/474
f 384/47/452 385/48/453 17/69/474 18/70/475
f 383/46/451 384/47/452 18/70/475 19/71/476
f 382/45/450 383/46/451 19/71/476 20/72/477
f 381/43/448 382/45/450 20/72/477 21/73/478
f 380/44/449 381/43/448 21/73/478 22/74/479
f 79/75/480 380/44/449 22/74/479 4/76/481
f 80/77/482 373/37/442 380/44/449 79/75/480
f 81/78/483 366/30/435 373/37/442 80/77/482
f 82/79/484 359/23/428 366/30/435 81/78/483
f 83/80/485 352/16/421 359/23/428 82/79/484
f 84/81/486 345/4/409 352/16/421 83/80/485
f 85/52/457 338/1/406 345/4/409 84/81/486
usemtl Animal_04-256x256.png
f 289/1/325 290/2/326 297/3/327 296/4/328
f 290/2/326 291/5/329 298/6/330 297/3/327
f 291/5/329 292/7/331 299/8/332 298/6/330
f 292/7/331 293/9/333 300/10/334 299/8/332
f 293/9/333 294/11/335 301/12/336 300/10/334
f 294/11/335 295/13/337 302/14/338 301/12/336
f 296/4/328 297/3/327 304/15/339 303/16/340
f 297/3/327 298/6/330 305/17/341 304/15/339
f 298/6/330 299/8/332 306/18/342 305/17/341
f 299/8/332 300/10/334 307/19/343 306/18/342
f 300/10/334 301/12/336 308/20/344 307/19/343
f 301/12/336 302/14/338 309/21/345 308/20/344
f 303/16/340 304/15/339 311/22/346 310/23/347
f 304/15/339 305/17/341 312/24/348 311/22/346
f 305/17/341 306/18/342 313/25/349 312/24/348
f 306/18/342 307/19/343 314/26/350 313/25/349
f 307/19/343 308/20/344 315/27/351 314/26/350
f 308/20/344 309/21/345 316/28/352 315/27/351
f 310/23/347 311/22/346 318/29/353 317/30/354
f 311/22/346 312/24/348 319/31/355 318/29/353
f 312/24/348 313/25/349 320/32/356 319/31/355
f 313/25/349 314/26/350 321/33/357 320/32/356
f 314/26/350 315/27/351 322/34/358 321/33/357
f 315/27/351 316/28/352 323/35/359 322/34/358
f 317/30/354 318/29/353 325/36/360 324/37/361
f 318/29/353 319/31/355 326/38/362 325/36/360
f 319/31/355 320/32/356 327/39/363 326/38/362
f 320/32/356 321/33/357 328/40/364 327/39/363
f 321/33/357 322/34/358 329/41/365 328/40/364
f 322/34/358 323/35/359 330/42/366 329/41/365
f 324/37/361 325/36/360 332/43/367 331/44/368
f 325/36/360 326/38/362 333/45/369 332/43/367
f 326/38/362 327/39/363 334/46/370 333/45/369
f 327/39/363 328/40/364 335/47/371 334/46/370
f 328/40/364 329/41/365 336/48/372 335/47/371
f 329/41/365 330/42/366 337/49/373 336/48/372
f 3/50/374 36/51/375 289/1/325 86/52/376
f 36/51/375 35/53/377 290/2/326 289/1/325
f 35/53/377 34/54/378 291/5/329 290/2/326
f 34/54/378 33/55/379 292/7/331 291/5/329
f 33/55/379 32/56/380 293/9/333 292/7/331
f 32/56/380 31/57/381 294/11/335 293/9/333
f 31/57/381 30/58/382 295/13/337 294/11/335
f 30/58/382 1/59/383 65/60/384 295/13/337
f 295/13/337 65/60/384 66/61/385 302/14/338
f 302/14/338 66/61/385 67/62/386 309/21/345
f 309/21/345 67/62/386 68/63/387 316/28/352
f 316/28/352 68/63/387 69/64/388 323/35/359
f 323/35/359 69/64/388 70/65/389 330/42/366
f 330/42/366 70/65/389 71/66/390 337/49/373
f 337/49/373 71/66/390 5/67/391 44/68/392
f 336/48/372 337/49/373 44/68/392 45/69/393
f 335/47/371 336/48/372 45/69/393 46/70/394
f 334/46/370 335/47/371 46/70/394 47/71/395
f 333/45/369 334/46/370 47/71/395 48/72/396
f 332/43/367 333/45/369 48/72/396 49/73/397
f 331/44/368 332/43/367 49/73/397 50/74/398
f 92/75/399 331/44/368 50/74/398 7/76/400
f 91/77/401 324/37/361 331/44/368 92/75/399
f 90/78/402 317/30/354 324/37/361 91/77/401
f 89/79/403 310/23/347 317/30/354 90/78/402
f 88/80/404 303/16/340 310/23/347 89/79/403
f 87/81/405 296/4/328 303/16/340 88/80/404
f 86/52/376 289/1/325 296/4/328 87/81/405
usemtl Animal_05-256x256.png
f 240/1/244 241/2/245 248/3/246 247/4/247
f 241/2/245 242/5/248 249/6/249 248/3/246
f 242/5/248 243/7/250 250/8/251 249/6/249
f 243/7/250 244/9/252 251/10/253 250/8/251
f 244/9/252 245/11/254 252/12/255 251/10/253
f 245/11/254 246/13/256 253/14/257 252/12/255
f 247/4/247 248/3/246 255/15/258 254/16/259
f 248/3/246 249/6/249 256/17/260 255/15/258
f 249/6/249 250/8/251 257/18/261 256/17/260
f 250/8/251 251/10/253 258/19/262 257/18/261
f 251/10/253 252/12/255 259/20/263 258/19/262
f 252/12/255 253/14/257 260/21/264 259/20/263
f 254/16/259 255/15/258 262/22/265 261/23/266
f 255/15/258 256/17/260 263/24/267 262/22/265
f 256/17/260 257/18/261 264/25/268 263/24/267
f 257/18/261 258/19/262 265/26/269 264/25/268
f 258/19/262 259/20/263 266/27/270 265/26/269
f 259/20/263 260/21/264 267/28/271 266/27/270
f 261/23/266 262/22/265 269/29/272 268/30/273
f 262/22/265 263/24/267 270/31/274 269/29/272
f 263/24/267 264/25/268 271/32/275 270/31/274
f 264/25/268 265/26/269 272/33/276 271/32/275
f 265/26/269 266/27/270 273/34/277 272/33/276
f 266/27/270 267/28/271 274/35/278 273/34/277
f 268/30/273 269/29/272 276/36/279 275/37/280
f 269/29/272 270/31/274 277/38/281 276/36/279
f 270/31/274 271/32/275 278/39/282 277/38/281
f 271/32/275 272/33/276 279/40/283 278/39/282
f 272/33/276 273/34/277 280/41/284 279/40/283
f 273/34/277 274/35/278 281/42/285 280/41/284
f 275/37/280 276/36/279 283/43/286 282/44/287
f 276/36/279 277/38/281 284/45/288 283/43/286
f 277/38/281 278/39/282 285/46/289 284/45/288
f 278/39/282 279/40/283 286/47/290 285/46/289
f 279/40/283 280/41/284 287/48/291 286/47/290
f 280/41/284 281/42/285 288/49/292 287/48/291
f 4/50/293 15/51/294 240/1/244 79/52/295
f 15/51/294 14/53/296 241/2/245 240/1/244
f 14/53/296 13/54/297 242/5/248 241/2/245
f 13/54/297 12/55/298 243/7/250 242/5/248
f 12/55/298 11/56/299 244/9/252 243/7/250
f 11/56/299 10/57/300 245/11/254 244/9/252
f 10/57/300 9/58/301 246/13/256 245/11/254
f 9/58/301 3/59/302 86/60/303 246/13/256
f 246/13/256 86/60/303 87/61/304 253/14/257
f 253/14/257 87/61/304 88/62/305 260/21/264
f 260/21/264 88/62/305 89/63/306 267/28/271
f 267/28/271 89/63/306 90/64/307 274/35/278
f 274/35/278 90/64/307 91/65/308 281/42/285
f 281/42/285 91/65/308 92/66/309 288/49/292
f 288/49/292 92/66/309 7/67/310 37/68/311
f 287/48/291 288/49/292 37/68/311 38/69/312
f 286/47/290 287/48/291 38/69/312 39/70/313
f 285/46/289 286/47/290 39/70/313 40/71/314
f 284/45/288 285/46/289 40/71/314 41/72/315
f 283/43/286 284/45/288 41/72/315 42/73/316
f 282/44/287 283/43/286 42/73/316 43/74/317
f 85/75/318 282/44/287 43/74/317 8/76/319
f 84/77/320 275/37/280 282/44/287 85/75/318
f 83/78/321 268/30/273 275/37/280 84/77/320
f 82/79/322 261/23/266 268/30/273 83/78/321
f 81/80/323 254/16/259 261/23/266 82/79/322
f 80/81/324 247/4/247 254/16/259 81/80/323
f 79/52/295 240/1/244 247/4/247 80/81/324
usemtl Animal_06-256x256.png
f 93/1/1 94/2/2 101/3/3 100/4/4
f 94/2/2 95/5/5 102/6/6 101/3/3
f 95/5/5 96/7/7 103/8/8 102/6/6
f 96/7/7 97/9/9 104/10/10 103/8/8
f 97/9/9 98/11/11 105/12/12 104/10/10
f 98/11/11 99/13/13 106/14/14 105/12/12
f 100/4/4 101/3/3 108/15/15 107/16/16
f 101/3/3 102/6/6 109/17/17 108/15/15
f 102/6/6 103/8/8 110/18/18 109/17/17
f 103/8/8 104/10/10 111/19/19 110/18/18
f 104/10/10 105/12/12 112/20/20 111/19/19
f 105/12/12 106/14/14 113/21/21 112/20/20
f 107/16/16 108/15/15 115/22/22 114/23/23
f 108/15/15 109/17/17 116/24/24 115/22/22
f 109/17/17 110/18/18 117/25/25 116/24/24
f 110/18/18 111/19/19 118/26/26 117/25/25
f 111/19/19 112/20/20 119/27/27 118/26/26
f 112/20/20 113/21/21 120/28/28 119/27/27
f 114/23/23 115/22/22 122/29/29 121/30/30
f 115/22/22 116/24/24 123/31/31 122/29/29
f 116/24/24 117/25/25 124/32/32 123/31/31
f 117/25/25 118/26/26 125/33/33 124/32/32
f 118/26/26 119/27/27 126/34/34 125/33/33
f 119/27/27 120/28/28 127/35/35 126/34/34
f 121/30/30 122/29/29 129/36/36 128/37/37
f 122/29/29 123/31/31 130/38/38 129/36/36
f 123/31/31 124/32/32 131/39/39 130/38/38
f 124/32/32 125/33/33 132/40/40 131/39/39
f 125/33/33 126/34/34 133/41/41 132/40/40
f 126/34/34 127/35/35 134/42/42 133/41/41
f 128/37/37 129/36/36 136/43/43 135/44/44
f 129/36/36 130/38/38 137/45/45 136/43/43
f 130/38/38 131/39/39 138/46/46 137/45/45
f 131/39/39 132/40/40 139/47/47 138/46/46
f 132/40/40 133/41/41 140/48/48 139/47/47
f 133/41/41 134/42/42 141/49/49 140/48/48
f 4/50/50 22/51/51 93/1/1 15/52/52
f 22/51/51 21/53/53 94/2/2 93/1/1
f 21/53/53 20/54/54 95/5/5 94/2/2
f 20/54/54 19/55/55 96/7/7 95/5/5
f 19/55/55 18/56/56 97/9/9 96/7/7
f 18/56/56 17/57/57 98/11/11 97/9/9
f 17/57/57 16/58/58 99/13/13 98/11/11
f 16/58/58 2/59/59 29/60/60 99/13/13
f 99/13/13 29/60/60 28/61/61 106/14/14
f 106/14/14 28/61/61 27/62/62 113/21/21
f 113/21/21 27/62/62 26/63/63 120/28/28
f 120/28/28 26/63/63 25/64/64 127/35/35
f 127/35/35 25/64/64 24/65/65 134/42/42
f 134/42/42 24/65/65 23/66/66 141/49/49
f 141/49/49 23/66/66 1/67/67 30/68/68
f 140/48/48 141/49/49 30/68/68 31/69/69
f 139/47/47 140/48/48 31/69/69 32/70/70
f 138/46/46 139/47/47 32/70/70 33/71/71
f 137/45/45 138/46/46 33/71/71 34/72/72
f 136/43/43 137/45/45 34/72/72 35/73/73
f 135/44/44 136/43/43 35/73/73 36/74/74
f 9/75/75 135/44/44 36/74/74 3/76/76
f 10/77/77 128/37/37 135/44/44 9/75/75
f 11/78/78 121/30/30 128/37/37 10/77/77
f 12/79/79 114/23/23 121/30/30 11/78/78
f 13/80/80 107/16/16 114/23/23 12/79/79
f 14/81/81 100/4/4 107/16/16 13/80/80
f 15/52/52 93/1/1 100/4/4 14/81/81
